<?xml version="1.0" encoding="utf-8"?>
<!-- Generator: Adobe Illustrator 19.0.1, SVG Export Plug-In . SVG Version: 6.00 Build 0)  -->
<svg version="1.1" id="Layer_1" xmlns="http://www.w3.org/2000/svg" xmlns:xlink="http://www.w3.org/1999/xlink" x="0px" y="0px"
	 viewBox="414 138 1620 338" style="enable-background:new 414 138 1620 338;" xml:space="preserve">
<style type="text/css">
	.st01{fill:none;stroke:#FFFFFF;stroke-width:0.5675;}
	.st1{fill:#FFFFFF;}
</style>
<rect x="426.4" y="189.6" class="st01" width="1592.4" height="171.3"/>
<rect x="445.8" y="172.4" class="st01" width="1553.7" height="205.7"/>
<g>
	<path class="st1" d="M881,256c0,4.2-1.7,5.7-7.2,5.7h-39.6c-1.7,0-4.2-0.5-7.9-1.2c3.5-18.3,13.1-28.2,29.5-28.2
		C868.8,232.2,881,243.8,881,256z M898.3,263.9c0-18.1-19.1-35.9-39.6-35.9c-30.7,0-51.2,22.3-51.2,53c0,38.6,27.5,54.9,53,54.9
		c3.7,0,6.7-0.3,9.2-0.7l11.4-2.7c8.9-2.2,10.9-2.5,11.4-5.4l3.7-21.3c0.3-1.2,0-2.2-0.5-2.2l-2.5-0.5c-0.7-0.3-1.2,0.5-2.2,2
		l-7.2,11.1c-7.2,11.1-15.6,15.8-26.7,15.8c-19.8,0-32.2-15.4-32.2-57.9c0-5.7,0.5-6.4,5.4-6.4h60.9
		C896.3,267.6,898.3,266.6,898.3,263.9z"/>
	<path class="st1" d="M1031.8,331.5h-44.6c-0.5,0-1-1-1-2c0-1.2,0.5-1.7,1-1.7h4.4c7.4,0,10.4-3.5,10.4-13.6v-39.4
		c0-23.8-13.1-41.6-30.2-41.6c-7.7,0-24.5,11.6-24.5,24.3v57.4c0,10.2,2.2,12.9,9.7,12.9h4.2c0.7,0,1,0.5,1,1.7c0,1-0.3,2-0.7,2
		h-41.3c-1.5,0-2-0.5-2-1.7c0-0.7,0.5-2,2-2.2l6.4-1c4-0.7,5.9-3,5.9-7.7v-89.6c0-2.7,0.7-3.7,2.5-3.7c0.7,0,1.5,0.7,2.7,2l6.7,6.7
		l14.9-4c2.5-0.8,6.2-1.2,10.6-1.2c29.5,0,47,22,47,55.9v29.2c0,10.1,3,13.6,10.4,13.6h4.5c0.5,0,1,0.5,1,1.7
		C1032.8,330.5,1032.3,331.5,1031.8,331.5z"/>
	<path class="st1" d="M1163.1,331.5h-44.5c-0.5,0-1-1-1-2c0-1.2,0.5-1.7,1-1.7h4.4c7.4,0,10.4-3.5,10.4-13.6v-39.4
		c0-23.8-13.1-41.6-30.2-41.6c-7.7,0-24.5,11.6-24.5,24.3v57.4c0,10.2,2.2,12.9,9.7,12.9h4.2c0.7,0,1,0.5,1,1.7c0,1-0.3,2-0.7,2
		h-41.3c-1.5,0-2-0.5-2-1.7c0-0.7,0.5-2,2-2.2l6.4-1c4-0.7,5.9-3,5.9-7.7v-89.6c0-2.7,0.7-3.7,2.5-3.7c0.7,0,1.5,0.7,2.7,2l6.7,6.7
		l14.8-4c2.5-0.8,6.2-1.2,10.6-1.2c29.5,0,47,22,47,55.9v29.2c0,10.1,3,13.6,10.4,13.6h4.5c0.5,0,1,0.5,1,1.7
		C1164,330.5,1163.5,331.5,1163.1,331.5z"/>
	<path class="st1" d="M1255,256c0,4.2-1.7,5.7-7.2,5.7h-39.6c-1.7,0-4.2-0.5-7.9-1.2c3.5-18.3,13.1-28.2,29.5-28.2
		C1242.8,232.2,1255,243.8,1255,256z M1272.3,263.9c0-18.1-19-35.9-39.6-35.9c-30.7,0-51.2,22.3-51.2,53c0,38.6,27.5,54.9,53,54.9
		c3.7,0,6.7-0.3,9.1-0.7l11.4-2.7c8.9-2.2,10.9-2.5,11.4-5.4l3.7-21.3c0.2-1.2,0-2.2-0.5-2.2l-2.5-0.5c-0.7-0.3-1.2,0.5-2.2,2
		l-7.2,11.1c-7.2,11.1-15.6,15.8-26.7,15.8c-19.8,0-32.2-15.4-32.2-57.9c0-5.7,0.5-6.4,5.4-6.4h60.9
		C1270.3,267.6,1272.3,266.6,1272.3,263.9z"/>
	<path class="st1" d="M1373,239.1l-2,5.9c-1.2,4-2.7,5.4-5.2,5.4c-1.2,0-2.5-0.7-5.7-4.2s-9.6-6-14.8-6c-13.6,0-20.5,10.2-20.5,35.2
		v38.4c0,10.4,1,12.4,4.7,12.9l7.4,1c2.2,0.2,2.2,0.7,2.2,1.5c0,1.7-0.7,2.2-4.7,2.2h-26l-12.6,1c-2.2,0-3.2-0.7-3.2-2.2
		c0-0.7,1-1.5,1.2-1.5l9.9-1.7c4.5-0.7,5.4-3,5.4-12.4v-12.1c0-42.8,20.6-73.8,53.7-74c7.9,0,10.9,1.7,10.9,6.4
		C1373.8,236.2,1373.5,237.6,1373,239.1z"/>
	<path class="st1" d="M1611.6,335.4c-3.7,0-6.7-0.2-9.2-0.8l-11.4-2.7c-8.9-2.2-10.9-2.5-11.4-5.5l-3.7-21.3c-0.2-1.2,0-2.2,0.5-2.2
		l2.5-0.5c0.7-0.3,1,0.5,2,2l7.4,11.1c7.4,11.1,15.6,15.8,26.7,15.8c14.1,0,22.8-7.9,22.8-21.3c0-10.4-3.5-12.1-25.2-21.3
		c-29.4-12.4-33.4-16.6-33.4-29.2c0-22.5,29.7-33.2,48-33.2c7.9,0,10.9,1.5,10.9,6.2c0,1.2-0.3,2.7-0.7,4.2l-2,6
		c-1.2,4-2.7,5.4-5.2,5.4c-1.2,0-2.5-0.8-5.7-4.2c-3.2-3.5-9.7-5.9-14.9-5.9c-10.1,0-18.6,4.5-18.6,14.8c0,8.2,4.2,11.6,22.3,18.3
		c29.2,10.6,36.6,16.1,36.6,31.7C1650,323.3,1635.6,335.4,1611.6,335.4z"/>
	<path class="st1" d="M1780.3,331.5H1736c-0.5,0-1-1-1-2c0-1.2,0.5-1.7,1-1.7h4.4c7.5,0,10.4-3.5,10.4-13.6V260
		c0-16.1-14.1-22.3-28.4-22.3c-12.4,0.2-23.8,5.9-23.8,15.1V321c0,3.5,2.5,5.7,5.7,6.2l5.5,0.7c1.3,0.2,1.3,1.2,1.3,1.7
		s-0.2,1.7-1.7,1.7H1669c-0.5,0-1-0.5-1-2c0-1.2,0.5-1.7,1-1.7h4.4c7.4,0,10.4-3.5,10.4-13.6V157.7c0-4.5-3-5.7-9.9-5.7h-3
		c-2.5,0-3.7-0.7-3.7-2c0-1,2-3,5.9-2.7l22.5,0.7l18.3-0.7c2,0,3.2,1,3.2,2.2c0,1-0.5,1.7-1.7,2l-11.7,1.2
		c-4.5,0.5-5.4,1.2-5.4,12.1v76.8c9.7-7.7,19.1-10.6,29.5-10.6c14.1,0,22.1,6.5,28.8,13.3c11.5,11.8,8.9,59.6,8.9,69.8
		s3,13.6,10.4,13.6h4.5c0.5,0,1,0.5,1,1.7C1781.3,330.5,1780.8,331.5,1780.3,331.5z"/>
	<path class="st1" d="M1419.7,294.1c-4,0-7.6-0.7-13.7-2.7c-13.2-4.6-17.2-5.7-21.2-5.7c-6.3,0-10.8,1.6-11.7,6.7
		c-0.2,1.3,0.1,2.5-0.8,2.4c-1.1,0-1.8-1.3-1.8-2.9c0-7.3,7.7-12.8,17.3-12.8c5.4,0,12.5,1.5,19.9,4.7c7.1,3.1,10.1,3.9,14.3,3.9
		c7.2-0.2,9.3,0.1,11.3-4.7c0.7-1.5,1.1-2.2,2-2.2c1.1,0,1.5-0.6,1.5,0.3C1436.7,288,1428.9,294.1,1419.7,294.1z"/>
	<path class="st1" d="M1486.4,282.3l15.9-35.7l16.9,41c0.2,0.5,0.2,1,0.2,1.2c0,1.5-1.8,2.2-5.1,2.2h-20c-6.7,0-9.7-1-9.7-2.7
		C1484.6,286.2,1485.9,283.3,1486.4,282.3z M1489.2,328.1h-4.4c-5.4,0-16.7-3.4-13.3-11.1l6.2-14.3c2.1-4.6,2.3-4.6,3.1-5.3
		c0.8-0.7,4.6-1.2,8.2-1.2h28.2c5.7,0,6.4,1.4,9.2,7.5l7.4,16.2c1.5,3.4,0.5,5.8-4.9,6.5l-9.5,1.4c-3.1,0.5-3.8,0.5-3.8,1.7
		s0.8,1.9,2.8,1.9l25.1-0.9l20.8,0.5c1.6,0,2-0.5,2-1.9c0-1.9-0.8-2.4-5.1-2.4c-4.4,0-9-2.9-11.5-8.7l-35.1-77.9
		c-1-2.2-1.3-6-1.3-7.5c0-3.4-0.5-5.3-1.8-5.3s-3.3,0.7-4.6,1l-21.3,4.3c-0.8,0.3-1.3,1-1.3,1.5c0,1.2,2,2.2,4.4,3.1l5.9,2.4
		c3.3,1.4,3.1,2.7,2.8,3.4l-32,72.6c-4.1,9.4-9.8,11.8-14.4,12.1c-4.6,0.2-7.2-0.2-7.2,2.2c0,1.4,1.8,1.7,4.4,1.7s11.5-1.2,17.2-1.2
		c4.1,0,19.5,1.7,22.3,1.4c2.1-0.3,3.1-1,3.1-2.4C1490.8,328.4,1490.3,328.1,1489.2,328.1z"/>
	<path class="st1" d="M715.8,228.8h-48.2c-4.1,0-6.2,1.5-6.2,2.6c0,1.3,1.3,2.1,3.8,2.1h3.1c7.2,0,10.8,1.3,10.8,5.9v159.3
		c0,11.3-1,12.3-5.6,12.8l-12.3,1c-1,0.5-1.5,1-1.5,2.1c0,1.5,1,2.6,3.1,2.6l19-1l24.1,1c4.1,0.3,6.1-2.1,6.1-3.1s-1.5-2.1-4.1-2.1
		h-3.1c-7.2,0-10.3-1-10.3-5.6v-66.7c0-0.2,0-0.3,0-0.5l0.2-28l0,0v-73.8c0-1.8,1-3.6,2-3.6l14.9-0.8c2.1,0,4.4,0,6.4,0
		c25.4,0,42.3,25.6,42.3,49.2c0,28.2-16.2,51.1-42.8,51.3c-4.9,0-7,0.3-12.7-2.5c-3.3,1.2,2.4,5.4,6.9,6.9c3.3,1.1,6.4,1.3,9.6,1.3
		c30.5-1.6,57.2-22.6,57.2-57C778.6,256,758.6,228.8,715.8,228.8z"/>
</g>
<g>
	<path class="st1" d="M905.8,470.2h-7.3l-7.5-31.1c-0.4-1.7-1.2-5.2-1.4-6.4c-0.2,1.2-1,4.8-1.4,6.4l-7.9,31.1h-7.2l-9.8-48.2h7.3
		l5.8,30.4c0.3,1.4,0.9,4.8,1.1,6.3c0.3-1.6,0.9-4.8,1.3-6.3l7.7-30.5h6.2l7.9,31.2c0.3,1.3,0.9,3.9,1.2,5.6c0.3-1.8,0.8-4.5,1-5.7
		l5.8-31.1h7L905.8,470.2z"/>
	<path class="st1" d="M946.4,470.2V422h7.2v48.2H946.4z"/>
	<path class="st1" d="M1016.9,470.2L997.7,440c-1.2-1.8-2.8-4.7-3.6-5.9c0,1.8,0.1,8.5,0.1,11.2v25h-7V422h7.4l18.3,29.4
		c1.2,2,3.3,5.6,4,6.8c0-1.8-0.1-8.7-0.1-11.4V422h7v48.2H1016.9z"/>
	<path class="st1" d="M1057,470.2V422h31.1v7h-23.8v11.9h13.8v7h-13.8v15.2h24.9v7H1057V470.2z"/>
	<path class="st1" d="M1177.4,470.9c-12.5,0-20.4-10.3-20.4-24.9s7.9-24.9,20.4-24.9c7.9,0,13.1,3.2,16.4,9l-6.4,4
		c-2.5-3.9-5-5.8-10-5.8c-8.4,0-12.9,6.8-12.9,17.6c0,10.8,4.6,17.6,12.9,17.6c5,0,8.1-2.1,10.6-6l6,4
		C1190.6,467.6,1184.7,470.9,1177.4,470.9z"/>
	<path class="st1" d="M1225.1,470.2V422h31.1v7h-23.8v11.9h13.9v7h-13.9v15.2h24.9v7h-32.2V470.2z"/>
	<path class="st1" d="M1288.1,470.2V422h7.2v41.1h24v7.1H1288.1z"/>
	<path class="st1" d="M1349.8,470.2V422h7.2v41.1h24v7.1H1349.8z"/>
	<path class="st1" d="M1437,452.3h-14.9l3.9-11c1.2-3.6,2.9-9.1,3.5-11.2c0.6,2.1,2.5,7.6,3.7,11.1L1437,452.3z M1450.9,470.2
		l-17.6-48.2h-7.7l-17.3,48.2h7.5l4-11.4h19.3l4.1,11.4H1450.9z"/>
	<path class="st1" d="M1510.5,436.6c0,5.2-3.4,7.7-8.2,7.7h-14.1v-15.5h14.1C1507.1,428.8,1510.5,431.6,1510.5,436.6z M1517.7,436.4
		c0-9.9-7.1-14.4-15.5-14.4h-21.1v48.2h7.1v-19.1h10.9l9.6,19.1h8.3l-9.8-19.7C1513.7,448.8,1517.7,444.1,1517.7,436.4z"/>
	<path class="st1" d="M1564,470.9c-7,0-13.1-3-17.2-7.8l5.2-5c3.2,3.5,8,5.7,12.5,5.7c6.7,0,10-2.3,10-7c0-3.7-2.8-5.6-10.9-8
		c-10.2-3-15.1-5.6-15.1-14.2c0-8.4,7-13.4,15.9-13.4c6.5,0,11.5,2.4,15.8,6.5l-5.1,5.2c-3-3.1-6.5-4.6-11.2-4.6
		c-5.7,0-8.1,2.8-8.1,6c0,3.4,2.2,5,10.5,7.5c9.5,2.9,15.4,5.9,15.4,14.5C1581.9,465,1576.4,470.9,1564,470.9z"/>
</g>
</svg>
