<?xml version="1.0" encoding="utf-8"?>
<!-- Generator: Adobe Illustrator 19.0.1, SVG Export Plug-In . SVG Version: 6.00 Build 0)  -->
<svg version="1.1" id="Layer_1" xmlns="http://www.w3.org/2000/svg" xmlns:xlink="http://www.w3.org/1999/xlink" x="0px" y="0px"
	 viewBox="432 80.4 1656.1 453.6" style="enable-background:new 432 80.4 1656.1 453.6;" xml:space="preserve">
<style type="text/css">
	.st0{fill:#FFFFFF;}
</style>
<g>
	<path class="st0" d="M749.4,300.5V107.4h24v172.9h86.3v20.2H749.4L749.4,300.5z"/>
	<path class="st0" d="M894.2,136.1c-7.9,0-14.3-6.4-14.3-14.3s6.4-14.3,14.3-14.3s14.3,6.4,14.3,14.3S902.1,136.1,894.2,136.1z
		 M883.1,300.5V168H905v132.5H883.1z"/>
	<path class="st0" d="M980.8,304.3c-15.2,0-25.5-12-25.5-29.5v-88.4h-22.2v-12.9l22.2-5.6v-38.5h21.9V168h35.1v18.4h-35.1v75.5
		l0.3,5.9c0.3,4.1,0.3,6.7,0.6,8.2c0.3,4.4,2.9,6.4,7.6,6.4c5.6,0,9.9-2.3,19.3-9.4l9.1,14.6C998.6,300.5,991.3,304.3,980.8,304.3z"
		/>
	<path class="st0" d="M1054.8,232.3c0,32.2,16.4,51.8,43.3,51.8c11.7,0,20.2-3.2,34.5-13.2l8.8,17.3c-19.6,12.3-30.7,16.1-48,16.1
		c-36.9,0-61.7-28.1-61.7-69.9c0-42.1,24.9-69.9,62.6-69.9c31,0,51.2,21.9,51.2,55v12.9h-90.7V232.3z M1092.8,184.4
		c-18.4,0-31.3,11.1-36.3,31.6h64.9C1121.2,195.5,1111,184.4,1092.8,184.4z"/>
	<path class="st0" d="M1238.2,192c-4.4-3.8-6.7-5.3-9.4-5.3c-8.2,0-18.7,12-31.3,34.8v79h-21.9V168h21.9v24
		c16.4-21.1,24.6-27.5,34.5-27.5c5,0,11.1,3.2,17,9.1L1238.2,192z"/>
	<path class="st0" d="M1357.9,304.3c-18.1-1.2-24.6-5.8-25.7-18.4c-6.7,5.9-9.7,8.2-14,10.5c-8.2,4.7-18.7,7.6-28.1,7.6
		c-21.4,0-35.4-13.7-35.4-34.8c0-19.3,10.2-32.2,29.5-36.9l45.9-10.8v-24c0-10.8-8.2-16.4-25.2-16.4c-13.7,0-20.2,3.8-20.2,11.4
		c0,1.5,0.3,2.6,1.2,5l-22.2,4.7c-2.1-3.5-2.3-5-2.3-8.2c0-17.6,19.3-29.5,47.7-29.5c26.6,0,43.3,12.6,43.3,33.1v71.7v9.7
		c0.6,3.5,4.1,5.9,10.8,7L1357.9,304.3z M1330.1,239.9l-49.7,12.9c-3.2,6.1-3.8,9.1-3.8,14.3c0,10.5,7,17.3,17.8,17.3
		c9.9,0,16.7-3.2,35.7-17V239.9z"/>
	<path class="st0" d="M1451.2,192c-4.4-3.8-6.7-5.3-9.4-5.3c-8.2,0-18.7,12-31.3,34.8v79h-21.9V168h21.9v24
		c16.4-21.1,24.6-27.5,34.5-27.5c5,0,11.1,3.2,17,9.1L1451.2,192z"/>
	<path class="st0" d="M1530.2,307.8c-6.1,16.4-11.1,27.2-18.4,38.9c-5.3,8.5-9.1,14-19.9,27.8l-17.6-13.5
		c13.2-14.6,17.6-20.5,25.2-34.2c7.3-12.9,10.8-20.8,18.4-41l-49.1-117.9h24.6l31.9,81l4.4,12.9l2.9-12.9l27.2-81h22.5L1530.2,307.8
		z"/>
	<path class="st0" d="M1763.1,300.5l-19.9-57h-78.1l-19.9,57h-25.7l72-198.6h25.7l71.7,198.6H1763.1z M1704.3,133.2l-31.6,88.3h62.9
		L1704.3,133.2z"/>
	<path class="st0" d="M1870.2,192c-4.4-3.8-6.7-5.3-9.4-5.3c-8.2,0-18.7,12-31.3,34.8v79h-21.9V168h21.9v24
		c16.4-21.1,24.6-27.5,34.5-27.5c5,0,11.1,3.2,17,9.1L1870.2,192z"/>
	<path class="st0" d="M1936.1,304.3c-15.2,0-25.5-12-25.5-29.5v-88.4h-22.2v-12.9l22.2-5.6v-38.5h21.9V168h35.1v18.4h-35.1v75.5
		l0.3,5.9c0.3,4.1,0.3,6.7,0.6,8.2c0.3,4.4,2.9,6.4,7.6,6.4c5.6,0,9.9-2.3,19.3-9.4l9.1,14.6
		C1953.9,300.5,1946.6,304.3,1936.1,304.3z"/>
	<path class="st0" d="M2032.6,304.3c-5.6,0-11.7-0.6-18.4-1.8c-12.6-2.3-18.1-4.4-31.3-11.1l9.1-18.4c4.4,2.3,7.6,4.1,9.9,5.3
		c9.4,4.4,21.1,7.3,30.4,7.3c13.5,0,23.4-7.3,23.4-17.5c0-3.2-1.2-7-2.6-9.1c-5.3-7.6-11.4-11.4-35.1-21.1
		c-25.7-10.8-34.5-19.9-34.5-36c0-23.1,19.3-37.4,50.3-37.4c5.6,0,11.4,0.6,17,1.5c9.9,2,14.6,3.8,25.7,9.9l-10.8,17.8
		c-8.5-5.3-12.3-7-19-8.8c-5.3-1.5-10.2-2.3-15.2-2.3c-14.9,0-24.6,6.7-24.6,16.7c0,3.2,1.2,6.1,3.2,8.2c5.3,5.3,8.8,7.3,32.8,17.3
		c28.1,11.7,36,20.8,36,41.5C2078.8,290,2061.6,304.3,2032.6,304.3z"/>
</g>
<g>
	<polygon class="st0" points="436.5,523.2 436.5,101.2 636.1,101.1 636.3,521.3 536.3,480.7 	"/>
</g>
<g>
	<path class="st0" d="M759.9,413.9v23.7h25v7.3h-25v30.9h-8.6v-69.1h38.9v7.2H759.9z"/>
	<path class="st0" d="M816.5,475.8v-69.1h8.6v69.1H816.5z"/>
	<path class="st0" d="M905.6,476.4l-34.9-53.9c-0.3-0.5-0.8-1.4-1.4-2.4c-0.4-0.7-0.7-1.2-0.8-1.6c-0.4-0.7-0.6-1.3-1-2.6v59.9h-8.6
		v-69.1h11.2l34.2,52.7c0.3,0.4,0.6,1,0.9,1.7c0.4,1,0.5,1.2,1.3,3.1c0.1,0.2,0.2,0.6,0.4,1v-58.6h8.6v69.8H905.6z"/>
	<path class="st0" d="M996.4,465.7c-6.3,7.2-13.5,10.1-25.6,10.1h-22.9v-69.1h23c20.2,0,34.8,14.3,34.8,34.3
		C1005.7,449.9,1002.3,458.9,996.4,465.7z M969.5,413.9h-13.1v54.7h13.1c9.1,0,14.2-1.8,18.6-6.3c5-5.3,8.5-13.9,8.5-21.5
		C996.7,425.4,985.1,413.9,969.5,413.9z"/>
	<path class="st0" d="M1083.2,443.5v32.3h-8.6v-31.6l-23-37.5h9.2l18.5,29.6l19.1-29.6h9.1L1083.2,443.5z"/>
	<path class="st0" d="M1156.2,477.2c-20.1,0-34.8-15.1-34.8-35.9c0-20.7,14.7-35.8,34.8-35.8c20.1,0,34.7,15.1,34.7,35.8
		C1190.9,462.1,1176.3,477.2,1156.2,477.2z M1156.2,413c-13.9,0-25.3,12.8-25.3,28.3c0,15.6,11.4,28.4,25.3,28.4
		c13.8,0,25.2-12.8,25.2-28.4C1181.5,425.7,1170.1,413,1156.2,413z"/>
	<path class="st0" d="M1262.9,471.4c-5.1,4.2-11.5,6.4-19,6.4c-7.4,0-13.9-2.2-19.1-6.4c-5.8-4.7-8.1-10.3-8.1-19.3v-45.5h8.6v42.8
		c0,8.6,0.6,11,4,14.7c3.5,3.9,8.5,6,14.4,6c6,0,11-2.1,14.5-6c3.4-3.7,4-6.1,4-14.7v-42.8h8.6v45.5
		C1270.8,461.3,1268.6,466.7,1262.9,471.4z"/>
	<path class="st0" d="M1337.7,475.8l-19.1-29.6h-9.2v29.6h-8.6v-69.1h21c8.4,0,12.4,1.3,16.3,5.1c3.4,3.2,5.4,8.3,5.4,13.5
		c0,5.4-2.2,10.7-6.1,14.3c-2.8,2.8-5.3,4.1-10.5,5.2l20.4,30.9h-9.6V475.8z M1330.7,415.9c-2.1-1.7-3.9-2-10.1-2h-11.2v25h11.2
		c9.1,0,13.8-4.6,13.8-13.5C1334.4,421,1333.2,417.9,1330.7,415.9z"/>
	<path class="st0" d="M1439.3,418.4c-3.6-2.1-5-2.8-7.2-3.6c-2.6-0.8-6.8-1.5-9.5-1.5c-7.9,0-13.2,3.9-13.2,9.7
		c0,5.1,3,7.8,17.1,15.2c4.7,2.5,8.4,4.8,10.9,7c3.4,2.8,5.3,7.5,5.3,12.6c0,11.8-8.8,19.3-22.7,19.3c-4.7,0-9.1-0.8-12.8-2.3
		c-2.6-1-4.4-2.1-8.9-5.1l4.4-6.8c3.9,2.6,5.6,3.6,8,4.5c3,1.1,6.4,1.8,10,1.8c8.2,0,13.1-3.9,13.1-10.5c0-2-0.3-3.7-1-4.9
		c-1.2-2.1-3.1-4.1-5.9-5.7c-1.2-0.6-5-2.6-11.5-6.2c-10.4-5.6-14.8-11-14.8-18.1c0-11,9.1-18.3,22.8-18.3c4,0,8.1,0.5,11.6,1.7
		c2.8,0.9,4.5,1.8,8.4,4.1L1439.3,418.4z"/>
	<path class="st0" d="M1492.4,413.9v61.9h-8.6v-61.9h-23v-7.2h54.7v7.2H1492.4z"/>
	<path class="st0" d="M1563.7,477.2c-20.1,0-34.8-15.1-34.8-35.9c0-20.7,14.7-35.8,34.8-35.8s34.7,15.1,34.7,35.8
		C1598.4,462.1,1583.9,477.2,1563.7,477.2z M1563.7,413c-13.9,0-25.3,12.8-25.3,28.3c0,15.6,11.4,28.4,25.3,28.4
		c13.8,0,25.2-12.8,25.2-28.4C1589,425.7,1577.6,413,1563.7,413z"/>
	<path class="st0" d="M1660.3,475.8l-19.1-29.6h-9.2v29.6h-8.6v-69.1h21c8.4,0,12.4,1.3,16.3,5.1c3.4,3.2,5.4,8.3,5.4,13.5
		c0,5.4-2.2,10.7-6.1,14.3c-2.8,2.8-5.3,4.1-10.5,5.2l20.4,30.9h-9.6V475.8z M1653.3,415.9c-2.1-1.7-3.9-2-10.1-2H1632v25h11.2
		c9.1,0,13.8-4.6,13.8-13.5C1657.1,421,1655.8,417.9,1653.3,415.9z"/>
	<path class="st0" d="M1716.7,443.5v32.3h-8.6v-31.6l-23-37.5h9.2l18.5,29.6l19.1-29.6h9.1L1716.7,443.5z"/>
	<path class="st0" d="M1843.5,475.8v-31.6h-40.7v31.6h-8.6v-69.1h8.6v29.6h40.7v-29.6h8.6v69.1H1843.5z"/>
	<path class="st0" d="M1885.9,475.8v-69.1h38.9v7.2h-30.3v23h25v7.2h-25v24.4h31.2v7.2L1885.9,475.8L1885.9,475.8z"/>
	<path class="st0" d="M1990.2,475.8l-19.1-29.6h-9.2v29.6h-8.6v-69.1h21c8.4,0,12.4,1.3,16.3,5.1c3.4,3.2,5.4,8.3,5.4,13.5
		c0,5.4-2.2,10.7-6.1,14.3c-2.8,2.8-5.3,4.1-10.5,5.2l20.4,30.9h-9.6V475.8z M1983.2,415.9c-2.1-1.7-3.9-2-10.1-2H1962v25h11.2
		c9.1,0,13.8-4.6,13.8-13.5C1987,421,1985.7,417.9,1983.2,415.9z"/>
	<path class="st0" d="M2025.5,475.8v-69.1h38.9v7.2h-30.3v23h25v7.2h-25v24.4h31.2v7.2L2025.5,475.8L2025.5,475.8z"/>
</g>
</svg>
