<?xml version="1.0" encoding="utf-8"?>
<!-- Generator: Adobe Illustrator 19.0.1, SVG Export Plug-In . SVG Version: 6.00 Build 0)  -->
<svg version="1.1" id="Layer_3" xmlns="http://www.w3.org/2000/svg" xmlns:xlink="http://www.w3.org/1999/xlink" x="0px" y="0px"
	 viewBox="1288 -482.8 3368.4 1576.8" style="enable-background:new 1288 -482.8 3368.4 1576.8;" xml:space="preserve">
<style type="text/css">
	.st0{fill:#FFFFFF;}
</style>
<g>
	<path class="st0" d="M1780.2,299.9c9.1-38,8.6-78.4-6.5-115.4c-13.5-33-41.4-62-93.6-50.1c-35,7.9-78.1,43.8-102.3,67.5
		c-21.7,21.2-48.4,53.4-78.4,87.1c89.4-212.2,172.4-452.8,263.4-677.1c10-24.6,27.7-45.6,2.2-58.8c-14.4-7.4-34.2,39.7-43.5,63.1
		c-98.9,249.3-198.8,499.1-291.8,753.3c-3.9,10.8-28.6,75.9-37,98c-16.9,44-37.1,89.9-52.3,130.6c0,0-3,7.3,0,13.1
		c22.7,43.4,45.3-16.2,56.6-45.7c19.1-49.9,33.2-102.7,58.8-145.9c12.7-21.5,28.5-47.1,42.6-65.7c35-46,82.2-109.7,142.5-154.2
		c16.7-12.3,49.5-33.6,71.9-28.3c36.1,8.5,38,96,26.1,135c-6.3,20.6-18,43.4-28.3,61c-32.6,55.5-82.1,101.8-128.5,143.8
		c-35.6,32.1-72.4,59.7-113.2,89.3c-12.8,9.3-15.6,20.7-15.9,39.4c-0.3,23.3,39.9-6.9,55.1-17.7c47.5-33.7,96.4-76.8,137.2-117.6
		c27.9-22.2,54.4-55.2,78.4-91.4C1746,379.4,1770.5,340.7,1780.2,299.9z"/>
	<path class="st0" d="M3598.3-61.5c36,3.1,58.5-48.8,10.9-39.2C3580-144,3552.5-65.4,3598.3-61.5z"/>
	<path class="st0" d="M2701.2,273.8c-13-0.4-21.3,16.3-30.5,34.8c-44,89-186.3,217.7-230,229.7c-1-41.3,24-87.5,44.9-125.2
		c10.4-18.7,25.7-34.4,13.1-50.1c-12-11.2-24.4-4.2-37,0c-90.7,30.4-180.1,66.7-263.4,100.2c17-27.3,53.7-59.2,45.7-111
		c-3.7-23.9-28.4-65.4-56.6-63.1c-18.2,1.5-27.2,25.2-39.2,37c-17.4,17.2-41.3,34.3-63.1,50.1c-22.5,16.3-45.4,33.5-67.5,45.7
		c37.9-64.6,61.2-121.5,93.6-187.2c7.3-14.8,20.6-54.5,34.8-61c7.7-3.5,22.8-4,37.4-5.1c16.4-1.3,34.6-2.8,45.3-3.6
		c107.7-7.7,231.7-6.4,344,0c18.3,1,63.6,10.5,67.5-10.9c5.5-29.7-30.2-23.6-67.5-26.1c-127.2-8.5-297.9-11.7-413.7,6.5
		c26.6-53.8,49.9-115.3,74-174.2c6.6-16.2,23.1-53.5-10.9-52.3c-18.4,0.7-28.4,34.5-34.8,50.1c-9.2,22.5-19,44.8-26.1,61
		c-19.9,45.2-31.6,84.3-54.4,119.8c-36.1,5.6-67.3,10.6-106.7,19.6c-22.9,5.2-89,15-84.9,43.5c4.4,30.6,63.2,2.8,82.7-2.2
		c15.4-3.9,30.6-7.9,45.7-10.9c16.2-3.2,36.4-8,48.8-7.5c-65.7,96.5-237.3,257.4-281.7,281.8c19.3-31.9,62-76.1,67.5-126.3
		c3.4-31.1-5.1-57.6-23.1-59.3c-52.5-5.1-74.4,50.6-94.4,89.8c-23.5,46-50.2,89.9-43.5,141.5c-6.7,15.8-72.8,59.1-37,76.2
		c25.8,12.4,49.4-39.2,67.5-47.9c36.9,6.7,116.9-62.2,158.9-98c42.4-36.1,81.1-75.6,119.8-115.4c-3.2,6.1-15.6,28.2-24,43.5
		c-11,20.2-50.8,96.6-4.4,104.5c16.8,2.8,40-14.5,56.6-26.1c43.7-30.5,83-56.4,117.6-89.3c12.3-11.7,15-21.9,22.2-27.8
		c22.6,19.2,12.7,46.7,4,67c-14.8,34.4-54.9,66.2-84.9,89.3c-14.1,10.8-27.2,19.3-24,34.8c6.9,32.4,63-1.3,82.7-8.7
		c93.8-35.5,185.6-65.3,272.2-100.2c-8.3,17.3-20.8,38.9-30.5,63.1c-13.8,34.6-29.4,104.9,15.2,108.9c9.3,0.8,24.7-7.2,39.2-15.2
		c36.6-20.2,69.6-46.6,95.8-67.5c31.7-25.3,96.3-100.9,109-118.6c-25.8,155.5-55,317-109,449.5c-4.8,11.8-21.6,49,4.4,52.3
		c17.7,2.2,27.6-27,37-50.1c61-150,89.3-328.3,111-509.5C2717.8,312.9,2727.1,274.6,2701.2,273.8z M1760.6,463.2
		c11.4-53.9,62.5-133.4,71.8-143.4c5.4-5.7,8.2-1.7,9.1,2.7C1847.7,350.6,1790.6,439.1,1760.6,463.2z"/>
	<path class="st0" d="M4610.7,415.3c-25.8-7-50.4,9.3-71.8,17.4c-23.8,9.1-188.4,92.9-278.7,69.7c-33.5-8.6-42.8-41.7-28.3-84.9
		c9.3-28,45.8-76.5,8.7-78.4c-22.1-1.1-27.2,36.1-37,52.3C4176.5,435.9,4050,532,3994,523.5c48-52.5,99.1-88.6,155.2-132.1
		c14-10.9,46.5-28.4,45.7-45.7c-0.2-5.4-8.5-17.6-15.2-19.6c-22.8-6.8-47.9,14.7-63.1,26.1c-50,37.6-97.3,83.1-137.2,124.1
		c-14.9,15.3-28.6,32-43.6,45.7c-37,33.9-80,64.9-115.4,102.3c-7.2,7.6-7.2,6.3-21.8,21.8c46.9-94.5,92.4-189.4,139.3-285.2
		c6.3-12.9,16.3-28.3,10.9-43.5c-21-24.2-51.2,21.6-67.5,37C3823.7,409,3727.7,500,3714.1,489c-9.5-7.7,34.3-82.4,58.4-121.6
		c8.8-14.3,35.8-47.7,4.4-52.3c-18-2.6-45.4,38.2-54.4,47.9c-36.6,39-63.4,68.8-102.3,102.3c-17.7,15.2-45.6,40.6-56.6,32.6
		c-14.9-10.8,33.6-137.5,62-200c7-15.4,30.2-67.6-3.2-52.6c-12.8,5.8-25.2,35.3-34.8,56.6c-18,39.7-36,81.5-50.1,128.5
		c-10.9,36.2-26.8,96.3,13.1,106.7c28.5,7.4,60.6-21.7,84.9-41.4c18.8-15.2,49.5-43.2,63.1-56.6c-11.8,21.9-29.7,69.8,0,84.9
		c29.7,15.1,83.4-36.6,115.4-63.1c11.9-9.9,24.4-20.4,34.8-30.5c10.6-10.3,23.8-25.1,35.3-34.6c-45.4,87.2-89.4,182.4-135.4,276.2
		c-12.3,25-21.4,45.9-37,65.3c-29.5,36.8-58.7,73.6-84.9,115.4c-22.4,35.7-52.8,81.3-54.4,137.2c-0.6,20.7,4.4,54.4,20.8,55.8
		c36.8,3.1,98.8-188.2,149-280c24.5-44.9,64.6-82.1,100.2-115.4c37.6-35.3,75.7-68.9,113.2-100.2c56.1,31.8,161.3-41.4,193.8-63.1
		c17.8-11.9,31.4-24.6,45.7-34.8c-8.2,64.5,44.8,90.8,117.6,84.9c50.9-4.1,107.8-24.5,158.9-43.5c56.3-21,139-53.8,143.7-58.8
		C4619.8,430,4617.8,417.3,4610.7,415.3z M3617.3,952.2c-3.8,10.3-9,13.8-5.9,0.9c4-16.9,34-71.7,40.4-82.1
		c2.8-4.5,8.3-12.2,9.6-13.8C3648.1,884.2,3622.3,938.6,3617.3,952.2z"/>
	<path class="st0" d="M3378.4,437.1c-9.9,2.3-123.6,27.2-191.6,34.8c21.9-43.5,43.3-89.7,65.3-130.6c7.5-14,16.6-27.9,19.6-43.6
		c0.1-4.7-3.2-11-13.1-4.4c-13.8,12.2-19.5,29.9-30.5,50.1c-16.4,30.3-49.7,99-65.7,130.4c-7.3,1.5-10.8,1.9-27.7,4.2
		c-18.8-51.9-68.9-93.3-124.4-108.4c-65.9-18-161.9-18.4-172,47.9c-3.6,23.8,7.1,41.8,17.4,52.3c47.3,47.9,179.1,42.7,263.4,32.7
		c2,14.5,5.3,25.9,4.4,39.2c-2.1,28.9-33.1,73.3-8.7,78.4c21.4,4.5,25.4-40,32.7-64.6c6.8-22.6,19.8-43.2,28.2-59.5
		c52.3-7.5,102.2-15.7,148.1-26.1c19.6-4.4,38.8-8.5,56.7-12.4c15.9-3.5,59.9-10.9,45.6-20.2
		C3411.3,427.3,3394.8,433.2,3378.4,437.1z M2945.1,482.8c-33.6-5.1-82.6-19.3-84.9-52.3c-2.3-32.8,30.5-48.2,63.1-50.1
		c80.1-4.6,172.5,41.3,188.1,99.8C3078.4,485.7,3002.1,491.4,2945.1,482.8z M3141.8,520.4c-0.7-7.4-1.7-14.2-2.8-20.3
		c5.2-0.9,9.8-1.1,14.9-2.2C3150.9,504.2,3145.3,512.3,3141.8,520.4z"/>
</g>
</svg>
