<?xml version="1.0" encoding="utf-8"?>
<!-- Generator: Adobe Illustrator 19.0.1, SVG Export Plug-In . SVG Version: 6.00 Build 0)  -->
<svg version="1.1" id="Livello_12345" xmlns="http://www.w3.org/2000/svg" xmlns:xlink="http://www.w3.org/1999/xlink" x="0px" y="0px"
	 viewBox="433 -192 1657.1 996" style="enable-background:new 433 -192 1657.1 996;" xml:space="preserve">
<style type="text/css">
	.st0{fill:#fff;}
</style>
<g>
	<path class="st0" d="M1772.6,80.3c-0.1-42.5-79.8-69.7-146.6-85c-5.9-1.4-12-2.7-18.2-4c-17.7-22.5-42.2-43.2-73.1-61.1
		c-48.7-28.2-109.1-47.1-174.6-55.4l2.4-10.2l-5.4-31.5l-14.4-0.9l-20.9-18.2l-38.4,6.6l-21.5,3.1l-22.7,13.7l-4.9,29l-13.5,6.9
		c-70.7,7.3-135.9,26.8-187.8,57c-30.9,17.9-55.4,38.6-73.1,61.1c-6.3,1.3-12.5,2.6-18.6,4c-64.6,14.8-140.9,40.8-146.1,80.8
		c-0.7,1.5-1.1,3.2-1.1,4.9v0.2c0,1.7,0.6,3.4,1.3,4.9c6.8,39.2,82.1,64.7,145.9,79.4c6.6,1.5,13.3,2.9,20.2,4.4
		c17.5,21.7,41.6,41.6,71.5,59c54.2,31.4,122.7,51.2,196.9,57.7l0.2,0.4c10.1,0.8,18.7,1.4,26.8,1.7c8.8,0.9,17.8,1.4,26.9,1.4
		c10.4,0,20.6-0.7,30.6-1.8c83.2-4.1,160.5-24.8,220.4-59.5c29.9-17.4,54-37.3,71.5-59c6.7-1.4,13.4-2.8,19.8-4.3
		c64.5-14.8,140.7-40.7,146.1-80.6c0.4-1.2,0.6-2.5,0.6-3.9C1772.7,80.8,1772.6,80.6,1772.6,80.3 M1622.8,9
		c64.9,14.9,109.8,34,127.4,53.5c-5.9-1.9-12.9-3.7-21.5-5.5c-22.5-4.7-53.9-8.9-93.3-12.6c-3.5-12.3-8.7-24.4-15.8-36.1
		C1620.7,8.5,1621.8,8.7,1622.8,9 M1517.7,51.6c33.8,1.7,65.5,3.7,94.3,6.1c4.6,0.4,8.9,0.8,13.2,1.2c1.3,6.8,2,13.7,2,20.7
		c0,8-0.9,15.9-2.5,23.6c-4.2,0.4-8.3,0.7-12.7,1.1c-28.9,2.4-60.7,4.4-94.5,6.1c1.6-9.9,2.5-20,2.5-30.3
		C1519.9,70.4,1519.1,60.9,1517.7,51.6 M1600.9,4.3c9,12.3,15.8,25.3,20.3,38.8c-32.2-2.8-68-5.1-106.5-7
		c-4.1-16.8-10.4-32.9-18.7-48C1533.6-7.6,1568.8-2.2,1600.9,4.3 M1414.7,129.5c29.9-0.7,58.9-1.7,86.6-3
		c-4.6,16.9-11.7,33-20.9,47.9c-27.2,2.8-55.5,5-84.7,6.6l19.7-48.3L1414.7,129.5z M1411.6,114.2l-3.4-16.9l-33.9-4.2l2.1-46
		c45,0.8,88.3,2.1,128.9,4c1.6,9.5,2.4,19.2,2.4,29.1c0,10.5-1,20.8-2.7,30.9C1475.1,112.3,1443.9,113.4,1411.6,114.2 M1367.2-21.6
		c39.4,1.6,77.5,4.3,113.6,8c9.3,15.3,16.4,31.7,20.9,49c-39.3-1.8-81.2-3-124.8-3.8l0.8-18.1L1367.2-21.6z M1586.7-12.8
		c-30.9-5.7-64.5-10.5-99.9-14.3c-22.8-34-56-61.8-95.7-79.9C1475.4-91,1545.4-56.9,1586.7-12.8 M1225.6-62.9l2.6-49.5l19.5-10.9
		l3.1-16.3c7.5-3.1,14.3-7.1,14.3-7.1l-5.4-8.2l9.3-12.3l15,4.2l8.4,11.5l16.7-5.6l17.1,2.4l4.2,5.1l11.4-6.6l6.5,0.1l2.4,11.9H1335
		l8.4,10.2l-2.2,8.3l-13.3-3.5l-8.8,7.1l8.3,29.2l-20.9-0.5l13.4,12.7c-1.6,3.1-5,8.6-5,8.6l-7.7-1.8l-9.4-7l-13.9,5.4l4.2,13
		l9.7,7.3l10.4-5.2l10.9,1.8l3.1,5.4l-7.8,11.3l-14.4,0.3l-27.1-27.3l-0.4-26.6l-9.7,3.5l-3.6,47.5l-24.3,21.4l-0.1,52.6l-13.5-4.1
		v-51.5l27.9-25.5l3.5-50.5l9.2-4.1v-10.9l-21.1,9.6l-3,49.9l-27.4,27.5l-0.1,51.8l-12.1-3.3l-0.1-53.9L1225.6-62.9z M1339.3-80.1
		l-8.3,13.7l-5.4-3v-10.1L1339.3-80.1z M1258.9,36.7l-13.1-4.2v-48.3l25-20.8l1.8-12.5l8.9,8.3l-1.2,10.7l-21.5,18L1258.9,36.7z
		 M1252.8,76.7l-7.6,8L1227.9,68l-7,6.4l16.6,16.6l-11.1,5.3l-43.1-37.2l14.9-28.4l56.7,19.5l0.4,14.3L1240,52.9c0,0-3.8,4-5.2,6.8
		C1241.9,65.9,1252.8,76.7,1252.8,76.7 M1184.6,114.9c-42.6-0.8-83.6-2.1-122.2-3.8c-1.8-10.1-2.8-20.4-2.8-30.9
		c0-9.9,0.8-19.6,2.4-29.1c35.3-1.6,72.8-2.8,111.7-3.6l-7.4,14.2l32.5,30.2L1184.6,114.9z M1190,182c-35.7-1.6-70.2-4.2-103.1-7.6
		c-9.2-14.9-16.2-31-20.9-47.9c36.3,1.6,74.8,2.8,114.8,3.6L1190,182z M1065.5,35.4c4.5-17.3,11.6-33.8,20.9-49
		c30.7-3.2,62.9-5.6,96-7.2v51.5l-0.6,1.1C1141.4,32.6,1102.3,33.8,1065.5,35.4 M1270.5-3.7l20.6-17l1.2-14l10.4,10.6l-0.6,11
		l-18.5,15.6l-0.2,41.3l-13.1-4.2L1270.5-3.7z M1314.3-6.1l0.3-9.6l9.8,8.6v9.5L1307.7,17v33.8l-13.1-3.5l-0.1-36.5L1314.3-6.1z
		 M1209.8-69l-27.3,27.9v6.3c-29.5,1.4-58.1,3.5-85.7,6.1c27.3-36.4,67.9-64.4,115.6-78.6L1209.8-69z M1176.1-106.9
		c-39.7,18.1-72.9,45.9-95.6,79.8c-35.4,3.8-68.8,8.5-99.7,14.2C1022.1-56.9,1092-90.9,1176.1-106.9 M966.6,4.2
		c32-6.5,67.2-11.9,104.7-16.1c-8.3,15.1-14.6,31.2-18.7,48c-38.4,1.8-74.1,4.2-106.3,6.9C950.8,29.5,957.6,16.5,966.6,4.2
		 M1049.9,110.4c-34.1-1.7-66.1-3.7-95.2-6.1c-4.1-0.3-7.9-0.7-11.8-1c-1.6-7.8-2.6-15.7-2.6-23.7c0-7,0.7-13.9,2-20.8
		c4.1-0.4,8-0.7,12.4-1.1c29-2.4,60.9-4.4,94.9-6.1c-1.4,9.3-2.2,18.8-2.2,28.5C1047.4,90.4,1048.3,100.5,1049.9,110.4 M944.4,9
		c1.2-0.3,2.4-0.5,3.6-0.8c-7.1,11.6-12.4,23.7-15.9,36c-39.7,3.7-71.4,8-94.1,12.7c-8.2,1.7-15,3.4-20.7,5.2
		C835,42.8,879.7,23.8,944.4,9 M811.4,81c6.8-3.8,31.4-12.7,117.2-20.9c-1,6.4-1.6,12.9-1.6,19.5c0,7.6,0.7,15,2,22.4
		C842.9,93.7,818.2,84.8,811.4,81 M944.4,151.9c-62.9-14.5-107-32.9-125.7-51.7c5.5,1.7,12,3.3,19.7,4.9c22.8,4.7,54.7,9,94.6,12.7
		c3.7,12,9.2,23.8,16.4,35.2C947.7,152.6,946,152.2,944.4,151.9 M968.2,157c-9.1-12.1-16.1-24.7-20.8-37.9
		c32,2.8,67.6,5.1,105.7,6.9c4.1,16.4,10.4,32.1,18.6,46.8C1034.7,168.6,999.9,163.3,968.2,157 M982.9,174
		c30.4,5.6,63.3,10.2,98.1,13.9c21.9,32.4,53.3,59.1,90.7,77.1C1090.9,249,1023.7,216.3,982.9,174 M1097.3,189.6
		c30.9,3,63.2,5.2,96.4,6.6l26.1,66.4l3.3,7.8C1171,257.5,1126.6,228.4,1097.3,189.6 M1305.8,184.9c-10.3,31.9-33,90.2-33,90.2
		l-31.5-1.6l-31.8-85.7l-11.6-60.8l16.6-25c0,0,2.6,3.9,7.7,8.3l30.6-16.6l15.3-17.9h21.6l28.1,49.7
		C1317.9,125.5,1309.4,163.8,1305.8,184.9 M1356.6,271.5l-12.6,1.6v-25.4l-12.5,0.6v25.6l-12.5,1.2v-83.4l10.2-41.9l22.5-17
		l-7.6,115.5h12.5V271.5L1356.6,271.5z M1364.4-100.7l-3.4-4.8c45.1,14.7,83.4,41.9,109.6,76.8c-34.4-3.3-70.5-5.7-107.6-7.1
		l-6.2-20.4L1364.4-100.7z M1372.1,109.6l21.9,2.8l4.4,20.2l-37.8,93.5L1372.1,109.6z M1379.8,267.9l-11.3,1.8v-21.5h11.3
		C1379.8,248.2,1379.5,263.8,1379.8,267.9 M1374.2,233.7l15.6-38.3c27.5-1.4,54.3-3.3,80.1-5.8c-19.9,26.4-46.8,48.3-78.4,63.7
		l0.1-19.3L1374.2,233.7z M1395.3,265.1c37.6-18,69-44.8,91-77.2c34.9-3.7,67.9-8.4,98.3-14C1543.8,216.3,1476.4,249.1,1395.3,265.1
		 M1599.3,156.9c-31.8,6.4-66.6,11.7-103.8,15.9c8.2-14.7,14.5-30.5,18.6-46.9c38.3-1.8,74-4.2,106-6.9
		C1615.4,132.2,1608.4,144.8,1599.3,156.9 M1622.8,151.9c-1.5,0.3-3.1,0.7-4.6,1c7.2-11.4,12.6-23.1,16.3-35.1
		c39.8-3.7,71.5-8,94.1-12.7c7.8-1.6,14.4-3.3,20-5C1730.1,118.9,1685.9,137.4,1622.8,151.9 M1638.5,101.9c1.3-7.4,2-14.8,2-22.4
		c0-6.5-0.6-13-1.5-19.4c85.4,8.3,109.8,17.1,116.4,20.9C1748.7,84.8,1724.3,93.6,1638.5,101.9"/>
	<path class="st0" d="M1254,203.1l-5.3-6.2l5.9-5.9l-13.4-26.8l-5.6,2.4l0.1,17.3l-9.1,9.7l0.1-11.3l-10.2-20l9.8-19.1l16.4,4.8
		l12.2,23.2l-9.5-34l13.1-24.4l13.1,23.8l-8.4,34.5c3.7-4.9,9.5-22,9.5-22l19.6-4.9l9.5,18.5c0,0-4.4,7.6-8.9,19v11l-7.9-8.7
		l-4.9-17.5l-4.4-1.9l-13.2,25.9l5.4,6.8l-5.3,5.6l3,11.3l-7.2,17.8l-7.3-18.1L1254,203.1z"/>
	<polygon class="st0" points="1294.3,-128.3 1287.5,-104.3 1272.4,-128.6 	"/>
	<g>
		<path class="st0" d="M445.5,629.4V360.2h41.8v269.2H445.5z"/>
		<path class="st0" d="M523.4,487.7c2.2-40.6,28-62.6,67.1-62.6c38.8,0,60.8,17.9,60.8,54.4v128.6c0,6.3,1.5,14.5,2.6,21.2H614
			c-0.4-5.6-1.9-10.8-2.2-15.7C596.1,626.3,583.1,633,563,633c-28.3,0-42.5-19.4-42.5-45.1c0-44,29.1-68.2,89.1-91V485
			c0-16.8-6.7-25.7-20.5-25.7c-19,0-23.1,11.2-23.9,28.3L523.4,487.7L523.4,487.7z M609.6,527.6c-38,21.6-47.3,35.4-47.3,52.9
			c0,13,6.7,18.3,19.4,18.3c11.6,0,20.9-8.6,28-18.6v-52.6H609.6z"/>
		<path class="st0" d="M859.3,629.4V473.9c0-10.1-6.3-14.5-14.5-14.5c-8.9,0-17.1,5.6-26.8,12.7v157.3h-41.8V428.8h39.5v20.1
			c17.5-14.9,26.5-23.9,46.2-23.9c20.9,0,27.6,7.5,36.5,23.9c20.1-19.4,31.3-23.9,46.6-23.9c26.1,0,39.1,16,39.1,42.1v162.2h-41.8
			V473.9c0-10.1-6.7-14.5-14.9-14.5c-8.9,0-17.1,5.6-26.5,12.7v157.3H859.3z"/>
		<path class="st0" d="M1020.4,487.7c2.2-40.6,28-62.6,67.1-62.6c38.8,0,60.8,17.9,60.8,54.4v128.6c0,6.3,1.5,14.5,2.6,21.2H1111
			c-0.4-5.6-1.9-10.8-2.2-15.7c-15.7,12.7-28.7,19.4-48.8,19.4c-28.3,0-42.5-19.4-42.5-45.1c0-44,29.1-68.2,89.1-91V485
			c0-16.8-6.7-25.7-20.5-25.7c-19,0-23.1,11.2-23.9,28.3L1020.4,487.7L1020.4,487.7z M1106.5,527.6c-38,21.6-47.3,35.4-47.3,52.9
			c0,13,6.7,18.3,19.4,18.3c11.6,0,20.9-8.6,28-18.6L1106.5,527.6L1106.5,527.6z"/>
		<path class="st0" d="M1190.4,629.4V428.8h39.9v23.5h0.7c10.1-17.1,27.6-27.2,47.3-27.2h8.6v43.6c-7.5-1.9-14.5-4.1-26.8-4.1
			c-14.2,0-28,9-28,26.8v137.9h-41.7V629.4z"/>
		<path class="st0" d="M1310.8,463.1v-34.3h117.4v34.3l-77.9,132h77.9v34.3h-122.7v-34.3l76.4-132L1310.8,463.1L1310.8,463.1z"/>
		<path class="st0" d="M1457.3,499.7c0-44,17.1-74.6,64.9-74.6c47.7,0,64.9,30.6,64.9,74.6v58.9c0,44-17.1,74.6-64.9,74.6
			c-47.7,0-64.9-30.6-64.9-74.6V499.7L1457.3,499.7z M1545.3,492.2c0-23.1-8.2-32.8-23.1-32.8s-23.1,9.7-23.1,32.8V566
			c0,23.1,8.2,32.8,23.1,32.8s23.1-9.7,23.1-32.8V492.2z"/>
		<path class="st0" d="M1710.8,497.4v-5.2c0-23.1-8.2-32.8-23.1-32.8s-23.1,9.7-23.1,32.8V566c0,23.1,8.2,32.8,23.1,32.8
			s23.1-9.7,23.1-32.8v-12.7h41.8v5.2c0,44-17.1,74.6-64.9,74.6c-47.7,0-64.9-30.6-64.9-74.6v-58.9c0-44,17.1-74.6,64.9-74.6
			c47,0,64.1,29.5,64.9,72.3h-41.8V497.4z"/>
		<path class="st0" d="M1876.3,497.4v-5.2c0-23.1-8.2-32.8-23.1-32.8s-23.1,9.7-23.1,32.8V566c0,23.1,8.2,32.8,23.1,32.8
			s23.1-9.7,23.1-32.8v-12.7h41.8v5.2c0,44-17.2,74.6-64.9,74.6c-47.7,0-64.9-30.6-64.9-74.6v-58.9c0-44,17.1-74.6,64.9-74.6
			c47,0,64.1,29.5,64.9,72.3h-41.8V497.4z"/>
		<path class="st0" d="M1953.8,499.7c0-44,17.1-74.6,64.9-74.6c47.7,0,64.9,30.6,64.9,74.6v58.9c0,44-17.1,74.6-64.9,74.6
			c-47.7,0-64.9-30.6-64.9-74.6V499.7z M2041.8,492.2c0-23.1-8.2-32.8-23.1-32.8s-23.1,9.7-23.1,32.8V566c0,23.1,8.2,32.8,23.1,32.8
			s23.1-9.7,23.1-32.8V492.2z"/>
	</g>
	<g>
		<path class="st0" d="M892.3,797.6v-68.9H903V751c3.9-3.4,6.2-5.7,12.4-5.7c5.6,0,9,4.1,9,10.8v41.5h-10.7v-39.8
			c0-2.6-1.5-3.7-3.8-3.7s-4.4,1.4-6.9,3.2v40.3H892.3L892.3,797.6z"/>
		<path class="st0" d="M933.5,761.3c0.6-10.4,7.2-16,17.2-16c9.9,0,15.6,4.6,15.6,13.9v32.9c0,1.6,0.4,3.7,0.7,5.4h-10.2
			c-0.1-1.4-0.5-2.8-0.6-4c-4,3.2-7.4,5-12.5,5c-7.3,0-10.9-5-10.9-11.6c0-11.3,7.4-17.5,22.8-23.3v-3.1c0-4.3-1.7-6.6-5.2-6.6
			c-4.9,0-5.9,2.9-6.1,7.3L933.5,761.3L933.5,761.3z M955.5,771.5c-9.7,5.5-12.1,9.1-12.1,13.6c0,3.3,1.7,4.7,5,4.7
			c3,0,5.3-2.2,7.2-4.8L955.5,771.5L955.5,771.5z"/>
		<path class="st0" d="M977,797.6v-51.4h10.1v5.2c4.5-3.8,6.8-6.1,13-6.1c5.6,0,9,4.1,9,10.8v41.5h-10.7v-39.8
			c0-2.6-1.5-3.7-3.8-3.7s-4.4,1.4-6.9,3.2v40.3H977z"/>
		<path class="st0" d="M1041.3,797.6v-5.3h-0.2c-3.5,4.5-6.1,6.3-11.5,6.3c-6.7,0-10.9-5-10.9-14.3v-24.6c0-9.4,4.2-14.3,10.9-14.3
			c4.7,0,6.9,1.9,11.1,5.3v-22h10.7v68.9L1041.3,797.6L1041.3,797.6z M1040.8,756.7c-2.1-1.5-4-2.7-6.1-2.7c-2.9,0-5.2,1.5-5.2,8.3
			v19.1c0,6.8,2.3,8.3,5.2,8.3c2.1,0,4-1.1,6.1-2.7V756.7z"/>
		<path class="st0" d="M1083,797.6v-39.8c0-2.6-1.6-3.7-3.7-3.7c-2.3,0-4.4,1.4-6.9,3.2v40.3h-10.7v-51.4h10.1v5.2
			c4.5-3.8,6.8-6.1,11.8-6.1c5.3,0,7.1,1.9,9.4,6.1c5.2-5,8-6.1,11.9-6.1c6.7,0,10,4.1,10,10.8v41.5h-10.7v-39.8
			c0-2.6-1.7-3.7-3.8-3.7c-2.3,0-4.4,1.4-6.8,3.2v40.3H1083z"/>
		<path class="st0" d="M1124.3,761.3c0.6-10.4,7.2-16,17.2-16c9.9,0,15.6,4.6,15.6,13.9v32.9c0,1.6,0.4,3.7,0.7,5.4h-10.2
			c-0.1-1.4-0.5-2.8-0.6-4c-4,3.2-7.3,5-12.5,5c-7.3,0-10.9-5-10.9-11.6c0-11.3,7.4-17.5,22.8-23.3v-3.1c0-4.3-1.7-6.6-5.3-6.6
			c-4.9,0-5.9,2.9-6.1,7.3L1124.3,761.3L1124.3,761.3z M1146.3,771.5c-9.7,5.5-12.1,9.1-12.1,13.6c0,3.3,1.7,4.7,5,4.7
			c3,0,5.3-2.2,7.2-4.8L1146.3,771.5L1146.3,771.5z"/>
		<path class="st0" d="M1189.8,797.6v-5.3h-0.2c-3.5,4.5-6.1,6.3-11.5,6.3c-6.7,0-10.9-5-10.9-14.3v-24.6c0-9.4,4.2-14.3,10.9-14.3
			c4.7,0,6.9,1.9,11.1,5.3v-22h10.7v68.9L1189.8,797.6L1189.8,797.6z M1189.2,756.7c-2.1-1.5-4-2.7-6.1-2.7c-2.9,0-5.2,1.5-5.2,8.3
			v19.1c0,6.8,2.3,8.3,5.2,8.3c2.1,0,4-1.1,6.1-2.7V756.7z"/>
		<path class="st0" d="M1242.8,773.9h-22.5v7.4c0,5.9,2.1,8.4,5.9,8.4s5.9-2.5,5.9-8.4v-1.1h10.7c-0.2,10.9-4.7,18.3-16.6,18.3
			c-12.2,0-16.6-7.8-16.6-19.1v-15.1c0-11.3,4.4-19.1,16.6-19.1s16.6,7.8,16.6,19.1V773.9L1242.8,773.9z M1232.1,765.1v-2.7
			c0-5.9-2.1-8.4-5.9-8.4s-5.9,2.5-5.9,8.4v2.7H1232.1z"/>
		<path class="st0" d="M1273.8,738.4v-9.7h10.7v9.7H1273.8z M1273.8,797.6v-51.4h10.7v51.4H1273.8z"/>
		<path class="st0" d="M1294.9,797.6v-51.4h10.1v5.2c4.5-3.8,6.8-6.1,13-6.1c5.6,0,9,4.1,9,10.8v41.5h-10.7v-39.8
			c0-2.6-1.5-3.7-3.8-3.7s-4.4,1.4-6.9,3.2v40.3H1294.9z"/>
		<path class="st0" d="M1359.2,755h-6.3v-8.8h6.3v-6.4c0-8.3,4.4-12.1,11.9-12.1h5.3v8.8h-3.1c-2.6,0-3.5,1-3.5,3.4v6.3h6.1v8.8
			h-6.1v42.6h-10.7L1359.2,755L1359.2,755z M1379.8,797.6v-68.9h10.7v68.9H1379.8z"/>
		<path class="st0" d="M1400.3,764.3c0-11.3,4.4-19.1,16.6-19.1s16.6,7.8,16.6,19.1v15.1c0,11.3-4.4,19.1-16.6,19.1
			s-16.6-7.8-16.6-19.1V764.3z M1422.8,762.4c0-5.9-2.1-8.4-5.9-8.4s-5.9,2.5-5.9,8.4v18.9c0,5.9,2.1,8.4,5.9,8.4s5.9-2.5,5.9-8.4
			V762.4z"/>
		<path class="st0" d="M1443.2,797.6v-51.4h10.2v6h0.2c2.6-4.4,7.1-7,12.1-7h2.2v11.2c-1.9-0.5-3.7-1.1-6.9-1.1
			c-3.6,0-7.2,2.3-7.2,6.9v35.3L1443.2,797.6L1443.2,797.6z"/>
		<path class="st0" d="M1507.7,773.9h-22.5v7.4c0,5.9,2.1,8.4,5.9,8.4s5.9-2.5,5.9-8.4v-1.1h10.7c-0.2,10.9-4.7,18.3-16.6,18.3
			c-12.2,0-16.6-7.8-16.6-19.1v-15.1c0-11.3,4.4-19.1,16.6-19.1s16.6,7.8,16.6,19.1V773.9z M1497,765.1v-2.7c0-5.9-2.1-8.4-5.9-8.4
			s-5.9,2.5-5.9,8.4v2.7H1497z"/>
		<path class="st0" d="M1517.4,797.6v-51.4h10.1v5.2c4.5-3.8,6.8-6.1,13-6.1c5.6,0,9,4.1,9,10.8v41.5h-10.7v-39.8
			c0-2.6-1.5-3.7-3.8-3.7s-4.4,1.4-6.9,3.2v40.3H1517.4z"/>
		<path class="st0" d="M1581.7,763.8v-1.3c0-5.9-2.1-8.4-5.9-8.4s-5.9,2.5-5.9,8.4v18.9c0,5.9,2.1,8.4,5.9,8.4s5.9-2.5,5.9-8.4v-3.2
			h10.7v1.3c0,11.3-4.4,19.1-16.6,19.1s-16.6-7.8-16.6-19.1v-15.1c0-11.3,4.4-19.1,16.6-19.1c12,0,16.4,7.5,16.6,18.5L1581.7,763.8
			L1581.7,763.8z"/>
		<path class="st0" d="M1634.8,773.9h-22.5v7.4c0,5.9,2.1,8.4,5.9,8.4s5.9-2.5,5.9-8.4v-1.1h10.7c-0.2,10.9-4.7,18.3-16.6,18.3
			c-12.2,0-16.6-7.8-16.6-19.1v-15.1c0-11.3,4.4-19.1,16.6-19.1s16.6,7.8,16.6,19.1V773.9z M1624.1,765.1v-2.7
			c0-5.9-2.1-8.4-5.9-8.4s-5.9,2.5-5.9,8.4v2.7H1624.1z"/>
	</g>
</g>
</svg>
