<?xml version="1.0" encoding="utf-8"?>
<!-- Generator: Adobe Illustrator 19.0.1, SVG Export Plug-In . SVG Version: 6.00 Build 0)  -->
<svg version="1.1" id="logos" xmlns="http://www.w3.org/2000/svg" xmlns:xlink="http://www.w3.org/1999/xlink" x="0px" y="0px"
	 viewBox="463 -26.5 1717.5 665.5" style="enable-background:new 463 -26.5 1717.5 665.5;" xml:space="preserve">
<style type="text/css">
	.st0{fill:#FFFFFF;}
</style>
<g>
	<path class="st0" d="M513.5-23.5v125h32.2v-125h42.9V256h-42.9V138.4h-32.2V256h-42.9V-23.5H513.5z"/>
	<path class="st0" d="M617.8,124.7c0-31.6,10.8-86,51-86c38.2,0,47.2,41.8,47.2,60c0,24.9-10.1,46-29.1,60.4
		c-9.5,7-20.8,9.5-28.6,11.6c0.8,35.8,21.5,52.7,37.7,52.7c2.7,0,6.7-0.4,15.8-4.2V255c-8.7,3.2-17.7,3.2-19.7,3.2
		c-11,0-25.6-2.1-41.4-16.5c-19.3-17.9-32.9-47.1-32.9-92.3V124.7L617.8,124.7z M668.1,72c-4.2,0-14.7,13.3-14.7,35.1l0.8,29.3
		c17.8-3.4,29.3-22.2,29.3-37.3C683.6,84.9,677.6,72,668.1,72z"/>
	<path class="st0" d="M1017.1,124.7c0-31.6,10.8-86,51-86c38.2,0,47.2,41.8,47.2,60c0,24.9-10.1,46-29,60.4
		c-9.5,7-20.8,9.5-28.6,11.6c0.8,35.8,21.5,52.7,37.7,52.7c2.8,0,6.7-0.4,15.8-4.2V255c-8.7,3.2-17.7,3.2-19.7,3.2
		c-11,0-25.6-2.1-41.4-16.5c-19.3-17.9-32.9-47.1-32.9-92.3L1017.1,124.7L1017.1,124.7z M1067.4,72c-4.2,0-14.7,13.3-14.7,35.1
		l0.8,29.3c17.8-3.4,29.3-22.2,29.3-37.3C1082.8,84.9,1076.9,72,1067.4,72z"/>
	<path class="st0" d="M1276.9,124.7c0-31.6,10.8-86,51-86c38.2,0,47.2,41.8,47.2,60c0,24.9-10.1,46-29.1,60.4
		c-9.5,7-20.7,9.5-28.6,11.6c0.8,35.8,21.5,52.7,37.7,52.7c2.8,0,6.7-0.4,15.8-4.2V255c-8.7,3.2-17.7,3.2-19.7,3.2
		c-11,0-25.6-2.1-41.4-16.5c-19.3-17.9-32.9-47.1-32.9-92.3V124.7z M1327.2,72c-4.2,0-14.7,13.3-14.7,35.1l0.8,29.3
		c17.8-3.4,29.3-22.2,29.3-37.3C1342.6,84.9,1336.7,72,1327.2,72z"/>
	<path class="st0" d="M1760.8,495.9c0-31.6,10.8-86,51-86c38.2,0,47.2,41.8,47.2,60c0,24.9-10.1,46-29.1,60.4
		c-9.5,7-20.7,9.5-28.6,11.6c0.8,35.8,21.5,52.7,37.7,52.7c2.8,0,6.7-0.4,15.8-4.2v35.8c-8.7,3.2-17.7,3.2-19.7,3.2
		c-11,0-25.6-2.1-41.4-16.5c-19.3-17.9-32.9-47-32.9-92.3V495.9z M1811.1,443.2c-4.2,0-14.7,13.3-14.7,35.1l0.8,29.3
		c17.8-3.4,29.3-22.2,29.3-37.3C1826.5,456.1,1820.6,443.2,1811.1,443.2z"/>
	<path class="st0" d="M848.5,256h-36.7V80.1c0-6-8.2-8.8-13.9-8.8c-6.5,0-13.5,3.5-13.5,7.1V256h-36.7V79.4c0-3.2,0-12.3-7.5-17.2
		l25.5-23.5c9.1,2.5,13.8,7.7,18.5,15.1c7.5-8.4,19.4-15.1,32.4-15.1c17.3,0,31.8,13,31.8,37.6V256H848.5z"/>
	<path class="st0" d="M985.5,256h-36.7V80.1c0-6-8.2-8.8-13.9-8.8c-6.5,0-13.5,3.5-13.5,7.1V256h-36.7V79.4c0-3.2,0-12.3-7.5-17.2
		l25.5-23.5c9.1,2.5,13.8,7.7,18.5,15.1c7.5-8.4,19.4-15.1,32.4-15.1c17.3,0,31.8,13,31.8,37.6V256H985.5z"/>
	<path class="st0" d="M1183.3-23.5V45c5.5-5.6,24.3-6.3,27.5-6.3c34.7,0,37,54.4,37,69.5v42.5c0,36.5-7.5,61.4-13,70.6
		c-14.2,23.9-44.8,34.8-69.7,34.8h-18.5V-23.5H1183.3z M1211.2,112.9c0-15.8-10.5-38.6-22.7-38.6c-2.4,0-3.6,0.7-5.1,1.4v144
		c7.5-2.1,27.9-6.7,27.9-36.5v-70.3H1211.2z"/>
	<path class="st0" d="M1479,79.4c-24,5.3-33.9,28.1-33.9,35.5V256h-36.7V79.4c0-9.8-3.9-13.7-8.3-16.9l22.1-23.9
		c15,4.9,20.5,9.1,22.9,30.9c13-26,14.6-30.9,33.9-30.9V79.4z"/>
	<path class="st0" d="M1541.9,40.7l17.8,146.8l16.2-146.8h36.3L1578.3,245c-7.1,53.7-44.9,52.3-62.7,52v-31.3
		c16.9,0.4,20.1,0,26.8-17.9l-36.7-207.2L1541.9,40.7L1541.9,40.7z"/>
	<path class="st0" d="M2103,40.7l17.8,146.8L2137,40.7h36.3L2139.4,245c-7.1,53.7-44.9,52.3-62.7,52v-31.3
		c16.9,0.4,20.1,0,26.8-17.9l-36.7-207.2L2103,40.7L2103,40.7z"/>
	<path class="st0" d="M1766.6-23.5v36.9h-33v88.1h33v36.9h-33v80.8h33v36.9h-72.1V-23.5H1766.6z"/>
	<path class="st0" d="M1896.8-23.5V204c0,18.6,5.9,23.5,8.7,26.3l-21.3,27.7c-8.7-2.5-16.2-6.8-19.7-16c-9.4,13.3-21,16-30.1,16
		c-33.9,0-39.2-66.2-39.2-84.8v-44.3c0-29.7,21.1-88.2,64.9-90.3v-62.1H1896.8z M1860.1,78c-13.7,0-28.3,13.4-28.3,49.2v44.6
		c0,11.9,0,41.8,5.9,50.6c1.2,2.1,8.4,3.9,10.8,3.9c2,0,11.6-2.3,11.6-5.8V78z"/>
	<path class="st0" d="M2035.1-23.5V204c0,18.6,5.9,23.5,8.7,26.3l-21.3,27.7c-8.7-2.5-16.2-6.8-19.7-16c-9.5,13.3-21,16-30.1,16
		c-33.9,0-39.2-66.2-39.2-84.8v-44.3c0-29.7,21.1-88.2,64.9-90.3v-62.1H2035.1z M1998.5,78c-13.7,0-28.3,13.4-28.3,49.2v44.6
		c0,11.9,0,41.8,5.9,50.6c1.2,2.1,8.4,3.9,10.8,3.9c2,0,11.6-2.3,11.6-5.8V78z"/>
	<path class="st0" d="M1188.1,345.6l40.6,281.6h-42.6l-2.4-49.9H1145l-3.9,49.9H1099l43-281.6H1188.1z M1166,391.9h-3.6
		c-1.2,40.7-15,148.5-15,148.5h33.6L1166,391.9z"/>
	<path class="st0" d="M1330.6,450.6c-24,5.3-33.9,28.1-33.9,35.5v141.1H1260V450.6c0-9.8-3.9-13.7-8.3-16.9l22.1-23.9
		c15,4.9,20.5,9.1,22.9,30.9c13-26,14.6-30.9,33.9-30.9V450.6z"/>
	<path class="st0" d="M1352.3,501.1c0-27.7,4.7-91.3,52-91.3c5.9,0,9.8,0.7,16.2,2.1v33.4c-0.4-0.4-3.2-1.8-3.5-1.8
		c-1.2-0.7-3.1-1-5.9-1c-17.7,0-22.1,24.9-22.1,58.6v28.8c0,44.9,3.9,66.7,18.9,66.7c4.7,0,9.1-2.1,12.6-4.2v31.2
		c-2.4,1.8-11.8,5.6-19.3,5.6c-47.7,0-48.9-73.7-48.9-96.9V501.1z"/>
	<path class="st0" d="M1490.7,347.7v74.8c5.1-6.7,21.3-12.6,32-12.6c24.8,0,33,22.8,33,40.4v177H1519V452.7c0-5.6-8-10.2-13.5-10.2
		c-4.3,0-14.7,3-14.7,8.5v176.2H1454V347.7H1490.7z"/>
	<path class="st0" d="M1633.6,366.1c0,11.4-9.5,20.9-21.7,20.9c-11.4,0-21.3-9.1-21.3-20.5c0-14,13-20.9,21.3-20.9
		C1624.1,345.6,1633.6,354.7,1633.6,366.1z M1627.4,411.9v215.2h-36.7V411.9H1627.4z"/>
	<path class="st0" d="M1714.1,377.5v35.1h17.3V440h-17.3v147.5c0,5.3,3.2,10.9,9.5,10.9c2.8,0,5.9-1.4,7.9-2.5v27.7
		c-4.7,2.8-10.2,5.6-19.3,5.6c-20.1,0-34.7-12.3-34.7-36.9V440h-18.9v-9.5c13.4-11.9,23.2-23.9,44.9-53H1714.1z"/>
	<path class="st0" d="M1891.2,501.1c0-27.7,4.7-91.3,52-91.3c5.9,0,9.8,0.7,16.2,2.1v33.4c-0.4-0.4-3.1-1.8-3.5-1.8
		c-1.2-0.7-3.2-1-5.9-1c-17.7,0-22.1,24.9-22.1,58.6v28.8c0,44.9,3.9,66.7,18.9,66.7c4.7,0,9.1-2.1,12.6-4.2v31.2
		c-2.4,1.8-11.8,5.6-19.3,5.6c-47.7,0-48.9-73.7-48.9-96.9L1891.2,501.1L1891.2,501.1z"/>
	<path class="st0" d="M2045.7,377.5v35.1h17.3V440h-17.3v147.5c0,5.3,3.2,10.9,9.5,10.9c2.8,0,5.9-1.4,7.9-2.5v27.7
		c-4.7,2.8-10.2,5.6-19.3,5.6c-20.1,0-34.7-12.3-34.7-36.9V440h-18.9v-9.5c13.4-11.9,23.2-23.9,44.9-53H2045.7z"/>
	<path class="st0" d="M2157.9,446.7c-2.8-2.1-7.5-5.6-13.4-5.6c-6.7,0-14.6,4.6-14.6,16.2c0,13.7,8.3,37.2,13.8,51.6
		c9.1,23.2,16.2,48.1,17.4,61.1c0.8,5.6,0.8,9.1,0.8,10.9c0,19-5.5,48.5-42.2,48.5c-12.2,0-18.5-3.2-24-5.6v-32.3
		c5.5,5.3,10.6,6.7,15.4,6.7c8.3,0,16.9-4.9,16.9-17.6c0-13.7-8.7-38.3-14.6-53.4c-14.2-36.9-17.3-54.8-17.3-69.2
		c0-16.9,4.3-48.1,37.8-48.1c9.5,0,15.4,2.5,24,7L2157.9,446.7L2157.9,446.7z"/>
</g>
</svg>
