<?xml version="1.0" encoding="utf-8"?>
<!-- Generator: Adobe Illustrator 19.0.1, SVG Export Plug-In . SVG Version: 6.00 Build 0)  -->
<svg version="1.1" id="Layer_1" xmlns="http://www.w3.org/2000/svg" xmlns:xlink="http://www.w3.org/1999/xlink" x="0px" y="0px"
	 viewBox="217 175 1225 264" style="enable-background:new 217 175 1225 264;" xml:space="preserve">
<style type="text/css">
	.st0{fill:#FFFFFF;}
</style>
<path class="st0" d="M1372.4,403.2c-0.8,0.5-1.9,1.5-2.5,1.7c-1.8,0.6-3.3-0.3-5.2,0.2c-0.7,0.2-2.5,1.9-3,2
	c-0.8,0.1-1.7-0.5-2.5-0.5c-0.6,0-1.8,0.9-1.5,1c-1.1-0.2-1.6-2-3.5-2c0.2,0-0.9,1-1.5,1c-0.8,0-1.7-0.6-2.5-0.5
	c-1.9,0.2-13.4-0.3-17.7-2.3c-2.6-1.2-1.8-1.8-3.2-3.2c-0.6-0.7-2.9-1.2-3.5-2c-2.2-3-1.5-7.5-5.7-10.2c0-1.1,0.7-1.1,1.5-1
	c-1.1-3,3.3-2.8,4.7-4.2c1.1-1,0.8-2.7,2-3.5c2.3-1.5,4.7-1.7,7-2.5c0.8-1.3,0.1-3.8,1-5c0.4-0.5,2.4-0.3,2.7-0.8
	c0.3-0.4,0.1-2.3,0.5-2.5c0.2-0.1,1.2,0.4,1.2,0.3c0.3-0.4,0.1-2.3,0.5-2.5c1.2-0.6,3.9-0.7,4.5-3c0.4-1.5,2.1-3.8,3.7-5.7
	c0.6-0.7,2.5-1.3,3-2c0.4-0.4,0.1-2.3,0.5-2.5c0.2-0.1,1.1,0.4,1.2,0.3c0.3-0.4,0.1-2.3,0.5-2.5c0.2-0.1,1.1,0.4,1.2,0.2
	c0.3-0.4,0.1-2.3,0.5-2.5c1.2-0.6,3.9-0.7,4.5-3c0.8-3.2,2.8-1.7,3.5-4.5c0,0,1.8-4.2,2.3-4.7c0.4-0.4,2.5-0.4,2.7-0.7
	c1-1.5,1.5-4.5,2.5-6c0.3-0.5,1.2,0.3,1.5-1c-0.3,1,2.3-5.9,2.5-6c0.2-0.1,1.1,0.4,1.2,0.2c0.3-0.4,0.1-2.3,0.5-2.5
	c1.2-0.6,1.1-0.8,1.8-2.2c0.6-1.4,2.3-2,3.2-3.2c0.3-0.4,0.1-2.3,0.5-2.5c1.4-0.7,2.1-0.5,3-2c2.1-3.4,4.4-7.6,5-12
	c3-0.9,4-4.8,6.5-6.5c0.9-4.1,3.4-5.8,3.5-11c1.5,0.2,2.9,0.4,3.9,0.9c0.9-2.7,1.9-5.3,3-8c-0.1-0.2-0.1-0.4-0.2-0.7
	c0.3-5.6,3.2-10.4,4.5-15.9c1.2-4.8-0.1-6.2,0.5-9c-0.1,0.3,1.3-0.5,1.5-1c1.3-2.7,1-5.3,1.5-7.5c0.3-1.1,1.4-0.8,1.5-1
	c0.4-1.1-1-1.4-1-1.5c0.6-4.8,0.1-6.2,0.5-9c0.2-1.2-1-1-1-1.5c-0.4-3,0.7-6.5,0.3-7.7c-0.4-1.1-2.6-2.3-3.2-3.3
	c-0.8-1.2-0.8-3.2-1.8-4.3c-0.4-0.5-1.9-0.1-2.5-0.5c-0.4-0.3-0.3-2.3-0.7-2.7c-0.5-0.4-3.3-2-3.5-2c-1.2-0.3-0.6-1.2-1-1.5
	c-3-1.8-7.4-1.8-11-3.5c-1.5-0.7-1,1.8-1.7,2.2c-1.1,0.7-2.9-0.3-4,0.5c-1.2,0.9-1,2.2-2,3.5c-0.5,0.6-2.4,1.2-3,2
	c-0.7,0.8-0.2,2.8-0.7,3.7c-0.3,0.5-2.7,1.4-3,2c-1.5,2.6-1.6,5.9-3,8.5c-0.1,0.1-1.1-0.3-1.3-0.2c-0.1,0.1-2,3.5-2,3.5
	c-0.4,0.7-0.1,1.8-0.5,2.5c-2.3,4.3-4.8,9.4-6.5,12.9c-0.4,0.8-1.4,0.8-1.5,1c-1,1.9-1.3,5.3-3.5,6.6c-1.5,3.6-3.3,7.1-5.2,10.6
	c0,0.1-0.2,0.2-0.2,0.4c0,0,0.1,0,0.2,0.1c-2,2.2-1.6,5.6-3,8.5c-1.4,2.8-3,2.9-3.8,5.7c-0.3,1.2-1.3,0.6-1.5,1
	c-1.6,3-1.7,6.6-3.3,9.7c-0.2,0.4-2.6,1.4-3,2c-0.5,0.9-0.5,2.7-0.8,3.7s-1.4,0.8-1.5,1c-0.8,1.9-0.7,4.3-1.3,6.2
	c-1.2,4-2.2,5.3-3,8.5c-0.3,1.2-1.3,0.6-1.5,1c-2.8,5.4-5.1,10.6-7,15.4c-0.8,1.9-0.5,4.2-1.3,6.2c-0.8,2.1-4.1,4.9-4,7
	c0,0.5,1,1.8,1,1.5c-0.4,5.2-3.9,5.9-4.5,9.5c-0.3,1.8,1.2,2.5,0.2,5.2c0,0.1-1.1-0.3-1.2-0.3c-0.4,0.2-0.6,3.3-0.8,3.7
	c-0.2,1-1.5,0.9-1.5,1c-1.4,3.5-0.6,5.5-1.8,8.7c-3,2.1-6.6,6-8,7.5c-0.8,0.8-1.1,1.5-1.8,2.2c-1.7,1.8-5.8,3.6-6.3,5.2
	c-0.7,2.7-4.6,2.7-6,4c-0.5,0.4-0.1,1.9-0.5,2.5c-0.3,0.4-2.3,0.4-2.7,0.7c-2.4,2.3-2.6,4.5-4.8,4.2c-2.3-0.3-7.4,4-8.7,4.7
	c-2.7,1.4-5.4,2.8-7.3,3.7c-1.2,0.6-1.8,1.4-3,2c-1.3,0.6-2.9-0.1-4,0.5c-1.2,0.6-1.4,1.6-3,2c-1.7,0.4-4.1,0.1-5.2,0.2
	c-1.6,0.2-2,0.8-4,0.5c-1.1-0.2-1.2,1-1.5,1c-4.3,0.2-4.7-1.5-6.5,0c-0.8,0.6-5.5-1.5-4.8-2.3c0.7-1.2,2-1.3,3-2
	c1.3-0.9,2-2,3.3-3.2c2-1.9,3.9-3,4.7-4.2c0.6-0.9,0.5-2.5,1.7-2.2c0.2-2.5,3-0.9,4.3-1.7c0.5-0.3,0.2-2,0.5-2.5
	c0.2-0.3,2.3-0.4,2.7-0.7c0.5-0.4,0.1-1.9,0.5-2.5c0.3-0.4,2.4-0.3,2.8-0.7c0.5-0.5,0.1-1.9,0.5-2.5c0.3-0.4,2.4-0.3,2.8-0.7
	c1.6-1.8,1.3-5,2.8-7.2c0.2-0.3,2.4-0.4,2.7-0.7c0.8-0.7,1.5-2.8,2-3.5c2.9-3.8,6.7-7.6,8.8-11.2c1.9-3.3,4-10,5.3-13.2
	c0.6-1.5,1.8-1.4,2-3.5c0-0.2-2-2.6-2-3c-0.2-1.6,1-3.4,1-5c-3.6-0.6-3.8-3.3-5.7-3.8c-1-0.2-0.8-1.4-1-1.5c-3.7-1.5-4.9,0.1-6.5,0
	c-2.8-0.2-6.7-1.8-8.7-1.8c-0.2,0-0.6,1-1.5,1c-1.7,0.1-2.8,0.4-4,0.5c-0.8,0-1.7-0.6-2.5-0.5c-0.6,0.1-2.3,1.8-3,2
	c-2.8,0.8-5-0.5-5.5,1.5c-0.7,2.6-5.3,3.4-6,4c-0.5,0.4,0,2.2-0.5,2.5c-0.4,0.3-2.1-0.8-2.5-0.5c-1.2,1.2-1.5,3.2-2.3,4.7
	c-0.9,2-5.1,6.5-5.5,8c-0.3,1.2-1.3,0.6-1.5,1c-2.2,3.8-2,6-4.3,8.2c-2,2-1.8,4-2.8,7.2c-1.7,5.5-4.7,12.5-5,18.4
	c-1,0.1-1.7,0.8-1.8,2.2c-4.5,3-8.9,6.1-13.5,8.9c-3.3,2-6.9,4.3-9,5.9c-0.4,0.3-2-0.8-2.5-0.5c-1.2,0.8-1.6,3-3.2,3.2
	c-4.8,2-10.7,2.4-15.2,4.7c-3.5,0.7-5.2-5-7.5-1.5c-3.5,0.9-4.3,2-7.7-0.3c-3.1-4.4,0.1-8.2,1.3-12.7c1.2-4.7,2.4-10.6,4.3-14.7
	c0.7-1.5,1.8-1.3,3-2c1-0.5,2.4-5.5,2.5-6c0.3-1.2,1.3-0.6,1.5-1c1.1-1.9,1.4-3.7,2.5-6c1.4-2.7,1.7-5.4,2.8-7.2
	c0.5-0.8,2.6-0.4,3-2c0.3-1.3,1.2-0.5,1.5-1c1.4-2.1,1.5-4.6,2.5-6c0.1-0.1,1.1,0.4,1.3,0.3c0.4-0.2,0.2-2.1,0.5-2.5
	c0.1-0.1,1.1,0.3,1.3,0.2c0.4-0.2,0.2-2.1,0.5-2.5c0.1-0.1,1,0.4,1.2,0.3c1.2-0.6,1.2-3.8,2.3-4.7c-5.6-1.8-11.1-1.2-15.2-1.8
	c-1.2-0.2-1,0.9-1.5,1c-6.4,0.7-11.1-0.1-16.9,0.4c-1.7,0.1-3,0-5.2,0.2c-1.6,0.2-4,1.6-5.5,1.5c-1.2-0.1-1.4-1.4-2.3-1.8
	c-5.8-2.5-16.1-2.6-17.9-1c-0.3,0.3-3.2-0.7-3.7-0.8c-1.1-0.2-1.2,1-1.5,1c-5,0.3-9.1-0.2-14.2-0.3c-10,8.8-17.2,22.3-24.1,35.3
	c-0.5,1-0.5,2.6-0.8,3.7c-0.3,1.1-1.3,0.7-1.5,1c-1,2.1-1.4,4-2.5,6c-0.1,0.2-1.1,0.3-1.5,1c-1.4,2.1-2.9,6.4-4.3,8.2
	c-0.1,0.1-1.2,0.6-1.5,1c-2.3,2.3-2.5,3-4.7,4.2c-0.5,0.2-1.7,3.1-2,3.5c-2.2,2.3-4.4,4.4-5.2,6.7c-7.7,0.9-10.7,8.8-19.7,7.7
	c-6.4-3.7-1.5-11.6-0.9-14.5c0.3-2.1-1.6-2.5,0.7-3.7c1.2-0.6,1.2-6.7,1.5-7.5c1.4-3.6,4.1-6.6,6-10.5c0.7-1.4,0.6-3.5,1-5
	c0.3-1.1,1.3-0.7,1.5-1c1.2-2.6,1.7-5,2.8-7.2c4-8.1,9.7-15.2,12.3-22.2c-8-2.9-18.9-3.1-28.9-4.6c-4.5-0.6-8.3-2.2-12.5-2.5
	c-2.7-0.2-5.2,1-7.9,1c-3.7,0-6.9-1.2-10.2-0.8c-2.1,3.2-5.7,6.4-8.5,9.9c-1.6,2-2.4,4.1-3.8,5.7c-1.1,1.4-0.8,2.6-2,3.5
	c-0.6,0.5-3.8-0.7-1.5,1c-1.8,3.8-5.5,9.3-7.3,10.2c-0.4,0.2-0.2,2.1-0.5,2.5c-0.1,0.1-1.1-0.3-1.3-0.2c-0.4,0.2-0.2,2.1-0.5,2.5
	c-1.1,1.4-2.1,2.1-3.2,3.2c-1.4,1.4-0.9,2.9-2.3,4.7c-0.4,0.4-2.4,0.2-2.8,0.7c-1.3,1.9-1.3,4.3-2.5,6c-0.1,0.2-1.1-0.4-1.3-0.3
	c-0.4,0.2-0.2,2.1-0.5,2.5c-0.1,0.1-1.1-0.3-1.2-0.3c-0.4,0.2-0.2,2.1-0.5,2.5c-0.3,0.4-2.3,0.2-2.7,0.7c-0.9,1.2-0.2,3.7-1,5
	c-2.5,1-5.5,2.2-6,4s-2.8,1.6-3.3,3.2c-0.4,1.3-1.1,0.4-1.5,1c-0.7,0.9-0.1,2.8-0.8,3.7c-0.3,0.4-2.3,0.3-2.8,0.7
	c-0.5,0.5-0.1,1.9-0.5,2.5c-0.3,0.4-2.4,0.3-2.8,0.7c-1.3,1.3-1.8,3.5-3.5,4.5c-0.4,0.2-2.5,0.8-2.8,0.7c-2.4-0.4-4.5,2.8-6.5,0
	c-3.7-0.5-4.2-5.9-4.7-8.7c-0.6-3.6-0.4-8.3-0.2-11.7c0.6-9,4.7-21,6.8-27.1c0.7-2.2,0.8-5.4,1.5-7.5c0.6-1.6,1.5-1.5,2-3.5
	c0.3-1,1.4-0.8,1.5-1c1.1-2.5,0.7-6.2,1.8-8.7c1.6-3.7,5.8-6.3,4.8-10.7c2.9-1-3.1-5.1-2.2-8.2c-7.5-3.1-9.2,2.3-16.7-0.8
	c-0.9,1.3-1.9,2.6-3.3,3.2c-2-1.1-4.9-1.8-7.5-1.5c-0.4,0-2.4,1.8-3,2c-1.8,0.5-3.6-0.5-5.2,0.2c-1,0.5-3.3,2.1-4.5,3
	c-1.2,0.9-1.7,1.3-3,2c-0.5,0.3-0.1,2.1-0.5,2.5c-1.4,1.3-3.4,1.8-4.5,3c-0.2,0.2-0.2,1-0.3,1.2c-0.4,1.7-2.7,3.6-3.5,4.5
	c-0.8,0.8-2.6,0.4-3,2c-0.5,1.9-3.9,5.3-5.3,6.7c-0.4,0.5-2.3,0.1-2.7,0.7c-0.7,0.9,0,2.9-0.8,3.7c-1.2,1.4-5.6,1.3-4.8,4.2
	c-3.9,0.3-0.1,4.2-1.3,6.2c-5.1-0.1-6.3,3.9-8,7.5c-0.5,1.1-1.1,0.5-1.5,1c-1.5,1.9-3.7,5.6-4,7c-0.8,3.2-3.8,0.6-4.5,3l-1,5
	c-1.6-0.2-2,1.2-3,2c-0.4,0.4-2-0.8-2.5-0.5c-1.7,1.1-2,3.4-3.5,4.5c-2.2,1.6-6.2,2.6-7.2,3.7c-1,1-0.2,3.9-2,3.5
	c-0.6,2.3-2.8,1.6-4.5,3c-1.5,1.2-1.8,2.9-3.5,4.5c-0.2,0.2-1-0.4-1.2-0.3c-0.4,0.2-0.2,2.1-0.5,2.5c-0.1,0.1-1.1-0.4-1.3-0.3
	c-0.5,0.3-0.1,2.1-0.5,2.5c-1.6,1.5-6.3,0.2-4.7,4.2c-5.9,0.3-12,0.4-14.2,6.2c7.9,1.5,16.7-4,21-7.4c0.4-0.3,2,0.7,2.5,0.5
	c1.4-0.6,2.8-2.3,4.5-3c0.5-0.2,2.4-0.8,2.7-0.7c2.3,0.3,3.5-2.1,4.5-3c0.4-0.4,2,0.8,2.5,0.5c3.4-2.1,5.7-5.6,8-7.4
	c1.2-1,1.8-2.6,4.3-1.7c2.2,3.3-2.3,4.8-2,10c2.3,2.1,3.9,4.6,5,7.5c3.4,1.8,5.6-0.4,6.5,0c0.5,0.2-0.5,1.5,1,1.5
	c2.2,0,4.1-3.3,9.2-0.7c4.3-4.1,9.4-6.7,13.5-8.9c2.4-1.3,5.6-2.6,6-4c0.4-1.4,0.9-0.4,1.5-1c1.7-1.8,2.4-3.3,3.5-4.5
	c0.8-0.9,2.5-1.3,3-2c1-1.4,1.5-4.2,2.5-6c1.4-2.4,3.3-4.5,5-5.5c0.4-0.2,0.2-2.1,0.5-2.5c0.1-0.2,1.1,0.3,1.2,0.2
	c0.5-0.2,0.1-2.1,0.5-2.5c0.4-0.4,2.2-0.3,2.8-0.7c1-0.7,0.5-3.4,3-2c1.8,2.5-1.9,3.9-1.8,8.7c2.3,3.1,1.6,6.7,2.2,8.2
	c1,2.5-0.6,3.9,0,6.5c0.1,0.5,2,1.2,2.2,1.8c0.2,0.6-0.5,1.8-0.5,2.5c0.2,3.3,4.1,5.4,3.5,8.5c7.9,1.2,12.1,1.9,16.2,3.3
	c4.3,1.5,7.2,0.5,9,0.5c6.7,0.1,13.3,2.9,17.7,2.3c0.5-0.1,2.4-1.7,3-2c1.2-0.4,2.8,0.1,4-0.5c1.2-0.6,2.1-2.5,3.2-3.2
	c1.3-0.8,2.9-1,4.2-1.7c1.5-4.7,8.2-9.2,9-12.4c0.4-1.4,0.9-0.4,1.5-1c2.4-2.4,5.4-8.1,6-10.5c0.3-1.3,1.1-0.5,1.5-1
	c1.6-2.3,2.6-4,3.5-4.5c0.7-0.4,0.1-3.2,0.8-3.7c0.3-0.2,2.3,0.8,2.5,0.5c1-1.4,1.6-4.2,2.5-6c1-2,1.3-2.8,2.3-4.7
	c0.4-0.8,1.4-0.8,1.5-1c4.9-9,8.2-17.2,12.8-24.6c2.4-3.8,3.5-8.9,8.5-10c2.9-1.9,4.7,2.3,8.5,3c2-1.4,9.2-0.6,8.5,3
	c-3.6,7.1-7.5,13.9-10.8,21.2c-1.2,2.7-3.1,5.3-3.8,5.7c-1.4,0.8-1.9,9.8-2,10c-0.3,0.4-2.5,0.1-2.8,0.7c-0.5,1.1,0.9,1.8,0.7,2.7
	c-0.2,1.4-1.4,1.8-2,3.5c-1.2,3.7-0.6,8.8-3.8,12.2c1.8,2.7,2,5.9,3.5,8.5c1.1,2,3.2,2.8,3,4.5c-0.2,1.4,5,3.8,5.7,3.8
	c0.4,0,1.9-0.9,1.5-1c2.3,0.3,2.5,2.3,4.7,2.3c1.7,0,1.9-1.1,3-2c0.4-0.3,2,0.6,2.5,0.5c0.1,0,0.1-1.2,0.2-1.2
	c0.9-0.7,5,1.5,6.2,1.3c1-0.2,1.4-2.2,3-2c1.3,0.2,0.9-0.9,1.5-1c2.9-0.6,5.2,0.8,7.7,0.3c3-0.6,6.4-1.6,8.2-2.2
	c1.1-0.4,3.2-1.9,4.2-1.7c2.3,0.3,3.7-1.8,5.5-1.5c1.4,0.2,0.8-0.7,1.5-1c1-0.3,3.1,0,4-0.5c0.5-0.3,0.2-2,0.5-2.5
	c0.3-0.3,2.3-0.4,2.7-0.7c0.4-0.3,1.7-1.9,1.7-2.2c0.5-1.8,2.8-1.6,3.3-3.2c0.4-1.4,0.9-0.4,1.5-1c1.8-1.8,4.3-5.9,5.5-7.9
	c1.4-2.4,3-4.9,3.8-5.7c2.3-2.4,4.4-6.8,5.5-8c2.1-2.1,2.7-4.9,4-7c1.7-2.7,4-5.3,5.5-7.9c1.8-3.2,3.1-6.5,4.5-9.5
	c3-6.2,4.4-9.5,7.5-11.5c4-2.5,8.1-1.1,13.2-1.2c2.7-0.1,6-0.9,8-1c3-0.1,6,0.5,9,0.5c3.5,0,3.7-1.6,5.5-1.5
	c1.2,0.1,1.2,1.4,2.2,1.8c-2.6,1.8-4.5,5.8-7.3,10.2c-0.9,1.4-2.4,2.6-3.5,4.5c-0.6,1-0.3,2.6-0.8,3.7c-0.7,1.4-2.5,1.1-3,2
	c-0.9,1.5-1.4,3.7-2.5,6c-1,2.1-1.8,5.2-2.8,7.2c0,0.1-1.1-0.3-1.2-0.3c-0.9,0.4-0.9,5.2-1.3,6.2c-1.2,2.6-3.3,3.8-3.8,5.7
	c-0.3,1.4,0.6,2.2,0.5,4c-0.3,4.2-1.3,4.9,0,6.5c0.3,0.4-0.6,2-0.5,2.5c0.8,5.2,2.9,5.9,5.9,9c0.7,0.7,1.2,2.3,2,3
	c1,1,1.8,1.5,3.5,2c6-0.8,12.6-0.5,18.5-1.4c1.2,2.8,7.5,2.2,9.5,4.5c3.9-2.4,6.8-1.5,10.7-1.7c1-0.1,1.2-0.9,1.5-1
	c4.4-0.7,9.3-1.7,14.5-0.9c1.8-2.1,3.8-4.1,6.3-5.2c1.1-0.5,3.1-0.2,4-0.5c0.4-0.1,0.8-0.7,1.5-1c1-0.4,1.9-0.2,2.7-0.7
	c1.8,2.1,3.5,4.1,8.2,4.3c4,0.1,8.3,0.6,11.7-0.2c3.2,3.9,4.8,2.1,11,3.5c1.6,0.4,2-1.5,3-2c1.3-0.6,2.6,0.1,4-0.5
	c2.3-1,3.5-3,5.8-2.7c1.4,0.2,0.7-0.6,1.5-1c2.3-1,4.6-1.3,7-2.5c1-0.5,1.8-1.4,3-2c11.1-5.2,21.6-9.5,31.7-15.6
	c4.6,2.6,6.3,12.8,10.2,13.7c1.7,0.5,4.2,3.1,5.7,3.8c10.7,5.2,25.4,4.9,34.1,4.4c2.5-0.1,5.1,0.3,6.5,0c0.9-0.2,3.4-2.6,4.5-3
	c0.2-0.1,1,0.2,1.3,0.2c1.5,0.2,0.7-0.7,1.5-1c5-2,10.9-2.3,14-4.9c0.3-2.1,2.5-0.1,4-0.5c0.3-0.1,1.5-2,1.8-2.2
	c0.4-0.4,2,0.7,2.5,0.5c0.8-0.4,3.1-2,4.5-3c0.8-0.5,1.6-1,2.3-1.5C1393.4,402.5,1382.8,403.3,1372.4,403.2z M919.8,360
	c-1,2-1.5,4.2-2.5,6c-0.2,0.4-1.2-0.2-1.5,1c-0.1,0.3-0.1,1-0.3,1.3c-0.4,0.7-1.4,0.8-1.5,1c-3.5,5.7-7.3,11.7-11.3,17.2
	c-0.1,0.1-2,4.6-2.3,4.7c-1.4,0.8-1.8,0.8-3,2c-0.4,0.4-1.5,3.2-2,3.5c-0.2,0.1-1.1-0.4-1.2-0.3c-0.3,0.4-0.1,2.3-0.5,2.5
	c-1.6,0.8-1,1.6-2,3.5c0,0-1.8,3.4-2,3.5c-3.1,1.6-5.9,5.3-9.5,8.5c-0.7,0.6-1.1-0.4-1.5,1c-0.7,2.5-2.9,0.6-4.3,1.7
	c-1.5,1.3-4.4,5.3-8.5,3.5c2.1-4.4,4.2-7.7,6.3-11.7c0.5-1,0.1-2.8,0.8-3.7c0.3-0.4,2.6-0.5,2.7-0.8c1.2-2.4,0.5-4.8,1.5-7.5
	c2.1-1.7,4.4-3.1,6.3-5.2c0.4-0.4,0.1-2.3,0.5-2.5c2-1,2-0.7,3.3-3.2c0.6-1.3,0.9-0.3,1.5-1c1.2-1.4,1-3.4,2.2-4.7
	c0.8-0.8,2.1-1,3-2c1.1-1.1,2-2.2,3.3-3.2c0.7-0.7,2.5-1.4,3-2c1.3-1.4,1.1-3.2,2.3-4.7c0.8-1.1,2.3-1.2,3-2
	c0.4-0.4,0.1-2.2,0.5-2.5c0.4-0.2,2.5-0.4,2.8-0.7c1.1-1.2,0.9-2.5,2-3.5c1.9-1.6,5.3-2.2,7.3-3.7c2-1.6,2.9-4.1,5-5.5
	C925.4,353.9,921.3,357.1,919.8,360z M1238.1,370.3c-1,0.9-3.2,0.9-4.3,1.7c-1.7,1.4-2.2,5.7-7.2,3.7c0.7-6.2,2.1-9.4,5.5-14.4
	c0.3-0.4,1,0,1.5-1c1.1-2.4,2.6-3.3,3.8-5.7c1.6-3.3,1.9-4.8,4.3-8.2c0.4-0.5,1.2,0.3,1.5-1c0.4-1.5,6.1-4.7,9-5.9
	c0.5-0.2,1.3-2.2,1.7-2.2c2.1-0.5,4.4-0.5,7.7,0.3c-3.6,7.5-8.8,12.7-12,20.9c-3.2,0.1-4.3,3.2-6.3,5.2c-0.4,0.4-2.5,0.4-2.7,0.8
	C1239.9,365.2,1239.9,368.7,1238.1,370.3z M1332,336.2c0.2-0.4,0.1-2.3,0.5-2.5c1.4-0.7,1.3-1.5,2-3.5c0.1-0.4,0.2-2.3,0.5-2.5
	c4.4-2.3,5.6-16.1,8.5-22.9c0,0.1,1.2-0.4,1.5-1c1.6-3.4,2.3-4.5,4.3-8.2c0.2-0.4,0.1-2.3,0.5-2.5c3-1.6,4-5.7,6-10.5
	c0.2-0.4,0.2-2.3,0.5-2.5c1.3-0.7,4.1-5.8,5.7-10.4c-0.1-1,0.1-2.1,0.7-3.2c2.8-5,5.1-10.2,7.7-15.3c0.1-0.3,0.3-0.5,0.5-0.7
	c0.5-2.1,0.9-4.2,1.7-6c0.1-0.2,1.2,0.1,1.5-1c0.2-0.9,1.3-1.2,1.8-2.2c1.6-3.7,1.2-5.9,3.3-9.7c0.1-0.2,1.1-0.2,1.5-1
	c1.2-2.4,2.7-4.2,4-7c0.4-0.7,0.1-1.8,0.5-2.5c2.9-4.4,5.8-8.5,10-11c5.5,4.2,2.4,10.7,2,16c0,0.2,1.5,0.4,1,1.5
	c-0.1,0.2-1.3-0.1-1.5,1c-0.3,1.4,1,1,1,1.5c0,1.4-1.4,0.6-1.5,1c-0.8,3.1-0.7,6.1-1.8,8.7c-1.8,4.6-5.4,9.1-8,13.9
	c-2.6,5-4.3,10.4-7,15.4c-0.1,0.2-1.1,0.2-1.5,1c-1,2-1,3.3-2.5,6c-0.1,0.2-1.1,0.1-1.5,1c-1.1,2.3-1.8,4.8-4,7c-1,1-1.2,1.8-2,3.5
	c-0.5,1-1.3,0.6-1.5,1c-2.7,4.7-3.5,9.5-6.8,14.2c-0.5,0.7-2.6,1.4-3,2c-0.4,0.6-0.2,1.8-0.5,2.5c-0.5,1-1.3,2-2,3.5
	c-0.6,1.2-1.1,0.4-1.5,1c-1.6,2.2-3.7,7-6,10.4c-0.2,0.4-1,0-1.5,1c-0.3,0.7-0.1,1.9-0.5,2.5c-0.5,0.7-2.6,1.4-3,2
	c-0.4,0.7-0.2,1.8-0.5,2.5c-0.5,1.1-2.1,2.6-3.5,4.5c-0.5,0.7-2.6,1.4-3,2c-0.4,0.6-0.2,1.8-0.5,2.5c-0.2,0.5-3.4,6.3-6.3,5.2
	C1328.9,341.6,1330.5,339.2,1332,336.2z"/>
<path class="st0" d="M787.4,417.1c1.1-0.6,1.9-1.6,2.9-2.1s3,0,4-0.6c0.8-0.6,1.2-2.9,1.9-3.5c0.8-0.7,2.1-1.3,3-2.1
	c2.1-1.8,3.9-3.5,6.1-5.4c1.6-1.5,4-2.4,5.9-4.2c1-1,1-2.7,1.9-3.5c1-0.9,3.3-0.9,4.2-1.9c1.3-1.4,1.1-3.2,2.1-4.8
	c1-1.4,2.2-1.9,3.2-3.3c1-1.6,1-2.7,2.1-4.8c1.5-2.7,3.7-5.7,5.3-8.1c0.4-0.7,1.6-1.7,1.7-2.3c0.3-1.3,1.2-0.5,1.5-1
	c5.5-9.1,3.8-15.7,5.8-26.1c7.6-2.1,15-5.6,22.2-9.1c2.9-1.4,5.1-3.1,7.1-3.9c1.1-0.4,3.1-2,4.2-1.9c1.5,0.2,0.7-0.7,1.5-1
	c4.3-1.8,9.7-2.4,12.3-4.3c0.9-0.6,2.1-1.4,3-2.1c2-1.6,2.3-3.1,3.3-4.6h0.1c-4.3-1-9.1-0.8-13.8,0.2c-0.6,0.3-1.3,0.6-1.9,1
	c-2.1,1.1-5.1,2.9-6.9,2.7c-2.5-0.3-3.5,3.2-5.7,2.9c-1.5-0.2-0.7,0.7-1.5,1c-3.7,1.6-6.7,3.6-9.9,4.8c-5.4,2-11.8,2.7-17.6,4.7
	c-3.7-3.6-5.3-8.4-11-10.9c-4.1-1.8-8.5,0.2-12.3-3.4c-0.7,2.4-4.6,0.2-6.5,0.2c-1.9-0.1-5.7,2.5-5-0.9c2-4.7,4.3-9.7,6.3-14.4
	c1-2.2,1.3-4.8,2.6-7.3c1.1-2.3,2.9-4.8,3.8-7.1c1-2.7,0.6-5.9,1.5-8.8c0,0,1.2-0.4,1.5-1c0.3-0.8,0.2-1.7,0.4-2.5
	c0.6-1.9,1.9-3.8,2.1-4.8c0.2-0.9,1.5-1.1,1.5-1c0.4-1.6-1.3-2-0.6-4c0-0.1,1.1-0.2,1.5-1c0.7-1.5,1.4-2.5,1.9-3.6
	c1.7-3.8,1.7-6.6,3-9.8c1-2.5,3.9-8.7,4.2-9.6c2.3-5.1,3.8-13,6.3-14.4c0.4-0.2,0.1-2.1,0.4-2.5c0.1-0.2,1.1,0.3,1.3,0.2
	c0.4-0.3,0.1-2.1,0.4-2.5c0.1-0.1,1.1,0.3,1.3,0.2c1.8-1,0.8-5.4,3.4-4.6c0.5-10.3,7.3-11.4,8.7-20.4c5-2.7,10.3-11.9,9.5-17.7
	c-11.7-2-20.6,0-32-1.6c-6.1,3.3-11.9,7.1-17.4,11.2c0,3.4,0,4.3-1.1,6.3c-0.2,0.4-2.6,1.5-2.9,2.1c-0.8,1.2-0.1,3.8-1.9,3.5
	c-0.6,14.1-10.5,20.2-9.3,31.9c-5.6,2.4-3.9,10.9-6.4,14.4c-0.3,0.5-2.4,0.2-2.7,0.8c-1.2,2.1-1.6,5.3-2.5,7.3
	c-1.7,3.6-3.9,7.1-5.7,10.6c-1,2-1.1,3.9-2.3,6.1c-1.2,2.1-2.7,3.7-3.6,5.8c-1.5,3.4-1.8,7.4-3.2,11.1c-0.5,1.2-1.3,1.3-1.7,2.3
	c-0.5,1.1-0.1,2.6-0.6,3.8c-0.9,2-2.8,3.8-3.6,5.8c-1.2,3.3-2.3,6.4-1.7,10c-2.3,1.4-4,3.8-5,6.9c-2.1,3.7-0.6,2.8-1.3,7.5
	c-2.2,1-2.7,3.9-3.6,5.8c-1.1,2.4-2.9,4.9-2.8,8.5c-3.5,2.5-4,6-5.5,9.4c-0.3,0.7-1.4,0.9-1.5,1c-3.7,8.1-4,17.5-7,25.9
	c-1,2.9-2.9,3-3.6,5.8c-0.3,1.1-1.3,0.7-1.5,1c-2.2,4.9-2.3,11.4-4,16.1c0,0.1-1.1,0.2-1.5,1c-0.3,0.7-0.1,1.8-0.4,2.5
	c-0.8,1.6-2.1,1.1-2.9,2.1c-0.5,0.6-0.2,1.9-0.4,2.5c-0.5,1-1.2,0.6-1.5,1c-2.8,4.2-3.5,7.8-5.7,10.6c-0.5,0.6-2.4,1.3-2.9,2.1
	c-1.6,2.1-2.2,5.5-5.1,6.9l-0.7,3.8c3.2,3,7.6,1.7,10,1.7c2.1,0.1,4.2,1.2,6.3,1.1c2.2-0.1,5.3-1,7.9-1.2c3.5-0.3,6.6,0.7,9,0.2
	c0.6-0.1,2.2-1.9,2.9-2.1s1.7,0.5,2.5,0.4c1.2-0.1,0.8-0.8,1.5-1c1.4-0.5,2.4-0.1,4-0.6c0.8-0.3,2-1.8,2.9-2.1
	c0.7-0.2,1.8,0.5,2.5,0.4c1.1-0.1,1.1-1,1.5-1.1c4.7-1,7.3-1.9,10.9-3.3c2-0.8,4.6-1.6,6.9-2.7c0.9-0.4,2-1.7,2.9-2.1
	c1.2-0.5,2.8,0,4-0.6C783.6,420.2,785.4,418.2,787.4,417.1z M797.9,326c3.4,1,7-2.1,10.7-2.1c2.1,0,1.9,1.6,3.5,1.9
	c1.1,0.2,2.2-1.1,4-0.6c-0.1,0,0.2,1.3,1,1.5c5.2,1.2,8.2,3.6,8.7,9.2c-0.3,4.8-6.9,0.7-8.4,3.7c-2.8,0.7-5.9,1-8.2,2.5
	c-5.9-1.7-12.5-3-17.1-5.5C793.8,332.7,795.8,329.3,797.9,326z M775.1,413.7c-0.8,0.4,0,1.2-1.5,1c-0.4,0-2.3,0.6-2.7,0.8
	c-0.5,0.2-1.3,2.2-1.7,2.3c-0.7,0.2-1.9-0.7-2.5-0.4c-0.5,0.2-1.3,2.2-1.7,2.3c-0.7,0.2-1.9-0.7-2.5-0.4c-1.2,0.5-1.7,3-4.2,1.9
	c-0.5,1.4-2.5,0.7-4,0.6c-0.2-3.8,2-3.5,3.6-5.8c1.9-2.7,2-5.6,4.2-9.6c0.2-0.5,1.2,0.2,1.5-1c0.1-0.3,0-1,0.2-1.2
	c1.9-3.2,4.6-11.5,6.8-16.9c0.5-1.1,1.4-1.8,1.9-3.5c0.8-3,1.1-4.2,2.5-7.3c0.2-0.4,0.1-2.3,0.4-2.5c0.1-0.1,1.2,0.3,1.2,0.2
	c4-9.9,6.5-20.1,12.5-27.5c1.7,1.8,4,0.6,6.3,1.1c3.1,0.7,4.5,2.3,7.3,2.5c8.8,0.7,18.4-4,27.6-3c1.3,3.1,0.4,6.4-0.3,9
	c-0.8,3.2-2.6,4.5-3.8,7.1c-2.3,5.3-4.5,9.7-7.6,14.2c-0.3,0.5-1,0-1.5,1.1c-0.3,0.7,0,1.8-0.4,2.5c-0.5,0.8-2.5,1.5-2.9,2.1
	c-0.7,1-1,2.3-1.9,3.6c-1.6,2.1-3.6,2.1-5.9,4.2c-1,0.9-0.9,2.3-1.9,3.5c-0.6,0.7-2.5,1.5-2.9,2.1c-1,1.3-0.8,2.5-1.9,3.5
	c-1,0.9-2.8,1.8-4.4,3.1c-0.4,0.3-2.5,0.5-2.7,0.8c-0.3,0.5,0,2.2-0.4,2.5c-0.5,0.3-2.1-0.8-2.5-0.4c-1.5,1.3-3.1,2.8-5.9,4.2
	C780.9,411.2,777.7,412.4,775.1,413.7z"/>
<path class="st0" d="M238.6,396.2c6.5,2.1,12.5-1.2,16.4,2.1c0.6,0.6-0.4,1.2,1.1,1.4c1.2,0.2,3,1.9,1.9,5.4c-2.7,2-6.3-1.8-8.5-3.6
	c-1.7,1.3-4.6,0.9-7.7,0.3c-4.6,3.3-10.2,10-7.5,18.3c1.3,1.9,3.8,3.6,5.8,4.6c2.3,1.1,6,2.4,8.7,2.4c4.3,0.1,8.9-2.6,12.3-6.1
	c0.8-0.8,2.3-1.5,2.8-2.2c1.4-1.6,2.1-4.9,3.5-7.2c0.6-1,2.4-1.6,2.8-2.2c1.3-2.3,0.6-4.7,2.2-7.4c0.3-0.5,1.2,0.2,1.4-1.1
	c0.1-0.3,0-1,0.2-1.3c0.5-0.8,2.4-1.5,2.8-2.2c0.3-0.4-0.1-2.3,0.3-2.5c1.3-0.8,2.1-4.5,3.7-8.5c0,0,1.1-0.4,1.4-1.1
	c0.3-0.8,0-4.6,0.6-5c1.3-0.8,2.4-4.6,3.7-8.5c0,0.1,1.2-0.5,1.4-1.1c0.8-1.9,0-4.4,0.8-6.3c0.1-0.3,1.2,0,1.4-1.1
	c0.1-0.3,0-1,0.2-1.3c0.7-1.2,1.1-1.9,1.8-3.6c0.3-0.9,1.3-0.8,1.4-1.1c2.1-5.2,1.7-11.6,4.5-14.8c1.9-2.2,2.2-5.1,3.6-8.5
	c0.2-0.4,0-2.3,0.3-2.5c1.1-0.7,1-0.8,1.6-2.4c0,0.1,1.6-3.5,1.7-3.6c0.8-0.5,2.5-3.4,2.2-7.4c-4-2.2-9.2-0.2-14-0.5
	c-2.8-0.2-3.1-1.6-4.9-1.9c-2-0.3-5.3,0.2-7.7,0.3c-6.2,0.2-15.6,2.1-22.8-1.6c1.2-5.3,5.7-4.6,9.6-5.2c0.4,0,2.2,0.6,2.5,0.3
	c1.4-1.3,0.6,0.1,2.5,0.3c0.9,0.1,1.6-1.4,2.7-1c0.4,0.2-0.2,1.5,1.1,1.4c4-0.1,8.5-3.3,15.5-0.6c1.7,0.6,1.8,1.5,6.3,0.8
	c2.7-0.4,8.7-2.2,13.1-2.2c1.6-4.7,5.2-10,7-14.5c1.4-3.5,0.9-7.1,2.9-12.4c0.1-0.2,1.2,0,1.4-1.1c0.5-2.8,2.2-3.1,3.3-6
	c0.3-0.8-0.3-6.8,1-7.6c1.8-1.2,1.9-3.9,3.7-8.5c0,0,1.6-3.6,1.7-3.6c2.1-1.3,0.5-3.5,2.2-7.4c0.2-0.4,1.2,0.1,1.4-1.1
	c0.7-3.8,1.9-2.5,3.3-6c0.2-0.4,0-2.3,0.3-2.5c2.9-1.8,4.9-9.3,8.1-13.1c0.6-0.6,1.2,0.4,1.4-1.1c0-0.3,0-1.1,0.2-1.3
	c1.3-1.6,2.8-1.7,4.3-3.3c0.4-0.4-0.2-2.2,0.3-2.5c1.2-0.7,3.8-1,4.3-3.3c0.5-2.9,6.3-4.3,9.8-6.4c1.2-0.7,1.8-2.7,3-3.5
	c0.5-0.3,2.1,0.7,2.5,0.3c0.3-0.3,1.3-2.3,1.6-2.4c1.1-0.4,2.7,0.8,3.8,0.5c0.4-0.1,0.4-0.9,1.4-1.1c3.6-0.6,9.6-1.7,14.4-2
	c2.6-0.1,2.4,0.4,3.9-0.8c0,0,2,1.4,2.4,1.6c1.5,0.6,8-1.3,12.8,0.4c5,1.7,5.8,4.2,10.6,7.7c2.2,3.2,9,2.9,9.3,7.6
	c-0.8,6.8-13.4,4.6-17,3c-0.9,1.6-3.4-0.1-5.2,0.6c-1.2,0.5-1.1,2-2.8,2.2c-3,0.3-6.6-1.9-9,0.1c-3.4-0.4-3.2,3.6-6.8,3
	c-3.3,2.5-6.2,4.2-10,7.7c-2.2,2-3.3,2.5-4.6,5.8c-0.8,2-4,2-4.4,4.5c-0.2,1.2-1.8,2.1-2.8,2.2c-1,3.6-0.9,5.6-2.6,9.9
	c-0.6,1.6-2.3,1.8-3,3.4c-1.3,3.4-1,1.9-0.6,5.1c0.2,1.8-1.3,2.4-1.7,3.6c-0.8,2-1,2.9-1.9,4.9c-2.1,4.4-5.8,10.5-7.3,17
	c-0.7,2.8-0.5,4.5-2.2,7.4c-0.3,0.5-2.7,1.9-2.8,2.2c-1,2.9-0.2,5.4-1.1,8.8c3.5,3.9,11.3,1.6,16.4,2.1c6,0.5,10.9,0,13.7,3
	c-0.5,5.7-6.5,4.5-10.9,5c-2.8,0.3-5.8-0.4-10.2,0c-1.6,0.1-7.9,1.3-12.8-0.3c-3,1.1-1.3,3.8-2.1,6.1c0,0.2-1.2,0.1-1.4,1.1
	c-0.6,3.2-1.5,3.2-2.1,6.1c-0.1,0.7,0,1.9-0.3,2.5c-0.8,1.6-2.4,1.7-3,3.4c-0.9,2.5-0.3,5.9-1.1,8.8c0.1-0.3-1.2,0.6-1.4,1.1
	c-0.3,0.8,0,4.6-0.7,5c-2.7,1.7-2.9,11.9-4.6,16.1c0,0.1-1.1,0.3-1.4,1.1c-0.7,1.8-0.9,3.2-1.9,4.9c-0.5,0.8-2.4,1.5-2.9,2.2
	c-0.7,0.9,0,2.6-1.6,2.4c-1.9,9.4-4.2,18.1-9.4,23.1c-0.4,3-0.7,5.9-1.1,8.8c-4.7,3.1-4.5,8.2-6.7,12c-0.4,0.6-2.4,0.5-2.7,0.9
	c-0.5,0.8,0.2,3.1-0.5,3.8c-0.6,0.6-3.2,0.3-4,0.8c-1.1,0.7-1.4,1.6-2.8,2.2c-3.9,1.7-6.1,1.8-9.5,3.9c-2.1,1.3-6.5,2.1-8.4,5.3
	c-4.1-2.5-6.4,1.3-9.1,1.4c-11.1,0.5-23.4-3.9-31-7.8c-0.4-0.2,0.2-1.2-1.1-1.4s-2.5-0.3-3.8-0.5c-0.6-0.8-0.5-1.7-1-2.7
	c-0.8-1.5-1.1-2.8-2-4.1s1-6.4-0.3-7.7c-0.6-0.7-1.3-1.3-0.9-2.7c0.6-2.7,2.7-1.8,3.2-4.7c1.3,0.2,1.1-1.5,1.6-2.4
	c0.5-1,1.1-0.6,1.4-1.1C233,401.7,235.8,398.9,238.6,396.2z"/>
<path class="st0" d="M278.6,409.7c-0.1-1.3,1-1,1.9-1c-0.2,0.5-0.7,0.5-0.8,1.1C279.4,409.8,279,409.8,278.6,409.7z"/>
<path class="st0" d="M453.9,316.1c2.7,4.4,1.4,11.8,2.9,17.1c2.6,1,4,0,6.5-0.5c3.3-0.6,8.4-1.9,12-3.6c1.2-0.6,4.3-1.7,6.8-3
	c0.5-0.3,1.2-2.2,1.6-2.4c0.7-0.2,1.9,0.6,2.5,0.3c0.5-0.2,1.1-2.2,1.6-2.4c2-0.6,4.7,0.5,6.6-1.7c2.3,0,2.8-2.2,4.3-3.3
	c1.4-1.1,3.6-1.3,4.3-3.3c6.6,0.2,11.2-2.1,19.2-0.1c0.2,0.2,1.9,4.4,0.6,5.2c-1.3,0.9-1.2,1.6-1.7,3.6c-0.1,0.4,0,2.4-0.3,2.5
	c-1.7,1.1,0,0.6-0.3,2.5c0-0.2-1.3,0.3-1.4,1.1c-0.1,0.4,0,0.9-0.2,1.2c-1.3,4.3-1.6,10.1-3.5,17.5c-0.1,0.4,0,2.3-0.3,2.5
	c-1.6,1-1.3,3.1-2.2,7.4c-1.1,4.8-2.4,13.4-4,21.3c-1.2,5.8-3.1,11.9-4,21.3c-0.1,1.5,0.7,4.7,0.5,6.5c-0.3,2.1-2,2.6-1.9,4.9
	c0.2,2.4,0.7,5.7,1.6,7.9c0.5,1.3-0.2,3.1,0.8,4c1,1,4.2-0.4,3.6,1.8c1-1.1,5.1,0.9,6.5-0.5c0.2-0.2-0.1-1.1,0.2-1.3
	c1.2-0.7,3.1-2.4,4.3-3.3c0.6-0.4,2.2-0.4,2.7-1c0.4-0.4-0.1-2.2,0.3-2.5c0.2-0.1,1.1,0.3,1.3,0.2c0.3-0.4-0.1-2.2,0.3-2.5
	c1.1-0.7,3.8-1,4.3-3.3c0.3-1.7,2.2-3.2,3.3-6c0.5-1.3,0.1-2.4,1.6-2.4c1.5-1.3,3.3-4.5,4.8-7.1c0.2-0.4-0.1-2.3,0.3-2.5
	c1.3-0.8,2.8-5.9,4.9-8.4c0.8-1,2.8-6,3.6-8.5c0.6-1.9,1.3-3.8,2.1-6.1c3.3-9.4,5.3-21,9.2-32.1c0.1-0.2,1.2,0,1.4-1.1
	c0.6-3.5,0.6-4.9,2.4-8.7c0.2-0.4,1.2,0.1,1.4-1.1c0.1-0.4,2.6-5.9,3.5-7.2c1.9-3.1,3.7-9.3,8.7-7.9c-1.1,5.2-1.1,9.9-3.2,15
	c-0.1,0.3-1.2-0.1-1.4,1.1c-0.3,1.4-2.2,4-3.3,6c-0.2,0.4,0.1,2.3-0.3,2.5c-0.1,0.1-1.2-0.2-1.3-0.2c-1.4,3.7-1.8,8.2-2.9,12.4
	c-1.1,4.1-1.8,8.6-2.9,12.5c-1.1,4-2.8,7.4-4,11c-1.2,3.8-1.4,7.8-2.7,11.2c-0.1,0.3-1.2,0-1.4,1.1c-0.1,0.5-0.1,3.5-0.5,3.8
	c-1.9,1.2-3.4,5.4-5.1,9.6c-0.7,1.8-2.3,5-3.5,7.2c-0.2,0.4,0,2.3-0.3,2.5c-1.4,0.8-1.8,0.9-2.8,2.2c-1.2,1.4-5.3,6.6-5.2,10.9
	c-4,1.3-5.9,5.2-9.8,6.4c-0.6,5.6-7.1,3.5-8.7,7.9c-11.8-0.4-20-1.4-31.5-4c-4.8-5-7.1-11.9-11.9-16.9c1.8-4.6-1.2-8.7-0.9-12.9
	c0-0.8,0.4-1.7,0.3-2.5c-0.2-2.4-1.8-3.1-0.5-6.5c0.4-1.1,1.1-2,1.7-3.6c0.3-0.8,1.4-1,1.4-1.1c1.8-5.7,1-10,3.2-15
	c0.2-0.4,1.2,0.1,1.4-1.1c0.1-0.5,0.1-3.6,0.5-3.8c2.6-1.6,0.6-4,2.4-8.7c0.4-1.2,2.8-6.1,3.8-9.8c1.8-6.4,2.5-12.7,4.9-18.6
	c-0.2-3.7-2.2,1.7-3.9,0.8c-8.9,7.2-20.5,10.7-31.4,15.2c-1.5,1.7,0.8,3.7,0.8,4c-0.1,0.9-1.5,2-1.7,3.6c-0.5,3-0.4,6.4-1.1,8.8
	c-0.6,2.1-2.2,3.6-3.3,6c-1.1,2.3-1.1,4-2.1,6.1c-0.1,0.2-1.1,0.2-1.4,1.1c-1,2.5-2.1,8-4,11c-0.3,0.6-1.2-0.3-1.4,1.1
	c-0.4,2-3,4.7-5.9,5.6c-4.4,10.5-13.4,15-19.6,23.1c-3.9,0.5-5.5,1.9-8.1,2.8c-2.4,0.9-1.8,1.5-5.4,1.9c-2.7,0.3-16.9,0.3-20.3-1.3
	c0.2,0.1-0.8-1.2-1.1-1.4c-0.4-0.3-2.3,0.1-2.5-0.3c-0.7-1.1,0.8-2.4-0.9-2.7c-0.2,0-3.9-3.4-4.5-4.4c-0.3-0.5,0.7-2.1,0.3-2.5
	c-0.2-0.2-2.3-1.4-2.4-1.6c-0.6-2,1-9.2,0.5-14c-0.4-3.4,0-16,1.5-21.6c0.1-0.4,0-2.3,0.3-2.5c0.2-0.1,1.2,0.3,1.3,0.2
	c0.3-0.4-0.1-2.3,0.3-2.5c1.9-1.2,0.6-3.7,2.2-7.4c0.2-0.4,1.2,0.1,1.4-1.1c0.4-2,2.5-2.8,3.4-6c0.6-2.5,0.6-3.4,1.9-4.9
	c1.1-1.3,1.9-2.2,3-3.5c0.7-0.8,0.9-2.7,1.8-3.6c0.5-0.5,2.2-0.4,2.7-0.9c0.8-0.8,0.8-2.7,1.7-3.6c0.5-0.6,2.2-0.4,2.7-0.9
	c1.3-1.4,1.9-3.7,3.2-4.7c1.6-1.2,3.5-1.9,5.5-3.1c4.1-2.6,12.9-6.2,16.6-9.4c2,0.2,4.7,1.2,5.2-0.6c4.9,1,4.5-4.9,9.5-3.9
	c0.6,2.5,2.3,0.2,3.8,0.5c2.2,0.4,2.5,1.5,4.9,1.9c-0.4,0,0.8-1.2,1.4-1.1C450.6,314.2,449.5,315.7,453.9,316.1z M417.3,342.2
	c-0.2,0.3-0.1,0.9-0.2,1.3c-0.2,1.1-1.3,0.8-1.4,1.1c-0.6,1.4-0.3,3.5-0.6,5c-0.2,1.2-1.3,0.8-1.4,1.1c-1.4,3.4-2.5,7.1-4,11
	c-1.3,3.6-3,7.5-4,11c-1.3,4.5-0.5,7.5-2.4,8.7c-2.6,1.6-0.1,12.3-0.2,11.5c0.1,2-1.2,4.4-0.8,6.3c0.1,0.3,2.1,1.2,2.3,1.6
	c0.7,1.2,0.2,2.9,0.8,3.9c1,1.8,1.9,4.9,4.6,4.4c10.6-4.8,17.8-14.9,23.7-25.2c6.2-10.7,12.5-23.5,14-39.2c-3-3-11.5-1.7-14.8-4.4
	c-4.3-1.6-3.6-7.1-9.3-7.6C422.6,335.7,418.3,340.2,417.3,342.2z M446.6,333.1c2.6-8.3-10.2-13.7-11-4
	C440.9,329.2,440.7,333.5,446.6,333.1z"/>
<path class="st0" d="M589.2,300.2c2-0.2,4.3,1.2,6.3,0.8c0.6-0.1,2.5-2.2,2.9-2.2c4.7-0.3,10.1,0.9,15.3,0.7
	c4.3-0.2,8.6-1.2,12.9-0.9c3.5,3.1-0.7,7.2-0.5,14c2.2-0.7,3.1-1.3,5.4-1.9c1.1-0.3,3.7,0,5.2-0.6c1-0.4,2.2-2.3,4.3-3.3
	c0.9-0.4,1.7-0.5,2.7-1c0.9-0.4,4-1.4,6.6-1.7c5.1-0.7,13.6-0.8,21.4,2.8c-4.6,6.7-11,2.6-17.2,4.2c-0.4,0.1-0.4,1-1.4,1.1
	c-2.8,0.3-3.8,0.1-6.6,1.7c-0.8,0.4,0.1,1.2-1.4,1.1c-0.9-0.1-3.9,1.1-4.1,2c-0.2,1.2-7.2,4.3-9.6,5.2c-1.3,0.5-2.6,2.2-4.1,2
	c-1.1-0.1-2.3,1.5-3.9,0.8c-1.1,3.4-2.7,6.3-3.8,9.8c-3.6-0.1-3.5,4.3-5.9,5.7c0,7.4-4.1,13.9-6.3,19.7c-2.5,6.4-4,12.3-6.2,18.4
	c-0.1,0.2-1.2,0-1.4,1.1c-0.6,3.2-1.3,4.6-2.4,8.7c-0.6,2.4-1.6,3.3-1.9,4.9c0.1-0.4,1.2,0.8,1.1,1.4c-0.2,1.3-1.3,0.8-1.4,1.1
	c-1.6,6.8-2.4,13.5-4,21.3c-3.6-0.8-6.2,1-10.4,1.2c-0.9,0-4.3-1.2-5-0.6c-2.6,2-0.8-0.7-5.1-0.6c-2.1,0-3.1,0.3-5.2,0.6
	c-1.7,0.3-3.4,1.2-5.2,0.6c-3.4-1.1-4.2-4-6.9-6c-0.1-1.1,0.7-1.1,1.4-1.1c0.1-3.5,1.6-6.7,2.5-9.9c1.6-5.4,2.4-10.5,4.6-16.1
	c0.6-1.4,1.3-2.2,2.1-6.1c0.2-0.8,0-1.8,0.3-2.5c0.3-0.8,1.4-1,1.4-1.1c1.9-5.8,3-11.7,4.8-17.3c0,0.2,1.2-0.5,1.4-1.1
	c0.6-1.5,0-3.5,0.7-5c0.3-0.7,1.4-1.2,1.4-1.1c1.7-6.7,2.7-13.5,5.1-19.8c0.8-1.9,0.2-4.3,0.8-6.3c0.6-1.9,2.6-4,3.3-6
	c1.1-3.1,1.4-7,2.5-9.9C586.7,305.4,588.1,303.3,589.2,300.2z"/>
</svg>
