<?xml version="1.0" encoding="utf-8"?>
<!-- Generator: Adobe Illustrator 19.0.1, SVG Export Plug-In . SVG Version: 6.00 Build 0)  -->
<svg version="1.1" id="Layer_1" xmlns="http://www.w3.org/2000/svg" xmlns:xlink="http://www.w3.org/1999/xlink" x="0px" y="0px"
	 viewBox="466 108 1724.5 398" style="enable-background:new 466 108 1724.5 398;" xml:space="preserve">
<style type="text/css">
	.st0{fill:#FFFFFF;}
</style>
<g>
	<g>
		<g>
			<path class="st0" d="M1430.1,227.3c-3.7,8.4-8.8,16.3-16.1,23.2c-7.3,7.3-16.4,12.2-26.5,15.7c-10.1,3.4-20.2,6.2-30.6,7
				c-3.9,0.4-7.9,0.5-12,0.7c-4.1,0.2-9.1,0.7-13,0.7c7.3,6.9,13.9,14.6,19.1,23.4s8.5,18.2,11.5,28.1c0.9,3,2.4,5.9,3.3,9.1
				c0.9,3.2,0.8,6.4,1.2,9.4s1.4,6,1.6,9.2s1,6.3,1,9.3c0,17.6-3.6,35.1-10.9,52.5c-3.8,9-8.5,17.6-14.3,26
				c-5.5,7.9-11.4,15.8-18.7,23.1c-12.5,13.3-28.1,21.9-45.3,28.8c-8.8,3.5-17.3,8.5-26.9,10.3c-9.2,1.6-18.9,1.2-28.8,1.2
				c-13.2,0-25.2-3.2-37.1-6.3c-12.3-3.2-24.4-6.2-35.4-12.6c-10.6-6.2-20.9-13.6-30.2-22.8c-9.3-9.3-15.9-20.1-22.2-30.6
				c-6.4-11-11.1-22.4-14.3-34.7c-3-11.9-3.8-24.2-3.8-37.3c0-15.4-0.7-30.4,3.6-44.3c4.4-14,12.7-26.5,21.5-38.9
				c8.7-12.3,18.1-23,29.2-31.7c11.3-8.9,25.1-15,39-20.2c-4.7-6-8.1-14.4-10.9-21.5s-7.2-13.8-7.2-21.6c0-18.1,7.6-33.5,20.3-46.1
				c12.7-12.7,27.9-17.1,45.5-17.1c8.6,0,16.4,1.2,24.6,4.5c8.1,3.2,15.5,6.5,21.1,12.5c0.4-0.9,0.1-2.3,0.6-3
				c0.4-0.6,1.7-0.9,2.1-1.7c0.3-0.4,0-0.5,0.2-0.9c2.6-4.7,6.3-8.2,10-11.5c3.7-3.2,8-1.2,15.4,3.5c6.9,4.3,11,6.8,10.1,10.2
				c-0.9,3.5-1.8,7.3-3.9,10.8c-9.2,14.2-9.3,14.1-18.5,28.3c-9.2,14.2-11.2,12.9-20.4,27.1c-0.4,0.9,0.2,2.3-0.2,3
				c-0.4,0.6-1.6,0.4-2,0.8c-1.7,1.7-1.3,5.3-2.7,6.2c-1.3,0.9-4,1.2-6.2,1.2c-1.3-0.4-3.1-0.9-4.8-1.5c-1.7-0.7-3.8-2-6-3.3
				c-2.6-2.1-5.2-4.1-6.5-6.1c-1.3-1.9,0-4.9,0-7c0-1.3-0.5-2.6-0.3-3.9c0.2-1.3,0.1-2.7,1-3.6c0.8-2.2,4-3,5.3-5.2
				c1.3-2.1,2.2-4.2,3.5-5.9c1.3-1.7,0.5-4.7,1.6-6.3c1.1-1.5,1.9-1.9,2.8-3.2c-3-4.7-5.1-10.2-9.8-12.8c-4.8-2.6-10.9-4.1-17-4.1
				c-9,0-18.1,3.7-24.5,10.1c-6.4,6.5-7.1,15.7-7.1,25.2c0,8.2,1.5,15.5,7.3,21.7c5.8,6.2,13.1,8.3,21.3,9.5
				c4.3,0.4,6.7,4.6,9.3,7.8c2.6,3.2,4.3,6.1,4.3,10c-0.4,4.3-2,7.6-4.8,10.3c-2.8,2.8-6,4.6-10.3,5.1c-14.8,0.9-29.2,3-41.8,9.1
				c-12.4,6-22.7,16.2-33,27.1c-10.4,11-19.8,22.1-25,34.9c-5.3,13-4.7,27.6-4.7,42.5c0,15.7,1.2,30.1,6.7,43.5s13.7,25.6,24.8,36.7
				c11,11,23.5,18.3,36.7,23.8c13.3,5.6,27.2,9.4,42.8,9.4c6.5,0,13.7,0.8,21.2-0.5s15-5.2,23.1-8.2c5.6-2.6,11.5-5.2,17.3-8.8
				c5.8-3.7,11.4-8.2,16.5-13.8c13.8-14.6,23.8-28.5,28.7-42.1c4.9-13.6,8.2-26,8.2-36.7c0-6-2-11.4-2.9-16.1
				c-0.9-4.7-1.8-8.9-3.1-12.3c-5.6-18.5-16-32.4-29.8-43.4s-28-17.1-43.9-17.1c-1.3,0-2.9-0.5-4.6-0.3s-3.1,1-4.4,1
				c-7.8,1.3-15.3,3.8-22.6,7.9s-15.1,9.2-21.6,17c-5.1,6-9,12.5-11.3,18.5c-2.4,6-1.5,12.2-1.1,17.8c0,10.8,1.1,21.1,7.6,28.8
				c6.5,7.7,14.4,13.3,22.1,16.3c1.7,0.4,3.7,0.8,5.7,1.2c1.9,0.4,4-2.1,5.7-2.1c4.7,0,7.8-0.9,11-3.5s7.3-5,8.6-10.2
				c0.4-0.9,0.7-2.1,0.7-3.2s-2.6-1.8-2.6-2.3c0-4.7,1-9.7-2.2-11.6s-7.7-2.2-11.6-3.5c-0.3-0.1-0.1-0.4-0.4-0.5
				c-3.9-1.7-8.6-1.4-12-3.3c-3.4-1.9-5.3-6.9-5.3-12c0-0.3,0-0.3,0-0.6c0-5.6,3.1-8.8,6.4-11.2c3.2-2.4,6.7-3.4,11.4-3.4
				c2.6,0,4.8,1,7.3,1.7c2.6,0.6,6.1-0.8,9.2,0.4c7.7,3.5,13.8,10.5,20.5,18.3c6.7,7.7,9.7,16.4,9.7,27.1c0,0.9,2.2,1.8,2.2,2.9
				s-2.6,1.8-3,2.7c0,1.3-0.4,2.4-0.6,3.5s0.6,2.3,0.2,3.1c-3.5,13.3-9.6,23.2-19.2,29.2c-9.7,6-20.2,10.6-31.4,10.6
				c-8.2,0-16.3-3.4-24.5-6.7c-8.2-3.2-14.6-8.5-21.1-14.1c-8.2-7.7-15.7-15.6-20.3-25.9c-4.5-10.3-4.8-20.9-4.4-31.7
				c0-1.7,0.3-3.4,0.3-4.9s-0.3-3,0.1-4.7c0.9-8.2,1.1-16.7,4.6-24.6c3.4-7.9,10-14.1,16.1-20.9c10.3-12.5,20-23.9,32.4-30.2
				c12.5-6.2,26.1-8.6,39.9-9.1c0.9,0,1.7-0.6,2.6-0.6c0.9,0,1.6,0.1,2.5-0.4c1.3,0,2.5-1.4,3.3-1.4c0.9,0,1.9,0.3,3.2,0.3
				c3.4,0,7.1,2.7,11.2,2.9c4.1,0.2,8.3-1.7,12.6-1.7c4.3,0,8.8,1.2,13.5,1.4c4.7,0.2,9.5,0,14.2,0c14.2,0,28,0.2,41.1-1.8
				c13.1-1.9,23.2-7.1,30.1-13.9c4.3-3.9,6.3-8.6,8.3-12.9c1.9-4.3,4.9-8.6,4.9-13.8c0-1.3-2.3-2.5-2.5-4s-0.9-2.8-1.3-4.6
				c-1.3-3.9-2.4-7.6-4.5-11.3c-2.2-3.7-4.6-6.9-8.1-9.9c-1.7-1.7-2.4-4.3-3.2-6.4c-0.9-2.1-1.7-4.2-1.7-6.4c0-2.1,0.2-4.1,0.8-5.7
				c0.6-1.5,1.6-3.3,2.9-5c1.7-1.7,4.1-2.5,6.3-3.3c2.1-0.9,4.2-1.1,6.4-1.1c2.2,0,3.5,1.2,5,1.8s4,0,5.7,1.3
				c8.2,7.3,13.1,16.6,17.4,26.1s8.5,18.7,8.5,28.6C1436.8,210,1433.8,218.9,1430.1,227.3z"/>
		</g>
	</g>
	<g>
		<path class="st0" d="M1507.6,432.4c10,5.1,29.7,8.5,44.8,8.5c6.5,0,12.1-0.6,15.7-2c5.3-2.1,8.4-7.5,12.1-10.6
			c4.4-3.7,10-6.3,13.1-9.5c24.9-25.7,23.4-74,9.3-102.5c-11-22.3-30.9-29.5-46.9-40.8c-13.1-9.2-34.3-28.9-29.4-52.4
			c2.2-10.6,14.8-18.4,26.7-18.4c5.8,0,11.5,1.9,15.6,6.2c4.5,4.7,2.6,19.5,10.4,20.7c0.3,0,0.6,0.1,0.9,0.1c0.7,0,1.3-0.1,1.9-0.1
			c0.8-0.1,1.6-0.3,2.4-0.7c1.5-0.8,2.4-2.2,3-3.7c0.7-1.8,1.1-3.7,1.4-5.5c0.3-2.1,0.5-4.2,0.5-6.4c0-1.7,0-3.3-0.1-5
			c-0.1-1.1-0.1-2.3,0.1-3.4c0.1-0.2,0.1-0.3,0.1-0.6c0-0.4,0.1-0.8-0.1-1.1c-0.2-0.3-0.4-0.5-0.6-0.8c-0.9-1.4-2-2.8-3-4.1
			c-1-1.3-2.1-2.6-3.2-3.9c-1.1-1.2-2.3-2.4-3.5-3.5s-2.5-2.1-3.9-3c-1.4-0.9-2.8-1.7-4.3-2.4c-1.5-0.7-3.1-1.3-4.7-1.8
			c-1.6-0.5-3.3-0.9-4.9-1.3c-1.7-0.3-3.4-0.6-5.1-0.8c-1.7-0.2-3.5-0.3-5.2-0.4c-1.2-0.1-2.3-0.1-3.5-0.1c-0.6,0-1.2,0-1.8,0
			c-1.7,0-3.5,0.1-5.2,0.3c-1.7,0.2-3.5,0.4-5.2,0.6c-1.7,0.3-3.4,0.6-5.1,1s-3.3,0.9-5,1.4c-1.6,0.5-3.2,1.1-4.7,1.8
			c-1.5,0.7-3,1.4-4.4,2.2c-1.3,0.8-2.7,1.7-3.9,2.6c-1.2,0.9-2.3,1.9-3.4,2.9c-1.1,1-2.1,2.1-3,3.2c-0.9,1.1-1.8,2.2-2.7,3.3
			c-0.4,0.5-0.9,1.1-1.3,1.6c-11.6,21.1-9.7,59.9,3,77.9c25.5,35.9,72.2,49.3,72.9,97.5c0.2,15.5-4.9,28-16.8,32.1
			c-1.9,0.7-4,1-5.9,1.4c-2.1,0.4-4.2,0.8-6.3,1c-1.5,0.1-3,0.2-4.5,0.2c-0.7,0-1.4,0-2.1,0c-2.2-0.1-4.3-0.3-6.5-0.7
			c-2-0.3-4-0.8-5.9-1.5c-1.7-0.6-3.4-1.3-5-2.2c-1.4-0.8-2.7-1.8-3.7-3c-1-1.1-1.6-2.5-1.8-4c-0.2-1.7,0.1-3.4,0.7-5
			c0.7-2,1.7-3.9,2.7-5.7c0.2-0.4,0.5-1.2,0.8-1.4c0.4-0.3,0.7-0.6,1-0.8c0.3-0.2,0.8-0.4,1.2-0.4c0.1,0,0.2,0,0.3,0
			c0.2,0,0.4,0,0.5,0c0.6,0.1,1.2,0.4,1.8,0.6c0.6,0.2,1.1,0.4,1.7,0.6c1.1,0.4,2.1,0.9,3.2,1.3c2.2,1,4.5,1.8,6.9,2.1
			c0.7,0.1,1.4,0.1,2.1,0.1c0.1,0,0.2,0,0.3,0c0.4,0,0.9,0,1.3-0.1c0.2,0,1.3,0,1.4-0.1c10.9-18.3-5.8-43.3-21.9-46.9
			c-2.5-0.6-4.9-0.8-7.3-0.8c-18.5,0-32.1,16.1-35.4,29.3C1475.1,397.4,1491.6,424.3,1507.6,432.4z"/>
		<path class="st0" d="M2173.6,240.6c1.8-5.1,10.6-13.5,9-19.3c-0.1-0.3-0.2-0.5-0.3-0.8c-0.5-1.1-1.1-2-2-2.8
			c-1-0.8-2.1-1.4-3.2-1.8c-1.3-0.5-2.7-0.9-4.1-1c-1.5-0.2-3.1-0.3-4.6-0.3c-0.3,0-0.7,0-1,0c-1.3,0-2.6,0.1-4,0.2
			c-1.6,0.2-3.2,0.5-4.8,0.8c-1.5,0.3-3.1,0.5-4.6,1c-1.2,0.4-2.4,1-3.6,1.4c-1.1,0.3-2.5,0.5-3.2,1.6c-1.1,1.8,0.2,4.2,0.3,6
			c0.1,1.5,0.3,3,0.4,4.6c0.2,3.3,0.4,6.6,0.5,9.9c0.1,3.6,0.2,7.3,0.2,10.9c0,3.9,0,7.7-0.1,11.6c-0.1,4-0.2,8-0.4,12
			s-0.4,8-0.7,12.1c-0.3,3.9-0.6,7.9-1,11.8c-0.4,3.8-0.8,7.6-1.3,11.3c-0.5,3.5-1,7.1-1.6,10.6c-0.3,1.6-0.5,3.1-0.9,4.7
			c-0.4,2-0.7,4.1-1.3,6.1c-0.4,1.2-1.1,2.2-0.8,3.5c0.1,0.4,0.2,1.3-0.3,1.3c0,0-0.1,0-0.2,0c-0.6-0.1-0.7-1-0.8-1.5
			c-0.1-0.6-0.1-1.3-0.4-1.9c-0.3-0.7-0.5-1.4-0.8-2.1c-0.9-2.4-1.6-4.9-2.3-7.4c-0.8-2.8-1.7-5.5-2.4-8.3c-0.8-3-1.7-6-2.5-9
			c-0.8-3.1-1.6-6.3-2.4-9.5c-0.8-3.2-1.5-6.5-2.2-9.7c-0.7-3.3-1.4-6.5-1.9-9.8c-0.6-3.2-1.1-6.4-1.6-9.6c-0.4-3-0.8-6.1-1-9.1
			c-0.3-2.8-0.4-5.6-0.4-8.5c0-2.5,0.1-5.1,0.3-7.6c0.2-1.7,0.6-3.4,1.2-5c0.5-1.6,1.2-3.2,1.8-4.8c0.6-1.5,1.1-3.1,1.5-4.7
			c0.3-1.5,0.3-3.1,0.1-4.7c-0.2-1.7-0.8-3.1-2.2-4.1c-0.1-0.1-0.3-0.3-0.4-0.3c-2.3-0.7-4.8-0.8-7.2-1.1c-2.6-0.3-5.2-0.5-7.8-0.6
			c-1.9-0.1-3.9-0.2-5.8-0.2c-0.7,0-1.4,0-2.1,0c-2.5,0-5,0.2-7.4,0.5c-2.1,0.3-4.1,0.7-6.1,1.4c-0.1,0-0.5,0.1-0.6,0.2
			c-6.2,7.5,2,15,2.8,23.8c0,0.5,0.1,0.9,0.1,1.4c0.1,2.1,0.2,4.1,0.2,6.2c0,2.4-0.1,4.7-0.3,7.1c-0.2,2.6-0.4,5.2-0.6,7.7
			c-0.3,2.7-0.6,5.5-0.9,8.2c-0.4,2.8-0.7,5.6-1.1,8.5c-0.4,2.8-0.8,5.7-1.3,8.5c-0.4,2.8-0.9,5.6-1.4,8.4c-0.5,2.7-1,5.4-1.4,8.1
			c-0.4,2.5-0.8,5-1.3,7.5c-0.2,1.2-0.5,2.4-0.7,3.6s-0.4,2.4-0.8,3.6c-0.1,0.5-0.1,0.9-0.2,1.4s-0.1,0.9-0.3,1.4
			c-0.1,0.4-0.2,0.8-0.4,1.2c-0.2,0.4-0.5,0.6-0.5,1.2c0,0.5,0,0.9,0,1.4s0.2,0.7,0.2,1.2c0,0.4,0.1,0.9,0,1.3
			c-0.4-0.2-0.6-0.4-0.9-0.8s-0.1-1-0.1-1.5s0-1.1,0-1.6c0-0.3-0.1-0.5-0.2-0.8c0-0.2,0-0.5,0-0.8s-0.1-0.4-0.2-0.7
			c-0.1-0.2,0-0.5-0.1-0.7c-0.1-0.4-0.4-0.7-0.6-1.1c-0.2-0.6,0-1.5,0-2.1c0-2.5-0.5-4.9-1-7.3c-0.5-2.6-0.9-5.2-1.3-7.7
			c-0.5-2.7-0.9-5.4-1.3-8.1c-0.5-2.8-0.9-5.6-1.3-8.4c-0.4-2.8-0.8-5.7-1.2-8.5s-0.7-5.6-1-8.4c-0.3-2.7-0.5-5.5-0.7-8.2
			c-0.2-2.6-0.3-5.2-0.4-7.8c-0.1-2.4-0.1-4.8,0-7.2c0.1-2.1,0.2-4.3,0.5-6.4c0.2-1.9,0.7-3.8,1.2-5.7c0.9-3.3,2-6.6,2.4-10
			c0.2-1.6,0.2-3.3,0-4.9c-0.2-1.3-0.6-2.9-1.5-4c-0.1-0.1-0.3-0.1-0.3-0.2c-0.1-0.1,0-0.2,0-0.3c0-0.2-0.2-0.3-0.3-0.4
			s-1-0.1-1.2-0.2c-1.6-0.2-3.2-0.4-4.8-0.5c-1.5-0.1-2.9-0.2-4.4-0.2c-1.6,0-3.2-0.1-4.8-0.1c-0.6,0-1.3,0-1.9,0
			c-1.1,0-2.2,0-3.2,0.1c-1.7,0.1-3.3,0.2-5,0.4c-1.6,0.2-3.1,0.4-4.7,0.8c-1.4,0.3-2.8,0.8-4.2,1.3c-1.2,0.5-2.4,1.1-3.4,1.9
			c-1,0.7-1.8,1.7-2.3,2.7c-0.3,0.5-0.5,1.1-0.7,1.7c-0.2,0.6-0.4,1.2-0.5,1.8c-0.5,4.6,5.4,10.1,7.3,15.3c5.1,13.8,5,34.3,5.5,56.3
			c0.4,16.4,3.7,33.1,5.6,49.8c0.8,6.5-0.3,12.7,0.7,19.5c2.6,16.3,8.5,30,6.8,42.3c-0.3,1.9-0.8,3.9-1.5,5.7
			c-0.7,1.8-1.5,3.5-2.2,5.2c-0.7,1.6-1.3,3.3-1.7,5.1c-0.4,1.7-0.5,3.5-0.3,5.2c0.2,1.4,0.7,2.7,1.3,3.9c0.1,0.3,0.3,0.6,0.5,0.9
			c0.2,0.2,0.3,0.4,0.5,0.5c0.2,0.2,0.3,0.4,0.5,0.5s0.4,0.2,0.6,0.4c0.4,0.3,0.8,0.4,1.2,0.5c0.3,0.1,0.5,0.2,0.8,0.2
			c0.5,0,1.1,0.1,1.6,0.2c0.6,0,1.2,0.1,1.8,0.1c1.5,0.1,3,0.3,4.6,0.5c1.5,0.2,3,0.4,4.5,0.6s3,0.4,4.4,0.5s2.9,0.2,4.3,0.3
			c0.8,0,1.5,0,2.3,0c0.6,0,1.2,0,1.8,0c1.3,0,2.6-0.1,3.9-0.3c1.2-0.2,2.4-0.5,3.5-0.9s2-1,2.9-1.7s1.7-1.5,2.5-2.4
			c0.2-0.2,0.4-0.4,0.6-0.6c4.2-6,3.2-37.2,3.1-56.2c0-2.6,0-5.1,0-7.7s0.1-5.3,0.2-7.9c0.1-2.6,0.3-5.2,0.5-7.9
			c0.2-2.5,0.4-5,0.8-7.5c0.2-1.2,0.3-2.3,0.6-3.5c0.2-1.1,0.6-2.1,0.7-3.2c0-0.2,0-0.5,0-0.7s0.1-0.3,0.2-0.4c0.1-0.3,0-0.7,0-1
			c0.1-0.3,0.3-0.6,0.4-0.9c0.1-0.2,0.2-0.5,0.3-0.7c0.2-0.4,0.1-0.7,0.2-1c0.1-0.3,0.3-0.5,0.4-0.8c0-0.3,0-0.5,0.2-0.8
			c0.2-0.2,0.4-0.5,0.6-0.7c0.2,0.3,0.2,0.6,0.3,1c0.1,0.3,0,0.7,0,1c0,0.2,0.3,0.5,0.3,0.7c0.1,0.3,0.2,0.7,0.2,1
			c0.1,0.3,0.1,0.6,0.2,0.8c0.1,0.3,0.3,0.6,0.4,0.8c0.2,0.6,0.5,1.2,0.5,1.9c0,0.6,0.1,1.2,0.3,1.7c0.1,0.3,0.2,0.5,0.3,0.8
			c0.1,0.2,0,0.3,0,0.5s0.1,0.2,0.1,0.4c0.1,0.2,0,0.3,0,0.5s0.1,0.2,0.1,0.4c0.4,1.4,1,2.8,1.4,4.3c0.5,1.8,1,3.7,1.4,5.5
			c1,3.8,1.9,7.5,2.7,11.3c0.9,3.9,1.7,7.8,2.4,11.7c0.7,4,1.4,8,1.9,12s1,8.1,1.2,12.2c0,0.5,0.1,1,0.1,1.4
			c0.1,1.1,0.1,2.3,0.1,3.4c0,1.2-0.1,2.4-0.2,3.6s-0.2,2.4-0.4,3.6c-0.1,1.2-0.3,2.4-0.4,3.6s-0.2,2.4-0.3,3.6s-0.2,2.4-0.2,3.6
			s0,2.4,0,3.5c0.1,1.1,0.2,2.2,0.4,3.3c0.2,1.1,0.5,2.2,0.8,3.3c0.3,1,0.8,1.9,1.3,2.8c0.1,0.2,0.3,0.4,0.3,0.6
			c0.1,0.2,0.2,0.4,0.3,0.6c0.2,0.3,0.5,0.7,0.8,0.8c0.4,0.2,0.9,0.3,1.4,0.4c0.1,0,0.2,0,0.3,0c0.5,0,1.1-0.2,1.6-0.2l0,0
			c0.2,0,0.5,0.1,0.7,0.1h0.1c0.3,0,0.5,0,0.8-0.1c1.1-0.1,2.3-0.1,3.4-0.2c1.2-0.1,2.4-0.2,3.6-0.3c1.3-0.1,2.5-0.3,3.8-0.4
			s2.6-0.3,3.9-0.5c1.3-0.2,2.6-0.3,3.9-0.5s2.6-0.4,3.9-0.6c1.3-0.2,2.5-0.4,3.8-0.6c0.8-0.1,1.5-0.3,2.3-0.4
			c0.7-0.1,1.3-0.2,1.9-0.4c0.2-0.1,0.5-0.2,0.7-0.2l0,0l0,0c0.3,0,0.4-0.1,0.7-0.2c0.2-0.1,0.5-0.2,0.8-0.3c0.5-0.2,1-0.5,1.3-0.8
			c0.1-0.1,0.2-0.4,0.2-0.5c0.1-0.2,0.1-0.4,0.2-0.5c0.1-0.4,0.3-0.7,0.4-1.1c0.3-0.8,0.4-1.7,0.5-2.5c0.3-1.8,0.5-3.6,0.6-5.4
			c0.2-1.8,0.3-3.5,0.3-5.3s0-3.6,0-5.4s-0.1-3.6-0.3-5.4c-0.1-1.8-0.3-3.6-0.4-5.4c-0.2-1.8-0.3-3.7-0.5-5.5s-0.3-3.7-0.5-5.5
			c-0.2-1.9-0.3-3.7-0.4-5.6s-0.2-3.8-0.3-5.6c0-0.5,0-0.9,0-1.4c-0.3-20.7,7.2-52,10-77.7C2169.3,280.6,2168.6,255.1,2173.6,240.6z
			"/>
		<path class="st0" d="M1749.2,248.3c0.1,0,0.1-0.3,0.2-0.3c0.1-0.1,0.1-0.2,0.2-0.3c0.1-0.2,0.2-0.4,0.3-0.7
			c0.2-0.5,0.4-0.9,0.5-1.4c0.3-1.1,0.3-2.2,0.3-3.3s-0.1-2.3-0.2-3.4c-0.1-1.1-0.3-2.2-0.6-3.3c-0.3-1.1-0.6-2.2-1-3.2
			c-0.4-1-0.8-2-1.3-3s-1-1.9-1.6-2.8c-0.6-0.9-1.2-1.7-1.9-2.5c-0.6-0.7-1.3-1.4-2-2.1c-0.7-0.6-1.4-1.1-2.2-1.6
			c-0.2-0.1-0.3-0.2-0.5-0.3c-2.7-1.4-5.1-1.8-7.6-1.8s-5.2,0.4-8.6,0.5c-0.6,0-1.2,0-1.7,0c-1.2,0-2.4,0.1-3.7,0.1
			c-1.3,0.1-2.5,0.1-3.8,0.2c-1.3,0.1-2.6,0.1-3.8,0.2c-1.3,0.1-2.6,0.2-3.9,0.2c-1.3,0.1-2.6,0.2-3.9,0.3s-2.7,0.2-4,0.3
			s-2.7,0.2-4,0.3s-2.7,0.2-4,0.3s-2.7,0.2-4,0.3s-2.7,0.2-4,0.3s-2.6,0.2-4,0.3c-1.3,0.1-2.6,0.2-3.9,0.2c-1.3,0.1-2.6,0.1-3.9,0.2
			c-1.2,0.1-2.5,0.1-3.8,0.2c-1.2,0-2.5,0.1-3.7,0.1s-2.4,0-3.6,0.1c-0.4,0-0.8,0-1.2,0c-0.8,0-1.5,0-2.3,0c-1.1,0-2.2,0-3.4-0.1
			c-1,0-2.1-0.1-3.1-0.2c-0.5,0-1,0-1.5,0c-0.1,0-0.1,0-0.2,0c-0.3,0-0.6,0-0.9,0c-0.2,0-0.3,0-0.5,0l0,0c-0.1,0-0.2,0-0.3,0
			s-0.1,0-0.2,0c-0.1,0.1-0.3,0.1-0.4,0.2c-0.1,0.1-0.3,0.1-0.4,0.2c-0.1,0.1-0.3,0.2-0.4,0.3c-0.2,0.1-0.3,0.3-0.5,0.5
			c-0.7,0.6-1.4,1.3-2.1,1.9c-0.7,0.7-1.3,1.4-1.9,2.2c-0.6,0.8-1.2,1.6-1.8,2.4c-0.6,0.9-1.1,1.8-1.6,2.7c-0.5,1-0.9,1.9-1.4,2.9
			c-0.4,1-0.8,2-1.1,3.1c-0.3,1.1-0.6,2.1-0.7,3.2c-0.2,1.1-0.3,2.2-0.3,3.3s0,2.3,0.1,3.4c0,0.4,0.1,0.8,0.1,1.3
			c0,0.3-0.2,0.7-0.1,1c0,0.1,0.1,0.2,0.1,0.3s0.1,0.2,0.1,0.4c0.1,0.2,0.2,0.4,0.4,0.5c0.1,0.1,0.3,0.1,0.4,0.1l0,0l0,0
			c0.3,0,0.6,0.1,0.9,0.1s0.6,0.1,0.9,0.1c0.5,0.1,1.1,0.1,1.6,0.1c0.1,0,0.1,0,0.2,0c1.2,0,2.5-0.2,3.7-0.4
			c1.2-0.2,2.5-0.5,3.7-0.8c1.3-0.3,2.5-0.7,3.8-1c1.3-0.4,2.5-0.8,3.8-1.1c1.3-0.4,2.6-0.7,3.8-1.1c1.3-0.3,2.6-0.7,3.9-0.9
			c1.3-0.2,2.6-0.4,4-0.5c0.9-0.1,1.7-0.1,2.6-0.1c0.5,0,1,0,1.4,0c1.4,0.1,2.7,0.3,4.1,0.7c0.3,0.1,0.7,0.1,1,0.2
			c4,19.7,2.5,48.8,3.1,69.2c0.4,13.3-1.8,26.6-1.8,40c0.1,15.5,4.7,31.2,2.4,46.5c-1.1,7.8-11.6,22.9-8.1,30.1
			c0.1,0.2,0.4,0.5,0.5,0.7c0.2,0.2,0.4,0.5,0.5,0.7c0.4,0.4,0.8,0.9,1.2,1.3c0.4,0.4,0.9,0.8,1.4,1.1c0.5,0.4,1.1,0.7,1.7,1
			c0.6,0.3,1.3,0.6,2,0.8c0.7,0.2,1.5,0.5,2.2,0.6c0.8,0.2,1.6,0.4,2.4,0.5s1.7,0.3,2.5,0.4c0.9,0.1,1.7,0.2,2.6,0.2
			c0.9,0.1,1.7,0.1,2.6,0.1c0.4,0,0.8,0,1.2,0c0.5,0,0.9,0,1.4,0c0.9,0,1.8-0.1,2.6-0.1c0.9-0.1,1.7-0.1,2.6-0.2
			c0.9-0.1,1.7-0.2,2.6-0.3c0.8-0.1,1.6-0.2,2.5-0.4c0.8-0.1,1.5-0.3,2.3-0.5c0.7-0.2,1.4-0.4,2.1-0.6c0.6-0.2,1.2-0.4,1.8-0.7
			c0.6-0.3,1.1-0.5,1.6-0.8s1-0.6,1.5-0.9c0.1-0.1,0.2-0.2,0.3-0.2l0.3-0.2c0.2,0,0.3-0.2,0.4-0.3c0.1-0.1,0.3-0.2,0.3-0.4
			c0-0.2,0-0.5,0-0.6c-0.1-0.2-0.2-0.3-0.3-0.4c-0.1-0.2-0.2-0.3-0.3-0.5c0-0.2-0.1-0.4-0.2-0.5c-0.1-0.2-0.1-0.3-0.2-0.5
			c-0.1-0.2-0.1-0.4-0.2-0.6c-0.1-0.2-0.1-0.4-0.2-0.6c-0.1-0.4-0.3-0.8-0.4-1.3c-0.3-0.8-0.5-1.7-0.7-2.5s-0.5-1.7-0.7-2.5
			c-0.2-0.9-0.5-1.7-0.7-2.6s-0.4-1.7-0.6-2.6s-0.4-1.8-0.6-2.6c-0.2-0.9-0.4-1.8-0.5-2.7c-0.2-0.9-0.3-1.8-0.5-2.7
			c-0.1-0.9-0.3-1.9-0.4-2.8c-0.1-0.9-0.2-1.9-0.3-2.9s-0.2-1.9-0.3-2.9s-0.2-2-0.2-2.9c-0.1-1-0.1-2-0.2-3c-0.1-1-0.1-2-0.2-3
			c0-1-0.1-2-0.1-3.1c0-1-0.1-2.1-0.1-3.1s-0.1-2.1-0.1-3.1c0-1.1,0-2.1-0.1-3.1c0-1,0-2.1,0-3.2s0-2.1,0-3.2s0-2.1,0-3.2
			s0-2.1,0-3.2s0-2.2,0-3.2c0-1.1,0-2.2,0-3.3c0-1.1,0-2.2,0-3.3c0-1.1,0-2.2,0-3.3c0-1.1,0-2.2,0.1-3.3c0-1.1,0-2.2,0.1-3.3
			c0-1.1,0-2.2,0.1-3.3c0-1.1,0-2.2,0-3.3c0-1.1,0-2.2,0-3.3c0-1.1,0-2.2,0-3.3c0-1.1,0-2.2,0-3.3c0-1.1,0-2.2,0-3.3
			c0-1.1,0-2.2,0-3.3c0-1.1-0.1-2.2-0.1-3.3c0-1.1-0.1-2.2-0.1-3.3c0-1.1-0.1-2.2-0.1-3.3c0-1.1-0.1-2.2-0.1-3.3
			c-0.1-1.1-0.1-2.2-0.2-3.3c0-1.1-0.1-2.1-0.2-3.1c-1.5-21.7-3.5-42.1,0-60.5c1.5-0.6,3.1-1.1,4.7-1.5c1.5-0.4,3.1-0.5,4.7-0.6
			c0.7,0,1.5-0.1,2.3-0.1s1.5,0,2.3,0.1c1.5,0.1,3,0.3,4.5,0.5c1.5,0.2,3,0.5,4.4,0.8c1.5,0.3,2.9,0.6,4.4,1
			c1.4,0.4,2.8,0.7,4.3,1.1c1.4,0.3,2.8,0.6,4.2,0.9c1.4,0.3,2.7,0.5,4.1,0.7c0.7,0.1,1.3,0.1,2,0.1s1.4,0,2.2-0.1
			c0.2,0,0.3,0,0.5-0.1C1748.8,248.4,1749.1,248.4,1749.2,248.3z"/>
		<path class="st0" d="M1874.6,404.1c-18.8-25.8-24.3-60.2-32.9-96.8c14-7.7,30.8-17.7,34.2-37.2c0.1-0.6,0-1.2,0-1.8s0-1.2,0.1-1.8
			c0-1.3,0.1-2.5,0.1-3.8c0-1.2,0-2.5,0-3.7s-0.1-2.4-0.2-3.6c-0.1-1.2-0.2-2.3-0.4-3.5c-0.2-1.1-0.4-2.2-0.6-3.3s-0.5-2.1-0.9-3.1
			c-0.3-1-0.7-2-1.1-2.9c-0.4-0.9-0.9-1.8-1.4-2.7s-1.1-1.7-1.6-2.5c-0.6-0.8-1.2-1.6-1.9-2.3c-0.7-0.7-1.4-1.5-2.2-2.1
			c-0.8-0.7-1.5-1.3-2.4-2c-0.8-0.6-1.7-1.2-2.6-1.8c-0.9-0.6-1.8-1.1-2.8-1.6c-0.9-0.5-1.9-1-2.9-1.5s-2-0.9-3-1.4
			c-1-0.4-2.1-0.8-3.2-1.2c-1.1-0.4-2.2-0.8-3.3-1.1c-1.1-0.4-2.2-0.7-3.3-1c-1.2-0.3-2.3-0.6-3.4-0.9c-1.2-0.3-2.3-0.6-3.5-0.8
			c-1.2-0.3-2.4-0.5-3.6-0.7c-1.2-0.2-2.4-0.4-3.6-0.6s-2.5-0.4-3.7-0.5c-1.3-0.2-2.5-0.3-3.8-0.4s-2.5-0.2-3.8-0.3
			s-2.6-0.2-3.8-0.2c-1.3-0.1-2.6-0.1-3.9-0.1c-1.2,0-2.4,0-3.6,0c-0.1,0-0.2,0-0.2,0c-1.3,0-2.6,0-3.9,0.1c-1.3,0-2.6,0.1-3.9,0.1
			c-1.3,0.1-2.6,0.1-3.8,0.2c-1.3,0.1-2.6,0.2-3.8,0.3c-1.3,0.1-2.5,0.2-3.8,0.4c-1.2,0.1-2.5,0.3-3.7,0.4c-1.2,0.1-2.5,0.3-3.7,0.5
			c-1.2,0.2-2.4,0.3-3.7,0.5c-1.2,0.2-2.4,0.4-3.6,0.5c-1.2,0.2-2.4,0.4-3.6,0.6c-0.6,0.1-1.2,0.2-1.8,0.3c-0.3,0-0.6,0.1-0.9,0.1
			s-0.6,0-0.9,0.1s-0.6,0.5-0.8,0.8c-0.1,0.1-0.2,0.3-0.2,0.5c0,0.1,0,0.2,0,0.4c0,0.1,0,0.2-0.1,0.3c0,0.2-0.2,0.3-0.2,0.5
			c-0.2,0.5,0.1,1,0.2,1.5c0.1,0.6,0.2,1.3,0.3,1.9c0.3,1.3,0.7,2.5,1.3,3.7c0.6,1.2,1.1,2.4,1.7,3.6c0.6,1.2,1.2,2.4,1.7,3.6
			s1,2.5,1.3,3.8c4.7,21.4-0.8,44.9-0.1,69.2c0.4,15.1,2.8,29.7,2.5,43.3c-0.4,18.4,1.2,37.8-0.9,54c-0.3,1.9-0.7,3.7-1.3,5.5
			c-0.6,1.8-1.3,3.6-2,5.3c-0.7,1.7-1.4,3.4-2,5.2c-0.5,1.7-1,3.4-1.3,5.1c-0.2,1.7-0.2,3.5,0.1,5.2c0,0.2,0.1,0.5,0.2,0.7
			c0.2,0.4,0.4,0.8,0.6,1.3c0.2,0.4,0.3,0.9,0.6,1.2c0.3,0.3,0.6,0.6,1,0.7c0.8,0.4,1.8,0.6,2.6,0.7c0.5,0.1,1,0.1,1.5,0.2
			s1,0.2,1.5,0.3c0.6,0.1,1.2,0.1,1.8,0.2c1.2,0.2,2.5,0.3,3.7,0.5s2.5,0.3,3.7,0.4s2.4,0.2,3.7,0.3c1.2,0.1,2.4,0.1,3.6,0.1
			s2.4,0,3.6-0.1c1.1-0.1,2.3-0.2,3.4-0.3c1.1-0.1,2.2-0.3,3.2-0.6c1-0.2,2-0.5,2.9-0.9c0.9-0.3,1.7-0.8,2.5-1.3
			c0.7-0.5,1.4-1,2.1-1.6c0.2-0.1,0.3-0.3,0.5-0.4c1.7-10.5-5.8-16.1-8.2-26.1c-3.3-13.8-3.1-32.7-3.5-48.7c0-0.3,0-0.6,0-1
			c0-1.3-0.1-2.7-0.1-4c0-1.4-0.1-2.7-0.1-4.1s0-2.7,0-4.1c0-1.3,0-2.7,0-4s0.1-2.7,0.1-4c0.1-1.3,0.1-2.6,0.2-3.9
			c0.1-1.3,0.2-2.6,0.3-3.9s0.3-2.5,0.5-3.8c0.2-1.2,0.4-2.5,0.6-3.7c0.1-0.6,0.2-1.2,0.3-1.8c0.1-0.3,0.1-0.6,0.2-0.9
			c0.1-0.3,0.1-0.6,0.2-0.9c0.1-0.3,0.2-0.5,0.3-0.8c0.1-0.3,0.1-0.5,0.2-0.8c0.1-0.5,0.3-0.9,0.4-1.4c0.1-0.5,0.2-0.9,0.5-1.4
			c0.2-0.4,0.3-0.9,0.4-1.4c0.1-0.5,0.3-0.8,0.5-1.2c0.2-0.4,0.3-1,0.6-1.3c0.3-0.3,0.9-0.5,1.3-0.6c0.5-0.1,1-0.2,1.5-0.4
			c0.2-0.1,0.5-0.2,0.7-0.3c0.3-0.1,0.6-0.1,0.9-0.1c0.9-0.1,1.7-0.2,2.6-0.2c0.3,0,0.6,0,0.8,0c1,0.1,1.9,0.2,2.8,0.6
			c0.8,0.3,1.5,0.9,2.1,1.5c0.6,0.7,1.1,1.4,1.6,2.2c0.5,0.9,0.9,1.8,1.3,2.7c0.4,1,0.8,2,1.1,3c0.3,1.1,0.6,2.3,0.9,3.4
			c0.3,1.2,0.5,2.4,0.8,3.6s0.6,2.4,0.9,3.7c0.3,1.2,0.6,2.4,1,3.6c7.6,25.2,18,59.3,20.2,81.4c0.6,6.2-0.8,11.3,0.8,15.1
			c2.9,7,7.4,8.8,13,8.8c5.3,0,11.6-1.6,18.3-1.8c0.2,0,0.4,0,0.6,0c4,0,8.3,1,12.1,1c3.7,0,7-1,9-5
			C1895.4,419.8,1882,414.3,1874.6,404.1z M1837,263.2c0,0.3,0,0.6,0,0.8c0,0.2-0.1,0.5-0.2,0.7c-0.3,1-0.6,2-1,2.9
			c-0.4,0.9-1,1.8-1.7,2.6c-0.7,0.8-1.5,1.6-2.4,2.2c-0.9,0.7-1.9,1.3-2.9,1.9c-1.1,0.6-2.2,1.2-3.3,1.7c-1.2,0.5-2.4,1-3.6,1.5
			s-2.5,0.9-3.7,1.3c-1.3,0.4-2.5,0.8-3.8,1.1c-1.3,0.4-2.6,0.7-3.8,1.1c-0.7,0.2-1.3,0.4-2,0.6c-0.6,0.2-1.3,0.3-1.9,0.6
			c-0.5,0.2-1,0.6-1.5,0.6c-0.2,0-0.4,0-0.6,0c-0.1,0-0.2,0-0.3,0c-0.3-0.1-0.2-0.4-0.2-0.6s-0.2-0.5-0.2-0.8
			c-0.3-1.1-0.6-2.2-0.9-3.3c-0.3-1.2-0.6-2.3-0.8-3.5c-0.3-1.2-0.5-2.5-0.7-3.7c-0.2-1.3-0.4-2.6-0.5-3.9c-0.1-1.4-0.3-2.7-0.4-4.1
			c-0.1-1.4-0.1-2.8-0.2-4.1c0-1.4,0-2.8,0-4.1c0.1-1.4,0.1-2.7,0.2-4.1c0.1-1.3,0.3-2.6,0.5-3.9c0.1-0.6,0.3-1.2,0.3-1.8
			c0-0.5,0-1,0.2-1.5c0.2-0.4,0.6-0.6,1-0.7c0.4-0.2,0.9-0.3,1.4-0.4c0.5-0.1,1-0.4,1.5-0.4s1-0.1,1.5-0.1c0.6-0.1,1.1-0.3,1.7-0.4
			c0.4,0,0.7-0.1,1.1-0.1c0.1,0,0.3,0,0.4,0c0.6,0.1,1.2,0.1,1.8,0.1l0,0c0.7,0,1.4-0.1,2-0.1l0,0c0.3,0,0.7,0.1,1,0.1
			c0.3,0.1,0.7,0.1,1,0.2c0.7,0.1,1.3,0.2,2,0.3c1.3,0.2,2.6,0.5,3.8,0.9s2.3,0.8,3.4,1.4c1.1,0.5,2.1,1.1,3.1,1.8
			c0.9,0.7,1.8,1.4,2.7,2.2c0.8,0.8,1.6,1.6,2.3,2.5s1.3,1.8,1.9,2.7c0.5,0.9,0.9,1.9,1.2,3s0.5,2.1,0.5,3.2
			C1837.1,260.9,1837.1,262.1,1837,263.2z"/>
		<path class="st0" d="M2009.8,396.7c-5.3-15-8.4-32.6-8.9-51c0-0.9-0.1-1.9-0.1-2.8c-0.2-8.3-0.5-16.7-0.8-25
			c-0.3-8.6-0.6-17.3-0.9-25.9s-0.4-17.1-0.5-25.7c-0.1-2.8,0-5.5,0-8.3c0-4.9,0.4-9.9,0.1-14.8c-0.1-1.6-0.8-3-0.8-4.6
			c-0.1-2.5-0.2-5,0-7.4c0.2-2.5,1.1-4.7,1.9-7.1c0.7-2,1.3-4.2,0.2-6.2c-1-1.9-3.3-2.7-5.3-3.1c-2.4-0.5-5-0.7-7.6-0.7
			c-2.1,0-4.2,0.2-6.2,0.5c-4.2,0.7-8.3,2.2-12.5,3c-3,0.5-6.1,0.9-9.2,1.2c-0.9,0.1-1.8,0.1-2.7,0.1c-0.5,0-1,0-1.5,0
			c-1.3,0-2.6,0-3.8,0.2c-0.4,0.1-0.7,0.1-1.1,0.1c-1,0-2-0.1-3-0.1c-0.3,0-0.6,0-0.9,0c-5,0.5-9.9,1.1-14.9,1.9
			c-0.7,0.1-1.5,0.1-2.2,0.1c-1.1,0-2.3-0.1-3.5-0.1h-0.1c-3.9,0-6.6,0.7-8.8,4.1c-1.8,2.8-2.6,7-1.1,10.1c0.9,1.7,1.6,3.1,1.5,5
			c-0.1,1.7-0.6,3.5-0.3,5.2c0.2,1,0.7,2,0.9,3c0.3,1.7,0.2,3.6,0.2,5.3c0,3.8,0,7.6-0.2,11.3c-0.3,7.4-0.9,14.8-2.3,22.1
			c-3.4-1-6.4-5.3-10.2-5.3c-0.9,0-1.8,0.2-2.7,0.8c-14.4,13.3-3.7,43.1,12.2,46.7c-6.7,21.1,1.8,55.3-6.8,81
			c-2.2,6.5-9.8,10.8-9,19.3c0.9,9,6.2,10.7,12.6,10.7c3.6,0,7.6-0.5,11.3-0.5c0.3,0,0.5,0,0.8,0c4.8,0.1,9.3,1.9,13,1.9
			c2.5,0,4.7-0.9,6.5-3.8c5-8.3-5.3-19.5-6-28.2c-0.5-5.5-0.4-11.1-0.2-16.6c0.3-5.7,0.9-11.3,1.6-17s1.6-11.5,2.4-17.2
			s1.6-11.3,2.2-17c0.3-2.8,0.5-5.6,0.7-8.4c0.1-1.4,0.2-2.7,0.2-4.1c0-1.2-0.2-2.3-0.2-3.5c0-0.8,0-1.5,0-2.3c0-1.3,0.5-2.5,1-3.6
			c0.1-0.2,0.3-0.6,0.4-0.8c0.2-0.3,0.2-0.6,0.4-0.9c0.2-0.5,0.6-0.9,1-1.3c0.4-0.5,0.7-1,1.1-1.5c2.5-2.9,5.1-6.1,9.1-6.9
			c0.8-0.2,1.5-0.2,2.3-0.2c0.5,0,0.9,0,1.4,0.1c16.8,1.6,12.2,29.5,14.2,52.1c1.5,16.6,5.7,31.3,5.7,43.3c0.1,13.2-9.7,22.1-7,31.2
			c1.4,4.9,4.5,6.5,8.1,6.5c5.7,0,13-3.8,17.8-3.8l0,0c5.1,0,8.2,3.7,13.2,3.7c1.5,0,3.2-0.3,5.1-1.2
			C2026,426.8,2014.9,411,2009.8,396.7z M1966.4,278.1c-0.2,0.2-0.5,0.2-0.8,0.2c-0.6,0-1.3-0.2-1.7-0.4c-0.8-0.3-1.5-0.5-2.3-0.6
			c-1.5-0.2-3.1-0.3-4.7-0.3c-1,0-2,0-3,0.1c-0.6,0-1.3,0.1-1.9,0.1c-0.3,0-0.6,0.1-0.9,0.1s-0.5,0-0.8-0.1s-0.6-0.2-0.8-0.2
			c-0.8,0-1.4,0.4-2.3,0.7c-0.1,0-0.4,0.1-0.6,0.1c-0.4,0-0.8-0.1-0.9-0.2c-0.2-0.3,0-1.2,0.1-1.6c0.2-2,0.1-4.1,0.1-6.2
			c0-4.7,0.1-9.4,0.5-14.1c0.2-2.1,0.5-4.2,1-6.3c0.2-1,0.5-1.9,0.8-2.8s0.5-1.8,1.1-2.6c0.2-0.3,0.5-0.5,0.7-0.7
			c0.2-0.3,0.5-0.3,0.7-0.3c0.1,0,0.2,0,0.4,0c0.2,0,0.3,0,0.5,0c0.1,0,0.2,0,0.2,0c0.2,0,0.4,0.2,0.6,0.2l0,0
			c0.2,0,0.4-0.1,0.6-0.1c0.5,0,0.9-0.1,1.4-0.1c0.6,0,1.2,0,1.8,0c0.9,0,1.9,0,2.8,0.2c0.8,0.1,1.5,0.3,2.2,0.5
			c0.4,0.1,0.8,0.3,1.2,0.4c0.1,0.1,1.2,0.4,1.2,0.5c0.3,2.5,0.4,5.1,0.6,7.6c0.3,4.6,0.5,9.2,0.9,13.8c0.2,2.3,0.4,4.5,0.6,6.7
			c0.1,1.1,0.3,2.2,0.4,3.2C1966.2,276.5,1967,277.6,1966.4,278.1z"/>
		<path class="st0" d="M1024,255.5c3.7-7.4-2.9-26-11.4-29.4c-4.4-1.7-12.8-2.3-22.4-2.3c-16.7,0-37.2,1.8-46.8,2.2
			c-0.4,0-0.9,0-1.3,0c-5.9,0-13-1.7-17.8-1.7c-0.9,0-1.7,0.1-2.5,0.2c-11.4,2.2-18.6,22.1-11.4,31.2c10-1.6,18.3-8.5,29.5-8.5
			c2.9,0,6.1,0.5,9.5,1.6c2.7,26.3,1.6,57.7-1.4,80c-3.2,24.5,2.8,45.3,4.3,67.1c0.4,6.2,0.1,12.4-0.7,18.6
			c-0.6,5.1-1.5,10.1-1.6,15.3c0,2.2-1.5,6.8,1,8.1c0.6,0.3,1.4,0.8,2,0.9c0.2,0,0.3,0,0.4,0c0.2,0,0.5,0,0.7,0c0.1,0,0.2,0,0.3,0
			c2.5,0.3,5,0.3,7.5,0.6c2.7,0.4,5.4,0.6,8.1,0.8c1.7,0.1,3.5,0.2,5.3,0.2c3.2,0,6.3-0.3,9.2-1.4c2-0.7,3.8-1.8,4.8-3.7
			c3.4-5.8-2-10.3-3-15.2c-4.2-21.8-1.3-47.2-2-72.5c-1-34.4-9.7-69.8-4.8-98.4c3.8-2.1,7.4-3,11-3c11.9,0,22.8,9.1,32.9,9.1
			C1023.8,255.5,1023.9,255.5,1024,255.5z"/>
		<path class="st0" d="M482.2,405.7c0.6,1.7,1.3,3.4,2.1,5c0.8,1.7,1.7,3.3,2.6,4.8c1,1.6,2,3.1,3,4.6c1.1,1.5,2.2,3,3.4,4.4
			c1.2,1.4,2.4,2.8,3.7,4.1c1.3,1.3,2.6,2.6,3.9,3.7c1.3,1.2,2.7,2.3,4.2,3.3c1.4,1,2.9,2,4.4,2.8c1.5,0.9,3.1,1.6,4.7,2.3
			c1.6,0.7,3.2,1.3,4.9,1.8s3.4,1,5.1,1.3c1.7,0.4,3.5,0.7,5.3,1s3.6,0.5,5.4,0.7c0.4,0,0.9,0.1,1.3,0.2c0.4,0,0.9,0.1,1.3,0.1
			c20.3-0.1,36.7-12.2,52.2-19.6c14.7-12.4,18.2-26.8,17.1-50.5c-2.1-45.5-15.8-59.6-40.7-85c-7-7.1-13.5-16.7-22.3-25.2
			c-11.4-11-22.8-20.7-19.8-39.1c3.9-8.9,14.4-13,25.3-13c7.1,0,14.4,1.8,20.2,5.1c5,5.8,1.7,15,9.5,16.4c0.5,0.1,1,0.1,1.5,0.1
			c7.8,0,11.9-11.1,9.6-21.6c-1.3-5.8-10.5-16.9-16.9-20.8c-6.9-4.2-20.2-7.1-33-7.1c-9.1,0-18,1.5-24.2,5.1
			c-9.5,5.5-21.3,26.4-24.4,38.5c-7.8,29.7,3,49.1,14,65.1c12.6,18.4,24.4,26.2,41.5,38.5c7.7,5.6,15.5,9.9,21.3,17.7
			c17.5,23.2,8.5,72.1-21.8,75.3c-1.1,0.1-2.2,0.2-3.3,0.2c-18.8,0-32.7-17-18.9-34.1c0.1-0.1,0.6-0.2,0.7-0.3
			c0.2-0.1,0.5-0.1,0.7-0.2c0.2,0,0.5-0.1,0.7-0.1c0.3,0,0.5,0,0.8,0.1c1,0.1,1.9,0.5,2.8,1c0.9,0.5,1.9,1,2.8,1.5
			c0.9,0.5,1.9,1,3,1.3c0.6,0.2,1.2,0.3,1.8,0.3c0.5,0,1-0.1,1.5-0.2c0.1,0,0.3-0.1,0.4-0.1h0.1h0.1h0.1c0.2,0,0.3-0.1,0.5-0.2
			c0.3-0.1,0.5-0.3,0.8-0.5s0.5-0.4,0.6-0.7c0.1-0.2,0.1-0.4,0.1-0.6s0.1-0.4,0.1-0.6c0.1-0.4,0.1-0.8,0.2-1.2
			c0.1-0.8,0.2-1.6,0.3-2.4c0.2-1.6,0.4-3.1,0.5-4.7c0.1-1.5,0.1-3,0-4.5c-0.1-1.4-0.3-2.8-0.6-4.1c-0.3-1.3-0.7-2.5-1.2-3.8
			c-0.5-1.2-1.1-2.3-1.8-3.3s-1.5-2-2.4-2.9s-1.8-1.8-2.8-2.6c-1-0.8-2-1.5-3.1-2.2s-2.2-1.3-3.4-1.9s-2.4-1.1-3.6-1.6
			s-2.5-0.9-3.8-1.3s-2.6-0.7-3.9-0.9c-1.3-0.3-2.7-0.4-4-0.5c-1-0.1-2-0.1-3-0.1c-0.4,0-0.7,0-1,0c-1.4,0-2.7,0.2-4.1,0.4
			c-1.3,0.2-2.7,0.5-4,0.8s-2.6,0.8-3.9,1.2c-1.3,0.5-2.5,1-3.8,1.6c-0.5,0.2-1.1,0.5-1.6,0.8c-0.2,0.1-0.4,0.2-0.5,0.3
			c-0.2,0.1-0.4,0.2-0.7,0.3c-0.3,0.1-0.6,0.3-0.9,0.5c-0.6,0.3-1.1,0.7-1.6,1.2c-0.4,0.4-0.6,1-1,1.5c-0.1,0.1-0.1,0.2-0.2,0.4
			c0,0.2-0.1,0.3-0.2,0.5c-0.1,0.3-0.3,0.5-0.5,0.8c-0.1,0.2-0.2,0.4-0.3,0.5c-0.1,0.2-0.2,0.3-0.3,0.5s-0.2,0.4-0.2,0.6
			c-0.2,1-0.6,2-0.9,3s-0.6,2-0.9,3c-0.5,2-1.1,4-1.5,6s-0.8,3.9-1.1,5.9c-0.3,1.9-0.5,3.8-0.5,5.7c-0.1,1.9,0,3.7,0.1,5.6
			c0.2,1.8,0.4,3.6,0.8,5.4C481.1,402.3,481.6,404,482.2,405.7z"/>
		<path class="st0" d="M737.5,443.5c1.3-0.3,2.7-0.6,4-0.9c1.2-0.3,2.3-0.7,3.4-1.1c1-0.4,1.9-0.8,2.9-1.2c0.2-0.1,0.4-0.2,0.7-0.3
			c1.6-7.9-4.6-16.6-5-22.8c-3.7-52.3-8.9-109.6-14.5-164.6c3.5-6.2,9.8-9.3,6.8-16.1c-1.9-4.2-5.8-4.5-11.1-4.5c-0.8,0-1.7,0-2.6,0
			c-1.8,0-3.7,0-5.7-0.2c-14.3-1.2-37.6-6.5-51.8-6.5c-3.5,0-6.5,0.3-8.7,1.2l0,0c-1,0-1.3,0.9-2.1,1.1c-5.1,5.2,1.1,11.3,1.9,18.4
			c1.8,16.7-3.6,37.8-5.2,52.9c-0.2,0-0.3,0-0.5,0c-1.1-0.1-2.2-0.5-3.1-1.1c-0.8-0.6-1.5-1.3-2.2-1.9c-0.7-0.7-1.4-1.4-2.3-1.9
			c-1-0.6-2.1-0.9-3.2-1c-0.2,0-0.5-0.1-0.7-0.1c-0.1,0-0.3,0-0.4,0c-0.3,0-0.5,0.2-0.8,0.3c-0.3,0.1-0.7,0.1-1,0.1s-0.9,0.2-1,0.4
			c0,0,0,0.1-0.1,0.2c0,0-0.1,0-0.2,0.1c-0.1,0.1-0.2,0.4-0.3,0.6c-0.7,1.7-1.5,3.3-2,5.1c-0.6,1.8-0.9,3.7-1,5.6
			c-0.1,1.8,0,3.7,0.3,5.5c0.3,1.9,0.9,3.7,1.8,5.5c0.5,0.9,1,1.8,1.5,2.7c0.6,0.9,1.2,1.8,1.8,2.6c3.8,4.8,13.3,6.6,14.9,12.1
			c3.5,11.8-2.6,28.6-3.9,41c-0.2,1.4-0.3,2.8-0.5,4.2c-0.2,1.4-0.4,2.8-0.5,4.1c-0.2,1.4-0.4,2.7-0.5,4.1c-0.2,1.3-0.4,2.7-0.6,4
			c-0.2,1.3-0.4,2.7-0.6,4s-0.4,2.6-0.6,3.9c-0.2,1.3-0.4,2.6-0.7,3.9c-0.2,1.3-0.4,2.6-0.7,3.9c-0.2,1.3-0.5,2.6-0.7,3.9
			c-0.1,0.6-0.2,1.3-0.4,1.9c-0.1,0.4-0.3,0.9-0.4,1.3c-0.3,0.9-0.7,1.8-1.3,2.5c-0.5,0.7-1.1,1.2-1.7,1.9c-0.6,0.7-1.1,1.4-1.7,2.1
			c-0.6,0.7-1.1,1.3-1.7,2c-1.1,1.4-2.1,2.9-3,4.4c-0.8,1.6-1.5,3.2-1.9,4.9c-0.4,1.7-0.3,3.3-0.2,5c0,0.1,0.2,0.4,0.3,0.5
			c0.1,0.2,0.2,0.3,0.3,0.5c0.2,0.3,0.4,0.6,0.6,0.8c0.4,0.5,0.8,1,1.4,1.4c1,0.7,2.1,1.1,3.2,1.4c1.2,0.4,2.4,0.8,3.6,1.2
			c1.3,0.4,2.7,0.7,4.1,0.9c1.4,0.2,2.9,0.4,4.3,0.5c1.5,0.1,2.9,0.3,4.4,0.3c0.1,0,0.3,0,0.4,0c1.3,0,2.6-0.1,3.9-0.2
			c1.4-0.1,2.7-0.3,4-0.5s2.5-0.5,3.7-0.9c1.1-0.4,2.1-0.8,3.1-1.3c0.2-0.1,0.5-0.2,0.7-0.4c4-6.9,0.1-12.3-0.7-19.5
			c-2.4-20.4,0-68.9,5.8-85.3c2.2-6.1,9.2-14,14.3-14.9c1.3-0.2,2.6-0.3,3.8-0.3c20,0,17,31.8,19.1,53.7c0.2,2.5,0.5,5,0.7,7.5
			c0.2,2.4,0.4,4.9,0.6,7.3c0.2,2.3,0.3,4.7,0.4,7c0.1,2.2,0.2,4.5,0.2,6.7c0.1,2.2,0.1,4.3,0.1,6.5c0,2.1,0,4.2-0.1,6.3
			c-0.1,2-0.1,4-0.3,6c-0.1,1.9-0.3,3.9-0.5,5.8c-0.2,1.8-0.5,3.7-0.8,5.5s-0.7,3.6-1.1,5.3c-0.1,0.4-0.3,0.9-0.3,1.3
			c0,0.1,0,0.3,0,0.4c0,0.2,0.1,0.2,0.1,0.3c0.1,0.2,0.2,0.5,0.5,0.5c0,0.2,0.1,0.2,0.2,0.2c0.5,0.2,0.9,0.5,1.4,0.8s1,0.5,1.4,0.7
			c1.1,0.5,2.2,0.9,3.3,1.2c1.3,0.3,2.6,0.5,3.8,0.6c1.4,0.1,2.8,0.2,4.2,0.2c0.1,0,0.2,0,0.3,0c1.4,0,2.7,0,4-0.1
			c1.5-0.1,2.9-0.2,4.4-0.4C734.6,444,736.1,443.7,737.5,443.5z M699.2,271.5c-0.1,1.9-0.2,3.8-0.4,5.6c-0.1,1.3-0.3,2.6-0.4,3.9
			c0,0.2,0,0.4-0.1,0.5c0,0.2-0.1,0.3-0.1,0.4s0,0.2,0,0.3c0,0.2,0,0.3-0.1,0.5s-0.1,0.4-0.2,0.6c-0.1,0.1-0.3,0.2-0.5,0.3
			c-0.5,0.2-1.1,0.3-1.6,0.4c-0.8,0.2-1.7,0.3-2.5,0.4s-1.6,0.1-2.5,0.1c-0.1,0-0.2,0-0.3,0c-0.9,0-1.7-0.1-2.6-0.2
			c-0.8-0.1-1.6-0.4-2.3-0.8c-0.2-0.1-0.4-0.2-0.5-0.3c-0.2-0.2-0.3-0.4-0.2-0.7c0.1-0.3,0.4-0.6,0.4-0.9c0.2-0.5,0.2-1.1,0.3-1.6
			c0.1-0.6,0.1-1.2,0.2-1.7c0.1-0.6,0.1-1.2,0.1-1.8c0-0.6,0-1.3,0-1.9c0-0.7,0-1.3,0-2s0-1.3-0.1-2c0-0.7,0-1.3,0-2
			c0-0.6,0-1.3,0-1.9s0.1-1.2,0.1-1.8s0.1-1.2,0.2-1.7s0.2-1.1,0.3-1.6s0.3-1,0.4-1.5c0.2-0.5,0.3-0.9,0.5-1.4
			c0.2-0.4,0.4-0.8,0.7-1.2s0.6-0.7,0.9-1c0.4-0.3,0.8-0.5,1.2-0.7c0.5-0.2,1-0.3,1.5-0.4c0.5-0.1,1-0.1,1.4-0.1l0,0l0,0l0,0
			c0.1,0,0.2,0,0.4,0c0.7,0,1.3,0.1,2,0.1c0.3,0,0.7,0,1,0.1c0.1,0,0.2,0.1,0.3,0.1s0.2,0,0.4,0.1c0.1,0,0.2,0.1,0.2,0.2
			c0,0.1,0.1,0.2,0.2,0.2c0.2,0.3,0.2,0.7,0.3,1.1c0.1,0.4,0.2,0.8,0.3,1.1c0.2,0.8,0.4,1.7,0.5,2.5c0.3,1.8,0.4,3.5,0.5,5.3
			C699.4,267.8,699.3,269.7,699.2,271.5z"/>
		<path class="st0" d="M877.7,362c-1.5-0.2-3.2-0.3-4.8-0.3c-1.7,0-3.5,0.1-5.1,0.4c-2.9,0.4-5.8,1.4-8.3,3.1
			c-2.5,1.6-4.6,3.8-6.2,6.3c-1.8,2.8-2.8,5.9-3.3,9.2c-0.5,4-0.3,8,0,12c0,0.5,0,1.1,0.1,1.5c0.1,0.2,0.2,0.2,0.2,0.6
			c0,0.2,0,0.4,0,0.5l0,0l0,0c0,0.1,0,0.2,0,0.2c0,0.2-0.1,0.5,0,0.8s0.3,0.4,0.3,0.7c0.1,0,0.3,0.1,0.4,0.1c0.1,0.6,0.1,0.6,0.5,1
			s0.8,1.1,1.3,1.2c0.3,0.1,0.5,0.1,0.8,0.1c0.5,0,1.1-0.1,1.6-0.1h0.1c0.6,0,1.1,0.1,1.7,0.1c0.2,0,0.3,0,0.5,0
			c1.7-0.2,3.3-0.5,4.9-1c3.2-0.9,6.4-2,9.7-2h0.1c1,0,1.9,0.1,2.9,0.3c0.5,0.1,1,0.3,1.5,0.4c0.3,0.1,1.2,0.3,1.4,0.6
			c7.3,9.7-0.3,18.5-9,19.3c-0.6,0.1-1.2,0.1-1.8,0.1c-13.2,0-30.7-12.6-44.3-12.6c-2,0-3.8,0.3-5.6,0.8c1.2-32.3,5.9-65.4,6-99.3
			c0.1-18.4-6.4-36.6-2.3-54.1c0-0.1,0.1-0.3,0.1-0.4c0.3-1,0.8-2,1.3-2.9c0.6-1,1.2-1.9,1.9-2.8c0.7-0.9,1.4-1.9,2-2.9
			c0.7-1,1.2-2,1.7-3.1c0.2-0.5,0.4-1.1,0.6-1.7c0.1-0.6,0.1-1.2,0.1-1.8c0-0.1,0-0.3,0-0.4c0-0.1-0.1-0.2-0.1-0.3s0-0.2-0.1-0.3
			c0-0.1,0-0.3,0-0.4c0-0.1-0.1-0.1-0.2-0.2c-0.1-0.1-0.1-0.2-0.2-0.2c-0.1-0.1-0.2-0.1-0.3-0.1s-0.2-0.1-0.3-0.2
			c-0.2-0.1-0.4-0.3-0.6-0.4c-0.2-0.1-0.4-0.2-0.6-0.2c-0.2-0.1-0.5-0.1-0.5-0.3c-0.3-0.1-0.6-0.2-0.9-0.3c-0.6-0.2-1.2-0.4-1.9-0.6
			c-0.7-0.2-1.3-0.4-2-0.6c-0.7-0.2-1.4-0.4-2.1-0.7c-0.7-0.2-1.5-0.4-2.2-0.7c-0.8-0.2-1.5-0.4-2.3-0.6c-0.8-0.2-1.6-0.4-2.4-0.6
			c-0.8-0.2-1.6-0.3-2.4-0.5c-0.8-0.1-1.6-0.3-2.4-0.4c-0.8-0.1-1.6-0.2-2.4-0.3c-0.8-0.1-1.6-0.1-2.4-0.2c-0.8,0-1.5-0.1-2.3-0.1
			c-0.1,0-0.2,0-0.2,0c-0.7,0-1.3,0-2,0.1c-0.7,0-1.4,0.1-2.2,0.2c-0.7,0.1-1.3,0.2-2,0.4c-0.6,0.1-1.2,0.3-1.8,0.6
			c-0.6,0.2-1.1,0.5-1.6,0.8c-0.5,0.3-0.9,0.7-1.3,1.1c-0.4,0.4-0.7,0.8-1,1.3s-0.6,1-0.8,1.5c-0.1,0.3-0.2,0.5-0.4,0.8
			c-0.1,0.2-0.3,0.5-0.3,0.8c-1,5,6.5,13.7,7.2,19.6c1.5,12.8-2.3,27.8-1.8,44.3c0.3,9.6,1.2,20.3,0.5,31.4
			c-2,31.6,3.6,63.4-2.6,89.7c-1.2,5.1-5.5,8.7-4.6,12.9c1.5,6.3,6.4,8.3,12.9,8.3c10.7,0,25.5-5.3,36-5.3c0.6,0,1.3,0,1.9,0.1
			c3.2,0.2,10.4,3.2,12.9,3.5c3,0.3,5.8,0.4,8.5,0.4c16.6,0,27.3-4.3,31.7-7.5C909.1,418,905,366.1,877.7,362z"/>
		<g>
			<path class="st0" d="M1951.4,311.3c-0.1,0.2-0.2,0.3-0.3,0.5"/>
		</g>
	</g>
</g>
</svg>
