<?xml version="1.0" encoding="utf-8"?>
<!-- Generator: Adobe Illustrator 19.0.1, SVG Export Plug-In . SVG Version: 6.00 Build 0)  -->
<svg version="1.1" id="Livello_1" xmlns="http://www.w3.org/2000/svg" xmlns:xlink="http://www.w3.org/1999/xlink" x="0px" y="0px"
	 viewBox="433 -206.5 1657.1 996" enable-background="new 433 -206.5 1657.1 996" xml:space="preserve">
<g>
	<path fill="#fffff" d="M1767.6,64.3c-0.1-42.5-79.8-69.7-146.6-85c-5.9-1.4-12-2.7-18.2-4c-17.7-22.5-42.2-43.2-73.1-61.1
		c-48.7-28.2-109.1-47.1-174.6-55.4l2.4-10.2l-5.4-31.5l-14.4-0.9l-20.9-18.2l-38.4,6.6l-21.5,3.1l-22.7,13.7l-4.9,29l-13.5,6.9
		c-70.7,7.3-135.9,26.8-187.8,57c-30.9,17.9-55.4,38.6-73.1,61.1c-6.3,1.3-12.5,2.6-18.6,4C871.7-5.8,795.4,20.2,790.2,60.2
		c-0.7,1.5-1.1,3.2-1.1,4.9v0.2c0,1.7,0.6,3.4,1.3,4.9c6.8,39.2,82.1,64.7,145.9,79.4c6.6,1.5,13.3,2.9,20.2,4.4
		c17.5,21.7,41.6,41.6,71.5,59c54.2,31.4,122.7,51.2,196.9,57.7l0.2,0.4c10.1,0.8,18.7,1.4,26.8,1.7c8.8,0.9,17.8,1.4,26.9,1.4
		c10.4,0,20.6-0.7,30.6-1.8c83.2-4.1,160.5-24.8,220.4-59.5c29.9-17.4,54-37.3,71.5-59c6.7-1.4,13.4-2.8,19.8-4.3
		c64.5-14.8,140.7-40.7,146.1-80.6c0.4-1.2,0.6-2.5,0.6-3.9C1767.7,64.8,1767.6,64.6,1767.6,64.3 M1617.8-7
		c64.9,14.9,109.8,34,127.4,53.5c-5.9-1.9-12.9-3.7-21.5-5.5c-22.5-4.7-53.9-8.9-93.3-12.6c-3.5-12.3-8.7-24.4-15.8-36.1
		C1615.7-7.5,1616.8-7.3,1617.8-7 M1512.7,35.6c33.8,1.7,65.5,3.7,94.3,6.1c4.6,0.4,8.9,0.8,13.2,1.2c1.3,6.8,2,13.7,2,20.7
		c0,8-0.9,15.9-2.5,23.6c-4.2,0.4-8.3,0.7-12.7,1.1c-28.9,2.4-60.7,4.4-94.5,6.1c1.6-9.9,2.5-20,2.5-30.3
		C1514.9,54.4,1514.1,44.9,1512.7,35.6 M1595.9-11.7c9,12.3,15.8,25.3,20.3,38.8c-32.2-2.8-68-5.1-106.5-7
		c-4.1-16.8-10.4-32.9-18.7-48C1528.6-23.6,1563.8-18.2,1595.9-11.7 M1409.7,113.5c29.9-0.7,58.9-1.7,86.6-3
		c-4.6,16.9-11.7,33-20.9,47.9c-27.2,2.8-55.5,5-84.7,6.6l19.7-48.3L1409.7,113.5z M1406.6,98.2l-3.4-16.9l-33.9-4.2l2.1-46
		c45,0.8,88.3,2.1,128.9,4c1.6,9.5,2.4,19.2,2.4,29.1c0,10.5-1,20.8-2.7,30.9C1470.1,96.3,1438.9,97.4,1406.6,98.2 M1362.2-37.6
		c39.4,1.6,77.5,4.3,113.6,8c9.3,15.3,16.4,31.7,20.9,49c-39.3-1.8-81.2-3-124.8-3.8l0.8-18.1L1362.2-37.6z M1581.7-28.8
		c-30.9-5.7-64.5-10.5-99.9-14.3c-22.8-34-56-61.8-95.7-79.9C1470.4-107,1540.4-72.9,1581.7-28.8 M1220.6-78.9l2.6-49.5l19.5-10.9
		l3.1-16.3c7.5-3.1,14.3-7.1,14.3-7.1l-5.4-8.2l9.3-12.3l15,4.2l8.4,11.5l16.7-5.6l17.1,2.4l4.2,5.1l11.4-6.6l6.5,0.1l2.4,11.9H1330
		l8.4,10.2l-2.2,8.3l-13.3-3.5l-8.8,7.1l8.3,29.2l-20.9-0.5l13.4,12.7c-1.6,3.1-5,8.6-5,8.6l-7.7-1.8l-9.4-7l-13.9,5.4l4.2,13
		l9.7,7.3l10.4-5.2l10.9,1.8l3.1,5.4l-7.8,11.3l-14.4,0.3l-27.1-27.3l-0.4-26.6l-9.7,3.5l-3.6,47.5l-24.3,21.4l-0.1,52.6l-13.5-4.1
		v-51.5l27.9-25.5l3.5-50.5l9.2-4.1v-10.9l-21.1,9.6l-3,49.9l-27.4,27.5l-0.1,51.8l-12.1-3.3l-0.1-53.9L1220.6-78.9z M1334.3-96.1
		l-8.3,13.7l-5.4-3v-10.1L1334.3-96.1z M1253.9,20.7l-13.1-4.2v-48.3l25-20.8l1.8-12.5l8.9,8.3l-1.2,10.7l-21.5,18L1253.9,20.7z
		 M1247.8,60.7l-7.6,8L1222.9,52l-7,6.4l16.6,16.6l-11.1,5.3l-43.1-37.2l14.9-28.4l56.7,19.5l0.4,14.3L1235,36.9c0,0-3.8,4-5.2,6.8
		C1236.9,49.9,1247.8,60.7,1247.8,60.7 M1179.6,98.9c-42.6-0.8-83.6-2.1-122.2-3.8c-1.8-10.1-2.8-20.4-2.8-30.9
		c0-9.9,0.8-19.6,2.4-29.1c35.3-1.6,72.8-2.8,111.7-3.6l-7.4,14.2l32.5,30.2L1179.6,98.9z M1185,166c-35.7-1.6-70.2-4.2-103.1-7.6
		c-9.2-14.9-16.2-31-20.9-47.9c36.3,1.6,74.8,2.8,114.8,3.6L1185,166z M1060.5,19.4c4.5-17.3,11.6-33.8,20.9-49
		c30.7-3.2,62.9-5.6,96-7.2v51.5l-0.6,1.1C1136.4,16.6,1097.3,17.8,1060.5,19.4 M1265.5-19.7l20.6-17l1.2-14l10.4,10.6l-0.6,11
		l-18.5,15.6l-0.2,41.3l-13.1-4.2L1265.5-19.7z M1309.3-22.1l0.3-9.6l9.8,8.6v9.5L1302.7,1v33.8l-13.1-3.5l-0.1-36.5L1309.3-22.1z
		 M1204.8-85l-27.3,27.9v6.3c-29.5,1.4-58.1,3.5-85.7,6.1c27.3-36.4,67.9-64.4,115.6-78.6L1204.8-85z M1171.1-122.9
		c-39.7,18.1-72.9,45.9-95.6,79.8c-35.4,3.8-68.8,8.5-99.7,14.2C1017.1-72.9,1087-106.9,1171.1-122.9 M961.6-11.8
		c32-6.5,67.2-11.9,104.7-16.1c-8.3,15.1-14.6,31.2-18.7,48c-38.4,1.8-74.1,4.2-106.3,6.9C945.8,13.5,952.6,0.5,961.6-11.8
		 M1044.9,94.4c-34.1-1.7-66.1-3.7-95.2-6.1c-4.1-0.3-7.9-0.7-11.8-1c-1.6-7.8-2.6-15.7-2.6-23.7c0-7,0.7-13.9,2-20.8
		c4.1-0.4,8-0.7,12.4-1.1c29-2.4,60.9-4.4,94.9-6.1c-1.4,9.3-2.2,18.8-2.2,28.5C1042.4,74.4,1043.3,84.5,1044.9,94.4 M939.4-7
		c1.2-0.3,2.4-0.5,3.6-0.8c-7.1,11.6-12.4,23.7-15.9,36c-39.7,3.7-71.4,8-94.1,12.7c-8.2,1.7-15,3.4-20.7,5.2
		C830,26.8,874.7,7.8,939.4-7 M806.4,65c6.8-3.8,31.4-12.7,117.2-20.9c-1,6.4-1.6,12.9-1.6,19.5c0,7.6,0.7,15,2,22.4
		C837.9,77.7,813.2,68.8,806.4,65 M939.4,135.9c-62.9-14.5-107-32.9-125.7-51.7c5.5,1.7,12,3.3,19.7,4.9c22.8,4.7,54.7,9,94.6,12.7
		c3.7,12,9.2,23.8,16.4,35.2C942.7,136.6,941,136.2,939.4,135.9 M963.2,141c-9.1-12.1-16.1-24.7-20.8-37.9
		c32,2.8,67.6,5.1,105.7,6.9c4.1,16.4,10.4,32.1,18.6,46.8C1029.7,152.6,994.9,147.3,963.2,141 M977.9,158
		c30.4,5.6,63.3,10.2,98.1,13.9c21.9,32.4,53.3,59.1,90.7,77.1C1085.9,233,1018.7,200.3,977.9,158 M1092.3,173.6
		c30.9,3,63.2,5.2,96.4,6.6l26.1,66.4l3.3,7.8C1166,241.5,1121.6,212.4,1092.3,173.6 M1300.8,168.9c-10.3,31.9-33,90.2-33,90.2
		l-31.5-1.6l-31.8-85.7l-11.6-60.8l16.6-25c0,0,2.6,3.9,7.7,8.3l30.6-16.6l15.3-17.9h21.6l28.1,49.7
		C1312.9,109.5,1304.4,147.8,1300.8,168.9 M1351.6,255.5l-12.6,1.6v-25.4l-12.5,0.6v25.6l-12.5,1.2v-83.4l10.2-41.9l22.5-17
		l-7.6,115.5h12.5L1351.6,255.5L1351.6,255.5z M1359.4-116.7l-3.4-4.8c45.1,14.7,83.4,41.9,109.6,76.8c-34.4-3.3-70.5-5.7-107.6-7.1
		l-6.2-20.4L1359.4-116.7z M1367.1,93.6l21.9,2.8l4.4,20.2l-37.8,93.5L1367.1,93.6z M1374.8,251.9l-11.3,1.8v-21.5h11.3
		C1374.8,232.2,1374.5,247.8,1374.8,251.9 M1369.2,217.7l15.6-38.3c27.5-1.4,54.3-3.3,80.1-5.8c-19.9,26.4-46.8,48.3-78.4,63.7
		l0.1-19.3L1369.2,217.7z M1390.3,249.1c37.6-18,69-44.8,91-77.2c34.9-3.7,67.9-8.4,98.3-14C1538.8,200.3,1471.4,233.1,1390.3,249.1
		 M1594.3,140.9c-31.8,6.4-66.6,11.7-103.8,15.9c8.2-14.7,14.5-30.5,18.6-46.9c38.3-1.8,74-4.2,106-6.9
		C1610.4,116.2,1603.4,128.8,1594.3,140.9 M1617.8,135.9c-1.5,0.3-3.1,0.7-4.6,1c7.2-11.4,12.6-23.1,16.3-35.1
		c39.8-3.7,71.5-8,94.1-12.7c7.8-1.6,14.4-3.3,20-5C1725.1,102.9,1680.9,121.4,1617.8,135.9 M1633.5,85.9c1.3-7.4,2-14.8,2-22.4
		c0-6.5-0.6-13-1.5-19.4c85.4,8.3,109.8,17.1,116.4,20.9C1743.7,68.8,1719.3,77.6,1633.5,85.9"/>
	<path fill="#fffff" d="M1249,187.1l-5.3-6.2l5.9-5.9l-13.4-26.8l-5.6,2.4l0.1,17.3l-9.1,9.7l0.1-11.3l-10.2-20l9.8-19.1l16.4,4.8
		l12.2,23.2l-9.5-34l13.1-24.4l13.1,23.8l-8.4,34.5c3.7-4.9,9.5-22,9.5-22l19.6-4.9l9.5,18.5c0,0-4.4,7.6-8.9,19v11l-7.9-8.7
		l-4.9-17.5l-4.4-1.9l-13.2,25.9l5.4,6.8l-5.3,5.6l3,11.3l-7.2,17.8l-7.3-18.1L1249,187.1z"/>
	<polygon fill="#ffffff" points="1289.3,-144.3 1282.5,-120.3 1267.4,-144.6 	"/>
	<g>
		<path fill="#fffff" d="M440.5,613.4V344.2h41.8v269.2H440.5z"/>
		<path fill="#fffff" d="M518.4,471.7c2.2-40.6,28-62.6,67.1-62.6c38.8,0,60.8,17.9,60.8,54.4v128.6c0,6.3,1.5,14.5,2.6,21.2H609
			c-0.4-5.6-1.9-10.8-2.2-15.7C591.1,610.3,578.1,617,558,617c-28.3,0-42.5-19.4-42.5-45.1c0-44,29.1-68.2,89.1-91V469
			c0-16.8-6.7-25.7-20.5-25.7c-19,0-23.1,11.2-23.9,28.3L518.4,471.7L518.4,471.7z M604.6,511.6c-38,21.6-47.3,35.4-47.3,52.9
			c0,13,6.7,18.3,19.4,18.3c11.6,0,20.9-8.6,28-18.6v-52.6H604.6z"/>
		<path fill="#fffff" d="M854.3,613.4V457.9c0-10.1-6.3-14.5-14.5-14.5c-8.9,0-17.1,5.6-26.8,12.7v157.3h-41.8V412.8h39.5v20.1
			c17.5-14.9,26.5-23.9,46.2-23.9c20.9,0,27.6,7.5,36.5,23.9c20.1-19.4,31.3-23.9,46.6-23.9c26.1,0,39.1,16,39.1,42.1v162.2h-41.8
			V457.9c0-10.1-6.7-14.5-14.9-14.5c-8.9,0-17.1,5.6-26.5,12.7v157.3H854.3z"/>
		<path fill="#fffff" d="M1015.4,471.7c2.2-40.6,28-62.6,67.1-62.6c38.8,0,60.8,17.9,60.8,54.4v128.6c0,6.3,1.5,14.5,2.6,21.2H1106
			c-0.4-5.6-1.9-10.8-2.2-15.7c-15.7,12.7-28.7,19.4-48.8,19.4c-28.3,0-42.5-19.4-42.5-45.1c0-44,29.1-68.2,89.1-91V469
			c0-16.8-6.7-25.7-20.5-25.7c-19,0-23.1,11.2-23.9,28.3L1015.4,471.7L1015.4,471.7z M1101.5,511.6c-38,21.6-47.3,35.4-47.3,52.9
			c0,13,6.7,18.3,19.4,18.3c11.6,0,20.9-8.6,28-18.6v-52.6H1101.5z"/>
		<path fill="#fffff" d="M1185.4,613.4V412.8h39.9v23.5h0.7c10.1-17.1,27.6-27.2,47.3-27.2h8.6v43.6c-7.5-1.9-14.5-4.1-26.8-4.1
			c-14.2,0-28,9-28,26.8v137.9h-41.7V613.4z"/>
		<path fill="#fffff" d="M1305.8,447.1v-34.3h117.4v34.3l-77.9,132h77.9v34.3h-122.7v-34.3l76.4-132H1305.8z"/>
		<path fill="#fffff" d="M1452.3,483.7c0-44,17.1-74.6,64.9-74.6c47.7,0,64.9,30.6,64.9,74.6v58.9c0,44-17.1,74.6-64.9,74.6
			c-47.7,0-64.9-30.6-64.9-74.6L1452.3,483.7L1452.3,483.7z M1540.3,476.2c0-23.1-8.2-32.8-23.1-32.8s-23.1,9.7-23.1,32.8V550
			c0,23.1,8.2,32.8,23.1,32.8s23.1-9.7,23.1-32.8V476.2z"/>
		<path fill="#fffff" d="M1705.8,481.4v-5.2c0-23.1-8.2-32.8-23.1-32.8s-23.1,9.7-23.1,32.8V550c0,23.1,8.2,32.8,23.1,32.8
			s23.1-9.7,23.1-32.8v-12.7h41.8v5.2c0,44-17.1,74.6-64.9,74.6c-47.7,0-64.9-30.6-64.9-74.6v-58.9c0-44,17.1-74.6,64.9-74.6
			c47,0,64.1,29.5,64.9,72.3h-41.8V481.4z"/>
		<path fill="#fffff" d="M1871.3,481.4v-5.2c0-23.1-8.2-32.8-23.1-32.8s-23.1,9.7-23.1,32.8V550c0,23.1,8.2,32.8,23.1,32.8
			s23.1-9.7,23.1-32.8v-12.7h41.8v5.2c0,44-17.2,74.6-64.9,74.6c-47.7,0-64.9-30.6-64.9-74.6v-58.9c0-44,17.1-74.6,64.9-74.6
			c47,0,64.1,29.5,64.9,72.3h-41.8V481.4z"/>
		<path fill="#fffff" d="M1948.8,483.7c0-44,17.1-74.6,64.9-74.6c47.7,0,64.9,30.6,64.9,74.6v58.9c0,44-17.1,74.6-64.9,74.6
			c-47.7,0-64.9-30.6-64.9-74.6V483.7z M2036.8,476.2c0-23.1-8.2-32.8-23.1-32.8s-23.1,9.7-23.1,32.8V550c0,23.1,8.2,32.8,23.1,32.8
			s23.1-9.7,23.1-32.8V476.2z"/>
	</g>
	<g>
		<path fill="#fffff" d="M887.3,781.6v-68.9H898V735c3.9-3.4,6.2-5.7,12.4-5.7c5.6,0,9,4.1,9,10.8v41.5h-10.7v-39.8
			c0-2.6-1.5-3.7-3.8-3.7c-2.3,0-4.4,1.4-6.9,3.2v40.3L887.3,781.6L887.3,781.6z"/>
		<path fill="#fffff" d="M928.5,745.3c0.6-10.4,7.2-16,17.2-16c9.9,0,15.6,4.6,15.6,13.9v32.9c0,1.6,0.4,3.7,0.7,5.4h-10.2
			c-0.1-1.4-0.5-2.8-0.6-4c-4,3.2-7.4,5-12.5,5c-7.3,0-10.9-5-10.9-11.6c0-11.3,7.4-17.5,22.8-23.3v-3.1c0-4.3-1.7-6.6-5.2-6.6
			c-4.9,0-5.9,2.9-6.1,7.3L928.5,745.3L928.5,745.3z M950.5,755.5c-9.7,5.5-12.1,9.1-12.1,13.6c0,3.3,1.7,4.7,5,4.7
			c3,0,5.3-2.2,7.2-4.8L950.5,755.5L950.5,755.5z"/>
		<path fill="#fffff" d="M972,781.6v-51.4h10.1v5.2c4.5-3.8,6.8-6.1,13-6.1c5.6,0,9,4.1,9,10.8v41.5h-10.7v-39.8
			c0-2.6-1.5-3.7-3.8-3.7s-4.4,1.4-6.9,3.2v40.3H972z"/>
		<path fill="#fffff" d="M1036.3,781.6v-5.3h-0.2c-3.5,4.5-6.1,6.3-11.5,6.3c-6.7,0-10.9-5-10.9-14.3v-24.6
			c0-9.4,4.2-14.3,10.9-14.3c4.7,0,6.9,1.9,11.1,5.3v-22h10.7v68.9H1036.3z M1035.8,740.7c-2.1-1.5-4-2.7-6.1-2.7
			c-2.9,0-5.2,1.5-5.2,8.3v19.1c0,6.8,2.3,8.3,5.2,8.3c2.1,0,4-1.1,6.1-2.7V740.7z"/>
		<path fill="#fffff" d="M1078,781.6v-39.8c0-2.6-1.6-3.7-3.7-3.7c-2.3,0-4.4,1.4-6.9,3.2v40.3h-10.7v-51.4h10.1v5.2
			c4.5-3.8,6.8-6.1,11.8-6.1c5.3,0,7.1,1.9,9.4,6.1c5.2-5,8-6.1,11.9-6.1c6.7,0,10,4.1,10,10.8v41.5h-10.7v-39.8
			c0-2.6-1.7-3.7-3.8-3.7c-2.3,0-4.4,1.4-6.8,3.2v40.3H1078z"/>
		<path fill="#fffff" d="M1119.3,745.3c0.6-10.4,7.2-16,17.2-16c9.9,0,15.6,4.6,15.6,13.9v32.9c0,1.6,0.4,3.7,0.7,5.4h-10.2
			c-0.1-1.4-0.5-2.8-0.6-4c-4,3.2-7.3,5-12.5,5c-7.3,0-10.9-5-10.9-11.6c0-11.3,7.4-17.5,22.8-23.3v-3.1c0-4.3-1.7-6.6-5.3-6.6
			c-4.9,0-5.9,2.9-6.1,7.3L1119.3,745.3L1119.3,745.3z M1141.3,755.5c-9.7,5.5-12.1,9.1-12.1,13.6c0,3.3,1.7,4.7,5,4.7
			c3,0,5.3-2.2,7.2-4.8L1141.3,755.5L1141.3,755.5z"/>
		<path fill="#fffff" d="M1184.8,781.6v-5.3h-0.2c-3.5,4.5-6.1,6.3-11.5,6.3c-6.7,0-10.9-5-10.9-14.3v-24.6
			c0-9.4,4.2-14.3,10.9-14.3c4.7,0,6.9,1.9,11.1,5.3v-22h10.7v68.9H1184.8z M1184.2,740.7c-2.1-1.5-4-2.7-6.1-2.7
			c-2.9,0-5.2,1.5-5.2,8.3v19.1c0,6.8,2.3,8.3,5.2,8.3c2.1,0,4-1.1,6.1-2.7V740.7z"/>
		<path fill="#fffff" d="M1237.8,757.9h-22.5v7.4c0,5.9,2.1,8.4,5.9,8.4s5.9-2.5,5.9-8.4v-1.1h10.7c-0.2,10.9-4.7,18.3-16.6,18.3
			c-12.2,0-16.6-7.8-16.6-19.1v-15.1c0-11.3,4.4-19.1,16.6-19.1c12.2,0,16.6,7.8,16.6,19.1V757.9L1237.8,757.9z M1227.1,749.1v-2.7
			c0-5.9-2.1-8.4-5.9-8.4s-5.9,2.5-5.9,8.4v2.7H1227.1z"/>
		<path fill="#fffff" d="M1268.8,722.4v-9.7h10.7v9.7H1268.8z M1268.8,781.6v-51.4h10.7v51.4H1268.8z"/>
		<path fill="#fffff" d="M1289.9,781.6v-51.4h10.1v5.2c4.5-3.8,6.8-6.1,13-6.1c5.6,0,9,4.1,9,10.8v41.5h-10.7v-39.8
			c0-2.6-1.5-3.7-3.8-3.7s-4.4,1.4-6.9,3.2v40.3H1289.9z"/>
		<path fill="#fffff" d="M1354.2,739h-6.3v-8.8h6.3v-6.4c0-8.3,4.4-12.1,11.9-12.1h5.3v8.8h-3.1c-2.6,0-3.5,1-3.5,3.4v6.3h6.1v8.8
			h-6.1v42.6h-10.7L1354.2,739L1354.2,739z M1374.8,781.6v-68.9h10.7v68.9H1374.8z"/>
		<path fill="#fffff" d="M1395.3,748.3c0-11.3,4.4-19.1,16.6-19.1c12.2,0,16.6,7.8,16.6,19.1v15.1c0,11.3-4.4,19.1-16.6,19.1
			s-16.6-7.8-16.6-19.1V748.3z M1417.8,746.4c0-5.9-2.1-8.4-5.9-8.4c-3.8,0-5.9,2.5-5.9,8.4v18.9c0,5.9,2.1,8.4,5.9,8.4
			s5.9-2.5,5.9-8.4V746.4z"/>
		<path fill="#fffff" d="M1438.2,781.6v-51.4h10.2v6h0.2c2.6-4.4,7.1-7,12.1-7h2.2v11.2c-1.9-0.5-3.7-1.1-6.9-1.1
			c-3.6,0-7.2,2.3-7.2,6.9v35.3L1438.2,781.6L1438.2,781.6z"/>
		<path fill="#fffff" d="M1502.7,757.9h-22.5v7.4c0,5.9,2.1,8.4,5.9,8.4s5.9-2.5,5.9-8.4v-1.1h10.7c-0.2,10.9-4.7,18.3-16.6,18.3
			c-12.2,0-16.6-7.8-16.6-19.1v-15.1c0-11.3,4.4-19.1,16.6-19.1s16.6,7.8,16.6,19.1V757.9z M1492,749.1v-2.7c0-5.9-2.1-8.4-5.9-8.4
			s-5.9,2.5-5.9,8.4v2.7H1492z"/>
		<path fill="#fffff" d="M1512.4,781.6v-51.4h10.1v5.2c4.5-3.8,6.8-6.1,13-6.1c5.6,0,9,4.1,9,10.8v41.5h-10.7v-39.8
			c0-2.6-1.5-3.7-3.8-3.7s-4.4,1.4-6.9,3.2v40.3H1512.4z"/>
		<path fill="#fffff" d="M1576.7,747.8v-1.3c0-5.9-2.1-8.4-5.9-8.4s-5.9,2.5-5.9,8.4v18.9c0,5.9,2.1,8.4,5.9,8.4s5.9-2.5,5.9-8.4
			v-3.2h10.7v1.3c0,11.3-4.4,19.1-16.6,19.1s-16.6-7.8-16.6-19.1v-15.1c0-11.3,4.4-19.1,16.6-19.1c12,0,16.4,7.5,16.6,18.5
			L1576.7,747.8L1576.7,747.8z"/>
		<path fill="#fffff" d="M1629.8,757.9h-22.5v7.4c0,5.9,2.1,8.4,5.9,8.4s5.9-2.5,5.9-8.4v-1.1h10.7c-0.2,10.9-4.7,18.3-16.6,18.3
			c-12.2,0-16.6-7.8-16.6-19.1v-15.1c0-11.3,4.4-19.1,16.6-19.1s16.6,7.8,16.6,19.1V757.9z M1619.1,749.1v-2.7
			c0-5.9-2.1-8.4-5.9-8.4s-5.9,2.5-5.9,8.4v2.7H1619.1z"/>
	</g>
</g>
</svg>
