<?xml version="1.0" encoding="UTF-8" standalone="no"?>
<svg width="289px" height="996px" viewBox="0 0 289 996" version="1.1" xmlns="http://www.w3.org/2000/svg" xmlns:xlink="http://www.w3.org/1999/xlink" xmlns:sketch="http://www.bohemiancoding.com/sketch/ns">
    <title>ray_1000px_high</title>
    <defs>
        <path id="path-1" d="M177.431706,6.07588297 C177.431706,6.07588297 169.654576,0.680498893 160.176199,0.729105956 C159.471396,0.558981233 157.988881,0 157.988881,0 C157.988881,0 150.381875,0.267338851 148.510504,0.972141275 C146.639132,1.6769437 143.674101,3.40249446 142.191585,3.40249446 C140.70907,3.40249446 133.976991,5.39538408 128.824643,11.1796247 C128.192751,11.8844271 126.39429,13.6099779 126.39429,13.6099779 L124.936078,14.8251544 L122.019654,17.498543 L120.318407,18.2276489 L118.617159,19.6858608 L118.131089,20.9010374 L118.374124,23.3313906 L117.888053,23.8174612 L117.158947,24.5465672 L117.158947,26.0047791 L115.700735,25.5187085 L114.728594,27.2199557 L113.999488,27.7060263 L113.513418,28.6781676 L113.270382,30.8654855 L113.027347,31.8376268 L112.055206,31.8376268 L111.81217,32.3236974 L111.3261,34.9970859 L110.110923,37.1844038 L109.381817,38.3995804 L108.895747,41.5590395 L108.652711,44.4754633 C108.652711,45.3989975 108.409676,46.9058165 108.409676,46.9058165 L107.68057,49.3361697 L107.68057,59.0575825 L108.166641,61.001865 L108.652711,64.1613242 L108.652711,68.7789952 L108.166641,70.7232778 L108.652711,74.3688075 C107.947909,74.2229864 105.541859,73.4209698 104.764146,73.8827369 C103.54897,74.5875393 101.604687,76.1186618 101.604687,82.8750437 C101.458866,84.3575591 101.21583,87.5413218 101.604687,89.193962 C101.872026,90.4820492 102.79556,96.2176827 102.819864,98.4293041 C102.844167,100.640926 104.253772,103.678867 105.493252,105.234293 C105.711984,106.10922 107.340321,111.869157 111.81217,111.310176 C112.662794,111.33448 113.756453,110.58107 113.756453,110.58107 C113.999488,111.723336 114.995933,117.434666 116.672877,121.031589 C117.183251,122.295372 121.193334,132.162606 121.290548,135.370673 L121.290548,139.745308 C121.290548,139.745308 116.016681,144.119944 115.4577,145.092085 C114.898719,146.064227 112.760008,147.012064 113.027347,152.869216 C112.881526,153.671232 107.947909,159.57699 102.819864,161.861522 C101.410259,162.566325 91.1541683,165.507052 91.1541683,165.507052 L76.0859785,170.367758 C76.0859785,170.367758 69.7184532,167.451335 61.7468947,171.82597 C60.5560217,172.16622 53.7267292,173.770253 53.7267292,173.770253 C53.7267292,173.770253 47.505025,173.770253 45.4635284,176.686677 C45.0989754,177.415783 42.5471045,178.873995 42.5471045,178.873995 C42.5471045,178.873995 34.7942779,183.977736 33.3117624,186.408089 C32.3153176,187.574659 24.1736344,195.886467 21.4030318,205.364844 C18.6324292,214.843222 16.7367537,227.869915 17.2714314,230.397482 C17.8061091,232.92505 16.7853608,237.931577 16.7853608,237.931577 C16.7853608,237.931577 14.5980429,244.444924 15.8132195,251.29852 C16.0805583,253.169892 13.8203299,273.536251 12.8967957,277.060263 C11.9732614,280.584276 12.3135109,281.945273 12.410725,283.865252 C12.410725,285.056125 12.1676897,299.419513 12.1676897,299.419513 C12.1676897,301.339492 13.4800804,325.521506 16.5423254,338.548199 C17.0283961,341.245891 18.6081256,358.112542 33.3117624,359.935307 C35.304652,360.032521 44.0053165,361.636554 44.0053165,361.636554 C44.0053165,362.657303 44.2483518,365.525119 44.2483518,365.525119 C44.2483518,365.525119 40.7729467,392.842289 40.8458573,396.63364 C40.9187679,400.424991 38.9015748,421.180207 38.9015748,421.180207 L39.1446101,421.666278 C39.2175207,423.197401 38.6585394,439.262035 37.4433628,441.352139 C36.2281863,443.442243 33.5791013,455.521098 33.5547977,461.52407 C33.4575836,462.787854 32.6312635,467.624257 32.0965858,468.81513 C32.0965858,469.592843 32.0479788,470.443467 32.5826565,471.245483 C33.1173342,472.0475 33.7978331,473.189766 33.7978331,473.189766 C33.7978331,473.189766 31.5133011,477.783133 31.1244446,479.508684 C31.0272304,480.213486 28.767002,493.72625 30.3953386,499.923651 C30.3953386,501.211738 28.4510561,509.402028 28.4510561,509.402028 C28.4510561,509.402028 26.4095594,516.765998 26.9928441,520.095582 C27.5761289,523.425166 27.2358795,534.434666 27.2358795,534.434666 C27.2358795,535.28529 26.7498088,546.586432 26.7498088,546.586432 C26.7498088,546.586432 26.7741124,552.662315 26.0207029,555.578739 C25.2672934,558.495163 26.2394347,558.762501 26.2637382,559.467304 C26.2880417,560.172106 24.3194556,588.145471 24.3194556,588.145471 C24.3194556,590.162665 24.0764203,637.481641 24.0764203,637.481641 C24.0764203,637.481641 22.9584578,641.661849 23.3473144,643.800559 C23.420225,644.724094 22.7397261,649.730621 22.8612437,650.605548 C22.9827614,651.480475 23.5903497,654.494113 23.5903497,654.494113 C23.5903497,654.494113 22.3994766,657.045984 22.1321378,657.653573 C21.6703707,659.233302 21.2815141,667.034736 22.1321378,670.534444 C22.1321378,670.534444 20.8440506,672.211388 21.1599965,672.964798 C21.4759424,673.718207 22.1321378,676.853363 22.1321378,676.853363 C22.1321378,676.853363 20.1635517,679.964215 20.4308905,681.714069 C20.6982294,683.463923 22.2293519,686.647686 22.1321378,687.546917 C22.0349236,688.446147 21.8891024,691.192447 19.9448199,695.081012 C19.3129281,696.92808 18.9969822,700.792342 19.9448199,702.858142 C19.7260881,703.417123 19.2400175,704.875335 19.7017846,706.017601 C20.1635517,707.159867 22.4723872,714.572444 21.6460671,716.225084 C20.819747,717.877725 18.1949656,720.162257 18.486608,728.862921 C18.486608,730.296829 18.4136974,732.824397 17.2714314,733.723627 C16.1291654,734.622858 15.0112029,737.150425 15.0841135,742.229864 C15.0841135,743.03188 13.3828663,750.006994 12.6537603,752.194312 C11.9246544,754.381629 11.6816191,761.672689 11.6816191,761.672689 L10.9525131,776.740879 C10.9525131,778.660858 11.1955484,787.434433 11.1955484,787.434433 L10.7094778,799.343163 C10.7094778,802.283891 12.0704756,819.417881 13.8689369,826.077048 C15.6673983,832.736216 18.7296433,841.631309 18.7296433,841.631309 C18.5838221,842.749271 18.7296433,846.24898 18.7296433,846.24898 L18.2435727,858.157711 L18.0005373,866.663947 L18.2435727,878.572677 C18.2435727,878.572677 18.1706621,884.478436 17.5144667,887.321949 C16.8582713,890.165462 17.4172526,894.272759 18.2435727,896.314256 C18.4623045,897.72386 18.2435727,899.71675 18.2435727,899.71675 L19.2157139,902.147103 C19.2157139,902.147103 20.2607658,908.466022 24.3194556,909.438163 C23.7361709,910.118662 21.9863166,913.351031 21.8891024,916.486187 C21.7918883,919.621343 22.1321378,919.888682 22.1321378,919.888682 C20.6982294,920.399056 12.9454027,925.818743 12.1676897,928.151882 C11.3899767,930.485021 12.1676897,931.797412 12.1676897,931.797412 C11.9246544,932.672339 11.0497272,934.495104 12.8967957,935.199907 C12.6294568,936.196351 10.7094778,939.574542 10.7094778,939.574542 C9.83455063,940.886933 7.063948,944.435249 7.063948,944.435249 C7.063948,944.435249 4.43916656,947.497494 4.39055949,948.809884 C4.34195243,950.122275 3.1753829,955.857909 3.1753829,955.857909 L2.93234758,958.288262 C2.93234758,958.288262 1.01236856,962.589987 0.988065031,964.850216 C0.696422648,965.676536 0.0402272878,967.183355 0.501994393,969.953957 C0.963761499,972.72456 1.18249329,977.512356 5.36270077,982.348758 C6.65078796,984.511773 15.7646124,992.118778 20.1878552,993.042312 C24.611098,993.965847 42.3769798,995.253934 49.8381641,988.181606 C57.2993484,981.109278 60.9934852,978.654622 62.4760007,974.328593 C63.9585161,970.002564 63.9342126,965.822357 63.9342126,965.822357 C63.9342126,965.822357 64.1772479,962.419862 63.9342126,959.503438 C63.6911773,956.587015 63.9342126,954.156661 63.9342126,954.156661 L64.4202832,949.53899 L69.7670602,940.303648 L71.2252722,938.602401 L71.7113428,937.144189 C71.7113428,937.144189 72.1974134,924.311924 71.4683075,921.832964 C72.3189311,920.812216 73.8014465,916.340366 73.41259,913.569763 C73.0237335,910.799161 71.4683075,907.736916 71.4683075,907.736916 C72.4647523,907.105024 74.141696,905.306562 74.141696,905.306562 C74.141696,905.306562 77.1310304,899.400804 77.0581198,896.07122 C77.617101,893.883902 78.5163317,891.696585 78.5163317,891.696585 L81.4327555,884.16249 C81.4327555,884.16249 81.9674332,873.298811 81.6757909,871.038582 C81.3841485,868.778354 82.1618615,863.261452 82.1618615,863.261452 L83.1340028,823.160625 C83.1340028,820.560147 83.7901981,814.314139 83.8631087,813.925283 C83.9360193,813.536426 84.83525,793.510316 84.83525,793.510316 L84.106144,784.031938 C84.106144,784.031938 84.6894288,775.501399 84.3491794,773.58142 C84.0089299,771.661441 85.3456242,767.45693 83.8631087,764.589113 C83.7172875,763.616972 84.5436076,761.599778 85.0782853,760.943583 C85.612963,760.287388 87.2656032,756.301608 83.3770381,754.8677 C83.3770381,754.308719 82.7937533,752.656079 83.8631087,750.250029 C84.9324641,747.843979 85.5400524,746.312857 83.1340028,743.202005 C82.9881816,742.521506 82.6722357,741.768096 84.106144,740.771652 C85.5400524,739.775207 88.991154,737.612192 88.4807798,735.181839 C87.9704056,732.751486 86.9739608,731.706434 87.5086385,730.321133 C88.0433162,728.935832 88.5536904,727.696351 88.7238151,726.432568 C88.8939398,725.168784 89.3070999,723.905 90.182027,723.516144 C91.0569542,723.127287 95.115644,718.509616 95.528804,715.495978 C95.9419641,712.482341 96.6467665,707.086956 97.4730866,706.017601 C98.2994067,704.948246 99.5145833,703.46573 99.4173691,699.455647 C100.049261,697.924525 101.361652,690.463341 101.361652,690.463341 L102.333793,677.339433 L104.278076,666.645879 L106.222358,658.868749 C106.222358,658.868749 107.097285,649.463282 108.652711,646.960019 C110.208137,644.456755 111.204582,640.714011 111.083064,639.182888 C111.763563,637.676069 114.607077,630.239189 114.485559,627.760228 C114.801505,626.642266 117.401983,621.684345 117.401983,621.684345 C117.401983,621.684345 118.641463,617.698566 118.617159,616.580604 C118.592856,615.462641 121.533583,607.831332 121.533583,607.831332 L124.693042,597.623849 C124.693042,597.623849 127.074788,592.88466 127.123395,587.416365 C128.435786,585.083226 129.310713,580.368341 129.310713,580.368341 C129.310713,580.368341 133.369403,584.062478 133.928384,584.256906 C133.855474,585.472083 132.421565,588.607239 132.956243,590.089754 C133.490921,591.572269 133.928384,594.221354 133.928384,594.221354 C133.928384,594.221354 133.3451,598.280044 134.65749,601.026343 C134.65749,602.144306 135.629632,608.560438 135.629632,608.560438 L136.115702,612.692039 L136.601773,614.393286 L136.844808,618.281851 L138.30302,628.73237 C138.035681,630.433617 137.816949,632.86397 137.816949,632.86397 C137.816949,632.86397 137.06354,639.182888 137.816949,642.099312 C138.011378,642.804115 137.257968,649.244551 136.358738,650.605548 C135.459507,651.966546 135.751149,657.677876 135.872667,660.569996 C135.994185,663.462117 135.386596,671.749621 135.386596,671.749621 L136.115702,678.797645 C136.115702,678.797645 135.532418,683.09937 136.358738,685.602634 C136.698987,687.401096 136.23722,692.164588 136.601773,693.379764 C136.966326,694.594941 137.962771,699.893111 140.004267,703.344213 C141.656908,705.701655 144.476117,713.551696 143.406762,715.252943 C142.386013,716.176477 140.587552,718.801259 141.705515,723.030073 C142.045764,724.731321 141.462479,727.161674 141.462479,727.161674 C141.462479,727.161674 141.025016,729.20317 142.191585,732.508451 C142.191585,733.359074 142.434621,736.397016 142.434621,736.397016 L139.761232,738.584334 L139.032126,742.715934 L138.30302,744.174146 L138.789091,747.819676 C138.789091,747.819676 137.403789,756.44743 136.358738,761.429654 C135.313686,766.411878 132.713208,780.629444 132.713208,780.629444 C132.713208,780.629444 131.959798,811.786572 131.984102,822.431519 C131.984102,822.893286 132.470172,824.375801 132.470172,824.375801 L132.956243,826.077048 L129.796784,843.818627 C129.796784,843.818627 128.678822,852.227649 129.067678,857.914675 C128.994767,858.838209 127.609466,862.046276 127.609466,862.046276 L126.88036,865.934841 C126.88036,865.934841 125.470755,868.632533 125.422148,869.337335 C125.373541,870.042138 123.23483,886.349808 123.23483,886.349808 L122.74876,887.808019 L122.019654,892.911761 L120.561442,896.557291 L120.561442,900.931927 L123.477866,903.605315 C123.477866,905.01492 123.720901,910.167269 123.720901,910.167269 C123.720901,910.167269 120.34271,914.78494 119.589301,916.243152 C118.835891,917.701364 117.888053,918.381863 117.888053,919.888682 C117.888053,921.395501 119.832336,926.2076 119.832336,926.2076 C119.832336,926.2076 119.151837,935.029782 120.804477,937.63026 C120.658656,938.772526 120.075371,940.303648 120.075371,940.303648 C120.075371,940.303648 118.811588,944.022089 119.589301,944.678284 C121.460673,944.824105 122.505724,944.921319 122.505724,944.921319 L124.450007,949.782026 L126.39429,954.399697 C126.39429,954.399697 126.272772,959.965206 127.123395,961.447721 C127.196306,962.638594 126.588718,973.429362 130.039819,978.703229 C133.490921,983.977095 140.879195,991.170941 149.239609,993.528383 C157.600024,995.885826 172.425179,995.22963 174.758318,994.500524 C177.091457,993.771418 184.74707,990.636263 186.180978,987.209465 C187.614886,983.782667 189.802204,979.723977 190.069543,977.974123 C190.336882,976.224268 191.77079,970.440028 191.28472,969.224851 C190.798649,968.009675 189.340437,962.176827 189.340437,962.176827 L188.12526,954.885767 L187.153119,950.754167 L184.236695,947.351673 C184.236695,947.351673 180.445344,938.821133 179.132954,937.387224 C179.716238,936.512297 180.882808,933.012589 180.34813,931.797412 C179.813453,930.582236 175.730459,924.117496 171.841894,922.319035 C171.696073,921.103858 171.598859,918.91654 171.598859,918.91654 C171.598859,918.91654 170.894056,914.298869 169.168506,913.083693 C167.442955,911.868516 168.92547,912.111551 168.92547,912.111551 L170.626718,910.653339 L170.140647,904.820492 C170.140647,904.820492 170.189254,901.174962 170.140647,898.987644 C170.09204,896.800326 171.525948,891.915316 172.327965,890.238373 C173.129981,888.561429 173.786177,886.592843 173.786177,886.592843 C173.786177,886.592843 177.237278,880.273925 178.160812,877.357501 C179.084347,874.441077 180.34813,871.524653 180.34813,871.524653 L184.479731,858.643781 L189.340437,844.547733 L191.28472,837.013638 L194.444179,826.806154 L198.332744,809.307611 L199.790956,796.669775 C200.277026,794.43385 202.464344,789.378715 202.464344,789.378715 L208.297192,758.51323 L209.755404,739.79951 L208.783263,735.910945 L206.595945,733.237557 L206.352909,728.37685 C206.352909,728.37685 206.061267,725.654855 205.380768,724.974356 C204.700269,724.293857 205.380768,723.030073 205.380768,723.030073 L206.595945,720.59972 L205.866839,718.898473 C205.866839,718.898473 205.113429,717.221529 205.866839,716.46812 C206.620248,715.71471 207.397961,709.954773 205.623803,707.718848 C203.849646,705.482923 203.679521,704.316354 203.679521,704.316354 L205.623803,699.455647 L207.082015,692.164588 L206.83898,687.789952 L208.297192,685.116564 L209.026298,676.853363 L209.269333,672.478727 C209.974136,670.218499 210.48451,669.076233 210.48451,669.076233 L212.671828,661.785173 L214.859146,656.195361 L216.560393,648.904301 L217.046463,645.987877 L218.504675,642.585383 L219.719852,634.565217 L221.178064,627.274158 L225.795735,609.046509 L227.740017,601.269379 L227.983053,596.894743 L230.170371,590.81886 L231.142512,586.201189 L233.8159,571.61907 C234.034632,570.841357 234.788042,568.216575 234.788042,568.216575 L235.517148,562.140692 L236.97536,557.766057 L238.190536,549.502856 C238.263447,547.753001 239.405713,542.454831 239.405713,542.454831 L241.593031,533.948595 L242.322137,528.844854 L243.537313,523.255041 L243.780348,520.095582 L244.995525,516.450052 L244.266419,507.943816 L244.509454,503.56918 C244.509454,503.56918 245.943363,499.947954 245.967666,497.979368 C247.085629,497.225959 250.342302,493.847768 250.342302,493.847768 L248.88409,486.313673 L249.127125,474.161907 L248.641055,468.329059 L247.425878,462.496212 L248.88409,445.726775 L249.856231,429.686444 L252.772655,410.729689 C252.772655,410.729689 253.720493,400.303474 253.744797,397.848817 C253.7691,395.39416 253.015691,370.871896 253.015691,370.871896 C253.015691,370.871896 250.731159,353.980942 249.613196,352.401212 C251.533175,352.401212 253.744797,351.672106 253.744797,351.672106 L256.904256,349.970859 L263.95228,347.783541 C263.95228,347.783541 275.423547,341.416016 276.347081,337.576058 C277.270615,333.7361 279.50654,328.340716 279.50654,328.340716 L283.881176,312.786455 L286.068494,297.961301 L288.984918,288.725959 C288.984918,288.725959 289.300864,282.722986 287.040635,277.546334 C284.780407,272.369682 286.068494,270.98438 286.068494,270.98438 L286.311529,264.665462 C286.311529,264.665462 284.999139,259.07565 284.610282,257.617438 C284.221426,256.159226 284.367247,250.812449 284.367247,250.812449 C284.367247,250.812449 287.307974,247.021098 285.582423,244.250495 C283.856873,241.479893 284.367247,239.389789 284.367247,239.389789 C284.367247,239.389789 286.38444,236.30324 284.853317,233.556941 C283.322195,230.810642 283.224981,224.929188 283.15207,224.321599 C283.07916,223.714011 278.777434,206.823056 278.777434,206.823056 L272.701551,197.587714 C272.701551,197.587714 269.396271,191.293099 265.167457,189.810584 C260.938642,188.328069 255.275919,180.69676 249.127125,181.304348 C242.978332,181.911936 239.648748,179.603101 239.648748,179.603101 C239.648748,179.603101 236.003218,177.245658 232.357688,176.686677 C228.712159,176.127696 224.094488,173.527218 224.094488,173.527218 L218.504675,171.582935 L205.866839,165.020981 C205.866839,165.020981 199.572224,161.059506 198.332744,160.889381 C197.093264,160.719256 193.472037,155.299569 193.472037,155.299569 L192.013826,150.681898 C192.013826,150.681898 190.409792,146.307262 189.340437,144.84905 C189.340437,143.439445 189.583472,141.446556 189.583472,141.446556 L190.069543,136.342814 C190.069543,136.342814 193.472037,128.760112 194.444179,127.350507 C195.41632,125.940902 198.186923,118.479718 198.332744,113.983565 C199.669438,113.983565 202.464344,112.744084 202.950415,110.338035 C203.436486,107.931985 203.436486,105.963399 203.436486,105.963399 C203.436486,105.963399 205.332161,99.7173913 205.137733,95.7559156 C205.550893,94.6865602 206.936194,90.8222986 206.595945,88.9509267 C206.255695,87.0795547 205.380768,84.8193263 205.380768,84.8193263 C205.380768,84.8193263 205.405072,82.9479543 205.623803,81.6598671 C205.842535,80.3717799 205.283554,77.4310526 203.922556,77.2852314 C202.561558,77.1394102 201.443596,77.3824455 201.006132,77.771302 L199.54792,78.2573726 L199.54792,77.5282667 L201.006132,74.8548782 C201.006132,74.8548782 202.148398,68.5116564 201.978274,65.8625714 C201.95397,62.2170416 203.776735,59.8839025 202.950415,55.4120527 C202.124095,50.9402028 200.349937,37.1844038 197.846673,31.1085208 C196.850228,29.6260054 193.229002,23.5744259 193.229002,23.5744259 C193.229002,23.5744259 189.000188,18.7380231 188.854366,18.2276489 C188.708545,17.7172747 186.253889,12.929479 184.479731,11.6656953 C182.705573,10.4019116 177.431706,6.07588297 177.431706,6.07588297 L177.431706,6.07588297 Z"></path>
    </defs>
    <g id="Page-1" stroke="none" stroke-width="1" fill="none" fill-rule="evenodd" sketch:type="MSPage">
        <g id="ray_1000px_high" sketch:type="MSLayerGroup">
            <mask id="mask-2" sketch:name="Mask" fill="white">
                <use xlink:href="#path-1"></use>
            </mask>
            <use id="Mask" sketch:type="MSShapeGroup" xlink:href="#path-1"></use>
            <image sketch:type="MSBitmapLayer" mask="url(#mask-2)" x="-2" y="-3" width="294" height="1000" xlink:href="assets/img/team-jpg/ray.jpg"></image>
        </g>
    </g>
</svg>
