<?xml version="1.0" encoding="UTF-8" standalone="no"?>
<svg width="306px" height="994px" viewBox="0 0 306 994" version="1.1" xmlns="http://www.w3.org/2000/svg" xmlns:xlink="http://www.w3.org/1999/xlink" xmlns:sketch="http://www.bohemiancoding.com/sketch/ns">
    <title>kandace_1000px_high</title>
    <defs>
        <path id="path-2" d="M148.290248,2.98557936 C148.290248,2.98557936 145.975443,1.30967651 142.085616,0.83084712 C138.482157,0.591432427 129.485441,0.735081242 119.414846,4.42206751 C109.344251,8.10905378 100.323671,11.5805668 87.675768,35.0671482 C84.692772,40.2385056 83.3086618,49.1207907 85.7666505,60.6845204 C85.8859704,65.9995265 83.6188934,82.4712574 83.6188934,82.4712574 C83.6188934,82.4712574 78.2733644,114.624651 80.7552171,124.608243 C83.2370699,134.591836 92.233786,139.54772 92.6872014,143.043175 C91.9474184,144.168424 85.5280109,149.48343 80.5165775,142.085516 C80.1586179,139.906842 78.6790519,138.949183 80.5165775,134.184831 C79.0847393,136.12409 76.5074307,140.52932 81.4711362,144.958492 C78.7983717,144.958492 70.7323504,142.827701 66.6754757,138.973125 C68.8470968,141.34333 76.6028866,148.549713 88.3916871,148.789127 C88.3916871,148.789127 83.881397,151.997284 75.7437838,147.352639 C78.5358681,149.890435 85.2893712,154.774495 85.2893712,154.774495 C85.2893712,154.774495 75.2665044,155.301207 70.255071,149.507371 C72.2596443,152.045167 77.8915409,158.1263 77.8915409,158.1263 C77.8915409,158.1263 58.9674139,160.544389 51.4025358,165.548156 C48.8729552,165.428449 46.0331429,165.356624 44.0047056,169.618206 C41.4751249,176.776705 40.1626066,189.848747 37.3227944,195.953822 C35.7716364,200.311169 25.8442255,230.118299 24.1976117,241.442614 C23.5055566,244.171941 23.7203323,248.361698 21.0952957,248.38564 C19.4964099,248.38564 18.1600276,248.840528 18.4702592,250.779787 C18.9236746,251.97686 19.7589135,254.634363 18.7088989,257.004569 C16.4895498,261.91257 12.3849472,270.627265 13.6974655,274.481841 C14.6758882,276.349276 17.5157005,284.058429 17.5157005,284.058429 C17.5157005,284.058429 16.9668292,292.461885 17.0384211,296.507993 C15.9645425,298.064188 13.3633699,302.97219 12.2656274,302.97219 C11.1678848,302.97219 7.5405616,301.559643 6.53827492,302.014531 C5.10643681,301.775116 4.15187807,302.014531 4.15187807,302.014531 C4.15187807,302.014531 0.715466594,304.60021 2.0041209,308.478728 C2.81549583,309.843391 4.86779712,316.379412 4.86779712,316.379412 C4.86779712,316.379412 7.03941826,321.095882 6.77691461,322.843609 C6.77691461,323.777326 7.73147335,324.758927 7.73147335,324.758927 C7.73147335,324.758927 5.48826031,325.716585 5.58371618,327.392488 C5.67917206,329.068391 7.01555429,333.377856 7.01555429,333.377856 L9.87923052,340.799711 L9.87923052,342.715029 C9.64059084,344.630346 8.92467178,347.024493 8.92467178,347.024493 L7.97011304,359.474057 L8.20875272,361.628789 L9.16331147,364.022936 C9.16331147,364.022936 3.84164648,385.737849 3.91323838,401.850458 C4.15187807,406.638752 5.10643681,447.099835 5.10643681,447.099835 C5.10643681,447.099835 5.58371618,467.450084 4.15187807,471.280719 C3.57914282,474.081871 3.48368695,479.875706 3.19731932,483.012039 C2.9109517,486.148371 4.86779712,488.925582 4.86779712,490.912724 C4.86779712,492.899865 2.24276058,511.023558 2.24276058,511.023558 C2.24276058,511.023558 0.0711394432,521.509921 0.0950034118,524.670195 C0.11886738,527.830469 0.333643097,533.767954 0.333643097,533.767954 C0.333643097,533.767954 -0.21522818,538.364716 0.0950034118,539.513906 C0.405235003,540.663097 2.24276058,545.020444 2.24276058,545.020444 C2.24276058,545.020444 0.166595317,545.475332 0.572282783,549.329909 C0.810922469,550.766397 2.69617598,555.770164 4.62915744,555.554691 L6.06099555,555.075861 L12.5042671,563.934205 L24.4362513,574.229037 L31.8340816,581.172063 L33.02728,580.693233 C33.02728,582.824024 33.5045594,587.15743 33.5045594,587.15743 L34.6977578,595.058115 L34.4591181,602.719385 L35.1750372,625.703196 C35.1750372,625.703196 30.3545155,631.80827 32.5500007,635.519198 C33.9341108,636.381091 36.845515,637.913345 36.845515,637.913345 L38.7546325,638.871004 L41.379669,638.631589 L42.3342278,639.589248 L44.2433453,639.589248 L44.9592643,638.871004 C44.9592643,638.871004 47.441117,636.883862 47.3456612,638.392174 C47.2502053,639.900487 47.3456612,640.068077 47.3456612,640.068077 L49.732058,640.307492 L51.1638961,640.307492 L54.266212,641.504565 L54.7434914,637.913345 L55.6980502,641.025736 L56.8912486,639.828663 L57.6071676,641.504565 L60.2322042,641.504565 L62.618601,641.504565 L64.0504392,641.504565 C64.0504392,641.504565 64.1220311,638.296409 65.720917,637.67393 C65.720917,638.871004 65.0049979,641.265151 65.0049979,641.265151 L66.436836,641.265151 C67.2482109,643.276234 70.255071,657.06652 70.255071,657.06652 C70.255071,657.06652 72.0210047,680.170038 75.2665044,691.063407 C75.7199198,693.505437 74.5267214,712.395256 73.5960266,717.399023 C72.8562436,721.684546 68.0595859,760.421843 73.3573869,786.829284 C80.11089,820.610697 83.8575331,843.809981 83.8575331,843.809981 C84.4779962,847.473026 91.494003,872.060915 91.494003,872.060915 L92.6872014,881.158673 L91.7326427,881.398088 L89.8235252,884.989308 L88.6303268,885.707552 L88.1530474,892.889993 L88.6303268,893.368822 L88.3916871,896.720628 L88.8689665,897.438872 L88.8689665,898.396531 L89.5848855,898.635946 L90.0621649,896.241799 L91.0167236,896.241799 C91.0167236,896.864277 91.2553633,897.678287 91.2553633,897.678287 L91.2553633,899.35419 L92.4485617,901.269507 L92.4485617,905.818386 L92.6872014,908.212533 L92.2099221,910.846095 L92.2099221,913.719071 L91.494003,914.67673 L91.494003,917.070877 L91.9712824,917.310292 L91.2553633,919.943853 C90.9928597,921.859171 87.675768,938.13937 87.675768,938.13937 L85.2893712,949.391861 L84.8120918,954.898398 L84.0961727,959.926107 L83.141614,964.474986 C83.141614,964.474986 83.5473015,972.782676 89.5848855,980.755185 C95.6224696,988.727695 101.445278,994.737003 111.539737,993.922993 C115.859115,993.444164 132.563893,990.858485 134.210507,976.445721 C134.974154,970.819476 135.642345,958.968448 135.642345,958.968448 C135.642345,958.968448 134.401418,950.301636 133.255948,946.997714 C132.110477,943.693791 130.296816,928.921904 130.630911,925.450391 C130.965007,921.978878 130.630911,919.465024 130.630911,919.465024 C130.750231,917.142701 130.583184,903.639713 129.676353,900.072434 C128.769522,896.505155 127.528596,891.21409 127.528596,891.21409 C127.528596,891.21409 126.526309,888.173524 124.42628,886.904626 C124.092184,884.678069 123.949,882.834576 123.949,882.834576 L123.949,880.201014 L123.949,878.764526 L120.846684,875.89155 C120.846684,875.89155 120.083037,871.941207 120.608045,867.272621 C121.133052,862.604034 127.289956,830.402758 127.289956,830.402758 C128.005875,825.638406 133.733227,779.407429 133.733227,779.407429 C134.162779,773.924832 135.97644,750.462192 134.210507,740.382834 C134.091187,733.296159 134.210507,723.86322 134.210507,723.86322 L134.926426,713.328973 C135.857121,708.564621 143.111767,680.864341 143.040175,677.416769 C143.254951,673.897373 143.61291,663.889839 143.278815,659.939497 C142.944719,655.989154 142.562896,637.913345 142.562896,637.913345 L143.040175,636.716272 L144.233374,637.913345 L145.187932,636.955686 L146.142491,637.195101 L146.85841,636.476857 L147.574329,636.955686 L148.528888,636.716272 L149.960726,637.195101 L150.438005,637.67393 L151.869843,637.195101 L152.108483,637.913345 L153.301682,637.434516 C153.516457,641.025736 154.972159,663.770132 154.972159,663.770132 C155.091479,668.007772 155.688078,680.289746 155.688078,680.289746 C155.688078,680.289746 158.002883,694.343388 159.267674,700.639995 C159.888137,703.919976 162.847269,720.990243 162.847269,720.990243 C162.847269,720.990243 163.372276,732.913095 162.894997,738.299926 C162.632493,741.986912 162.871133,738.563282 162.847269,738.706931 C162.274534,743.878288 162.059758,767.963406 163.801828,777.492111 C164.684795,784.123898 167.142783,799.518263 167.142783,799.518263 C167.78711,804.210791 170.245099,827.050952 170.245099,827.050952 L173.824695,856.02013 C173.824695,856.02013 176.02018,872.587627 175.495172,876.370379 C175.232669,878.453287 174.015606,884.151357 173.108775,884.989308 C171.796257,886.018791 170.483739,887.14404 170.483739,887.14404 C170.483739,887.14404 167.643927,891.884451 167.381423,896.241799 C167.262103,897.414931 167.667791,900.287907 167.620063,902.705995 C167.453015,904.836786 165.710945,914.437315 165.710945,914.437315 L162.36999,930.238685 L158.313115,944.603567 L155.449439,953.94074 C155.449439,953.94074 153.468729,959.207863 153.540321,961.362595 C153.588049,962.846966 153.421001,976.445721 155.449439,980.276356 L155.449439,981.712844 L155.688078,984.106991 C155.688078,984.106991 155.592623,986.21384 158.074475,988.65587 C160.556328,991.0979 168.932581,995.311599 179.790687,991.768261 C183.107778,990.690895 197.139792,985.926543 201.506898,978.361038 C205.874004,970.795534 206.756971,968.305621 206.756971,968.305621 L207.71153,952.743666 C207.759258,950.325578 208.666089,931.914588 208.666089,931.914588 C208.666089,931.914588 209.787695,928.251543 209.382008,926.886879 C208.97632,925.522216 208.427449,925.210977 208.427449,925.210977 L208.427449,919.704439 C208.427449,919.704439 208.141081,914.557023 206.995611,911.324924 C206.518331,909.696904 204.895582,905.938094 204.847854,905.339557 C204.800126,904.74102 204.370574,901.748337 204.370574,901.748337 L205.325133,901.748337 L208.904728,896.720628 L207.47289,884.989308 L206.995611,884.271064 L206.041052,884.989308 L204.609214,883.55282 L204.609214,879.48277 C204.609214,879.48277 205.014901,878.549053 203.893295,879.003941 C203.893295,876.70556 204.70467,871.342671 205.563773,868.469694 C206.422876,865.596718 212.722963,843.809981 212.722963,843.809981 C212.722963,843.809981 220.860577,812.925486 221.552632,807.179533 C222.459462,802.606712 228.711822,771.985573 228.711822,771.985573 C229.356149,767.963406 230.787987,752.999988 228.711822,741.340492 C227.852719,734.205935 224.416308,709.498338 224.416308,709.498338 C224.416308,709.498338 223.246973,701.406122 222.98447,700.40058 C222.721966,699.395038 221.910591,695.588345 222.029911,691.302822 C222.149231,687.017299 222.98447,671.191987 222.98447,671.191987 L222.98447,662.333644 L227.518624,640.546907 L228.711822,640.546907 L229.189102,639.110418 L229.905021,640.068077 L230.62094,640.068077 L233.007337,640.068077 L233.245976,637.195101 L234.439175,639.828663 L235.393733,639.349833 L236.109652,639.349833 L236.109652,638.871004 L236.825572,639.349833 L239.211968,639.349833 L241.121086,639.349833 L240.405167,635.758613 L241.837005,639.110418 L242.791564,638.631589 L244.462041,639.110418 L245.4166,638.631589 L247.087078,638.631589 L247.564357,638.15276 L248.757556,637.195101 L247.087078,633.603881 C247.087078,633.603881 246.227975,630.108426 245.177961,628.576172 C245.130233,628.264933 244.700681,627.618513 244.700681,627.618513 L245.177961,624.984952 L249.473475,599.367579 L250.666673,593.142797 L252.098511,584.045039 C252.098511,584.045039 254.150813,580.812941 254.007629,576.862598 C255.630379,578.346969 256.632665,578.777916 256.632665,578.777916 L258.303143,578.538501 L263.314577,573.031963 L265.223694,572.792549 L272.382885,565.849522 L276.439759,562.018887 L278.110237,561.540058 C279.971627,559.409267 281.212553,556.991179 281.212553,556.991179 L284.553509,552.4423 L287.655825,549.090494 L288.371744,545.978103 C288.371744,545.978103 290.829732,543.033302 290.75814,541.189809 C291.163828,539.944853 291.951339,537.119759 291.951339,537.119759 L292.428618,525.867269 C293.049081,523.568888 293.407041,517.966584 292.905898,515.093608 C292.643394,512.053041 291.23542,497.137506 291.23542,497.137506 C291.23542,497.137506 291.712699,485.430127 292.189979,484.209112 C292.667258,482.988097 293.669545,477.194262 292.428618,470.562475 C292.428618,466.181186 292.333162,442.646721 295.053655,431.298465 C295.817302,422.871068 299.492353,391.579567 298.63325,387.006747 C299.253713,385.570259 300.804871,382.888814 301.019647,380.303135 C301.234423,377.717457 302.690125,373.599524 302.690125,373.599524 C302.690125,373.599524 303.692411,370.535016 302.690125,369.050645 C302.451485,368.715464 301.568518,366.871971 301.735566,365.459424 C301.902614,364.046878 302.451485,362.586448 302.451485,362.586448 C302.451485,362.586448 302.690125,359.210701 301.974206,358.037569 C302.9049,356.170134 302.928764,354.446349 302.928764,354.446349 C302.928764,354.446349 304.503786,351.717021 303.644684,347.982152 C305.171978,345.516181 306.532224,343.481156 305.792441,341.996785 C305.052658,340.512413 303.883323,338.644979 303.883323,338.644979 L303.406044,331.223123 L302.690125,325.716585 L302.212845,314.22468 L300.781007,313.745851 C300.781007,313.745851 300.184408,312.285421 297.917331,312.788192 C297.917331,312.046006 296.724133,308.718142 296.724133,308.718142 L294.815015,300.578043 C294.767287,299.045789 294.815015,291.719699 294.815015,291.719699 L294.099096,255.56808 L294.337736,245.752078 C294.767287,244.531063 296.390037,241.22714 293.144537,239.766711 L290.99678,239.766711 C290.99678,239.766711 289.421758,229.447937 288.371744,225.641244 C286.916042,220.182589 284.314869,207.685142 284.314869,207.685142 C284.028501,205.578293 283.36031,198.347969 283.36031,198.347969 C283.36031,198.347969 282.548935,191.716182 280.257994,188.292552 C279.661395,186.832122 277.919325,180.248218 276.678399,177.040061 C275.437473,173.831904 273.576083,167.702888 273.576083,167.702888 C272.979484,166.529756 270.951047,161.095043 265.223694,161.238691 C264.603231,161.286574 262.049786,159.993735 261.166819,159.562789 C260.283853,159.131842 257.587224,158.413598 255.678107,158.365715 C254.699684,158.150242 249.950754,156.450398 249.950754,156.450398 C249.950754,156.450398 243.077931,154.36749 241.837005,154.056251 C240.596079,153.745011 238.25741,153.338007 238.25741,153.338007 L234.439175,152.140933 L230.3823,151.183274 L227.279984,146.39498 L227.041344,144.719078 C227.041344,144.719078 229.976613,141.439096 227.279984,139.451954 C224.583356,137.464812 222.50719,136.100149 222.50719,136.100149 C222.50719,136.100149 215.515048,125.182839 216.302559,121.495852 C217.09007,119.389003 220.526481,115.821724 218.450316,106.173312 C217.686669,103.850989 216.063919,96.836139 216.063919,96.836139 C215.896871,94.4180506 213.653658,76.5577145 206.756971,60.205691 C204.179663,54.0048504 189.741962,18.3320612 179.074768,11.1256789 C176.783827,9.21036137 166.235953,1.66879854 157.597196,3.22499405 C156.642637,3.44046727 155.163071,4.13476988 154.25624,5.14031159 C153.611913,4.30236017 152.203939,1.76456442 150.676645,2.50674997 C149.149351,3.24893552 148.290248,2.98557936 148.290248,2.98557936 L148.290248,2.98557936 Z"></path>
    </defs>
    <g id="Page-2" stroke="none" stroke-width="2" fill="none" fill-rule="evenodd" sketch:type="MSPage">
        <g id="Artboard-2" sketch:type="MSArtboardGroup" transform="translate(-4.000000, -3.000000)">
            <g id="kandace_1000px_high" sketch:type="MSLayerGroup" transform="translate(4.000000, 3.000000)">
                <mask id="mask-2" sketch:name="Mask2" fill="white">
                    <use xlink:href="#path-2"></use>
                </mask>
                <use id="Mask2" sketch:type="MSShapeGroup" xlink:href="#path-2"></use>
                <image sketch:type="MSBitmapLayer" mask="url(#mask-2)" x="-4" y="-3" width="313" height="1000" xlink:href="assets/img/team-jpg/kandace.jpg"></image>
            </g>
        </g>
    </g>
</svg>
