<?xml version="1.0" encoding="UTF-8" standalone="no"?>
<svg width="352px" height="993px" viewBox="0 0 352 993" version="1.1" xmlns="http://www.w3.org/2000/svg" xmlns:xlink="http://www.w3.org/1999/xlink" xmlns:sketch="http://www.bohemiancoding.com/sketch/ns">
    <title>melissa_1000px_high</title>
    <defs>
        <path d="M350.683724,321.087965 C349.917665,318.99407 347.87484,297.084779 347.87484,297.084779 L348.896253,296.574073 C348.896253,296.574073 346.776822,284.266057 346.853428,281.252891 C346.930034,278.239725 346.802358,278.009907 346.087369,276.911889 C346.087369,276.350112 345.32131,270.783416 345.32131,270.783416 C344.631857,263.914419 341.261197,237.204491 339.703543,230.182282 C338.14589,223.160073 330.510834,202.859507 330.510834,202.859507 C330.510834,202.859507 330.408692,199.36117 328.723362,196.220327 C327.931768,194.483927 326.910356,191.062196 323.616301,185.4955 C320.322247,179.928803 315.95571,172.906595 310.848649,169.408258 C309.520813,168.693269 305.996941,165.067256 305.996941,165.067256 C305.996941,165.067256 302.038969,162.462655 299.357762,161.492314 C293.893207,158.938783 290.471476,160.266619 288.377581,159.704842 C286.283687,159.143066 285.951728,157.278988 285.057992,156.385253 C284.164256,155.491517 283.015168,155.874547 283.015168,155.874547 L282.504461,156.385253 L278.418813,155.363841 L277.397401,158.428077 L270.502868,156.640606 C270.502868,156.640606 260.824988,152.044251 260.288747,142.340835 C260.927129,138.919105 266.723643,121.401886 262.842277,109.910999 C258.118246,94.2323222 251.096037,72.3741017 248.542507,64.9688635 C245.988976,57.5636252 237.409114,41.2465658 234.753442,35.6032636 C232.097771,29.9599613 221.449549,4.09269808 190.06666,3.42878017 C190.06666,3.42878017 183.478551,-0.631333211 174.745477,1.38595583 C171.553564,2.15201495 158.836983,5.62481634 144.613818,29.7301436 C142.928488,32.7433095 136.136097,48.4730569 135.165756,53.7333296 C134.323091,56.1591835 124.568605,74.2637142 122.90881,77.9918687 C121.27455,81.3625288 116.984619,90.9127326 120.099926,109.400293 C120.253138,110.702593 120.610632,113.485942 120.610632,113.485942 C119.640291,118.261043 119.129585,141.779059 122.142751,148.980015 C123.087557,151.99318 124.798422,161.18589 120.610632,164.045844 C119.665826,164.531015 117.801749,166.088668 117.801749,166.088668 L116.269631,166.088668 L115.248218,166.854728 L114.992865,170.42967 L111.928629,169.918964 L107.587627,175.281378 C106.413003,173.928007 104.370179,173.391765 103.501979,174.004613 C102.633778,174.61746 102.991272,179.111674 102.991272,179.111674 L98.6502707,181.920557 C98.6502707,181.920557 97.0160112,181.001286 95.8413872,182.431263 C94.6667632,183.86124 95.0753281,184.729441 95.0753281,184.729441 L89.7129142,188.559736 C89.7129142,188.559736 86.6486777,188.074565 85.8826186,189.581148 C85.499589,190.321672 85.1165594,193.411444 85.1165594,193.411444 L82.307676,195.454268 C82.307676,195.454268 79.1412982,195.505339 77.9666742,196.731034 C76.7920502,197.956728 76.434556,201.327388 76.434556,201.327388 C74.9790436,202.629689 69.0293177,208.732627 69.0293177,208.732627 C69.0293177,208.732627 66.3736461,208.962444 65.4543751,210.520098 C64.5351042,212.077751 63.6669038,214.8611 63.6669038,214.8611 C62.8497741,215.7293 60.6026673,218.180689 60.6026673,218.180689 C60.6026673,218.180689 58.9428725,217.976407 58.3044899,218.946748 C57.6661073,219.91709 57.0277247,223.032397 57.0277247,223.032397 L53.7081352,226.351986 C53.7081352,226.351986 51.8185227,226.428592 51.4099578,227.118046 C51.0013929,227.807499 50.6438987,229.671576 50.6438987,229.671576 L47.3243091,232.735813 C47.3243091,232.735813 46.0986145,232.582601 45.5368378,233.246519 C44.9750611,233.910437 44.7707787,235.03399 44.7707787,235.03399 L43.4940135,235.03399 L41.4511891,237.076814 L41.4511891,238.35358 C40.2765651,239.196245 33.7905978,244.737406 33.7905978,244.737406 L32.5138326,246.014171 L32.0031265,247.290936 C29.8836963,249.563578 18.7247683,262.867472 18.7247683,262.867472 C18.7247683,262.867472 7.8977993,274.332823 1.87146749,289.424188 C1.25862018,290.777559 -4.20593493,299.995804 6.97852834,317.513023 C8.94474677,320.551724 28.683537,346.955229 30.2156552,348.921447 C31.7477735,350.887665 47.5796621,367.817572 47.5796621,367.817572 L72.6042603,392.076111 C72.6042603,392.076111 82.7417761,401.626315 85.3719125,403.056292 C88.436149,405.048046 91.5003855,406.886588 91.5003855,406.886588 C91.5003855,406.886588 95.994599,410.46153 102.225213,406.886588 C103.885008,405.916246 104.829814,406.299276 105.28945,406.120529 C104.574461,407.780323 103.476443,409.746542 104.778744,413.78112 C104.395714,414.572714 103.297696,415.721803 102.225213,418.122122 C102.046466,419.70531 101.893254,420.139411 102.735919,422.973829 C102.659313,424.557018 101.331478,425.859319 101.203801,427.570184 C101.076125,429.28105 100.590954,432.447427 98.9056237,433.443304 C97.2202937,434.439181 96.7606582,435.792552 96.3520933,439.571777 C96.2754874,440.465513 96.0967403,442.636014 96.0967403,442.636014 C96.0967403,442.636014 93.9262394,441.89549 93.5432098,443.402073 C93.1601803,444.908656 91.4237796,449.45394 92.0110916,452.850135 C91.3216384,453.897083 89.9682672,456.169725 89.9682672,456.169725 C89.9682672,456.169725 89.8916613,457.599702 90.9896794,458.978608 C90.9896794,460.536262 90.4789733,461.787492 90.4789733,461.787492 L86.9040307,472.001614 C86.1890422,474.018903 82.4353525,487.041908 82.563029,495.494094 C82.1289288,498.098695 80.4180634,506.55088 80.5202047,510.559923 C80.5968106,513.087918 82.4608878,537.678416 89.7129142,561.375179 C92.1387681,569.572011 104.523391,613.722552 104.523391,613.722552 C105.646944,618.57426 111.16257,644.364918 111.16257,644.364918 C111.16257,644.364918 109.860269,647.173801 110.651864,648.195213 C111.443458,649.216625 111.673276,650.748744 111.673276,650.748744 C111.673276,650.748744 112.337194,654.017263 112.439335,655.089745 C112.541476,656.162228 114.482159,663.771749 114.482159,663.771749 L114.992865,669.134163 L115.758925,671.687693 C115.758925,671.687693 117.163366,680.573979 117.03569,681.391109 C116.908013,682.208238 117.546396,687.774935 117.546396,687.774935 C117.546396,687.774935 118.389061,688.975094 118.312455,690.839171 C118.235849,692.703248 118.312455,694.669467 118.312455,694.669467 L119.333867,697.989056 L119.333867,700.79794 L119.844573,702.840764 C119.640291,703.479147 119.58922,706.415707 119.58922,706.415707 L120.610632,709.990649 L118.823161,714.076298 C118.618879,715.072175 119.895644,717.217141 120.355279,719.438712 C120.814915,721.660284 118.746555,725.005408 119.58922,727.354656 C120.431885,729.703904 121.376691,735.781307 121.376691,735.781307 L124.951634,761.571964 L128.78193,792.725035 L132.612225,812.131867 C132.612225,812.131867 134.987009,821.528859 141.038876,833.836875 C141.549582,835.752023 143.592406,842.774232 143.592406,842.774232 C143.592406,842.774232 149.33785,862.129992 149.465526,863.202475 C148.980355,863.891928 147.907873,863.432293 147.933408,865.756006 C148.112155,867.620083 148.188761,870.097007 148.188761,870.097007 L148.699467,878.012952 C148.699467,878.012952 149.491062,882.583771 154.470446,883.937142 C157.381471,884.728737 160.420172,885.750149 161.467119,886.439602 C162.948167,891.444522 164.327073,896.909077 164.786709,902.526844 C164.914385,904.007891 164.531356,907.889258 164.531356,907.889258 C164.531356,907.889258 163.075843,911.285453 163.765297,914.273084 C164.45475,917.260714 165.297415,920.65691 165.297415,920.65691 L164.02065,925.508618 L163.254591,929.849619 C162.590673,931.330667 158.658236,938.786976 158.658236,938.786976 L155.338646,945.426155 C155.338646,945.426155 153.934204,945.783649 153.806528,949.001098 C153.295822,950.635357 152.785116,952.831393 152.785116,952.831393 C152.785116,952.831393 150.767827,959.572713 151.252998,962.534809 C151.252998,963.530686 152.606369,970.144329 152.529763,970.961459 C152.453157,971.778589 152.529763,974.791755 152.529763,974.791755 C152.529763,974.791755 152.32548,981.737358 161.467119,987.048701 C165.680444,989.014919 174.643336,993.662345 188.279189,992.921821 C190.602901,992.845215 206.715678,991.849338 208.707432,980.154169 L209.984197,975.557814 C210.494903,976.88565 211.516316,980.358451 214.580552,982.707699 C217.644789,985.056947 221.372943,987.763689 227.603557,989.602231 C233.783101,991.440773 253.087791,991.466309 261.054806,981.175581 C262.969954,978.009203 266.136331,971.395559 263.352983,964.577633 C263.53173,961.947497 264.042436,955.257247 260.288747,950.788569 C256.535057,946.319891 255.181686,943.127978 255.181686,943.127978 L247.776448,932.147797 C247.776448,932.147797 245.988976,928.164289 246.244329,926.53003 C246.244329,924.972376 244.201505,922.39331 242.669387,921.167616 C241.137269,919.941921 238.839091,915.805202 238.839091,915.805202 C238.839091,915.805202 238.992303,913.481489 239.349797,911.208847 C239.707292,908.936205 239.426403,903.599327 238.073032,899.973313 C240.115856,898.083701 247.291277,893.359669 248.79786,884.396778 C249.946949,881.843247 250.585331,879.54507 250.585331,879.54507 C250.585331,879.54507 251.274784,876.991539 249.819272,873.67195 C251.30032,869.382019 259.037517,842.697626 260.033394,837.411818 C261.029271,832.12601 264.374395,820.81387 264.374395,820.81387 L269.736809,797.32139 L271.779634,774.594969 C271.85624,772.271257 273.618176,770.305038 271.268928,766.168319 L271.268928,762.338023 C271.268928,762.338023 274.02674,758.635404 271.524281,754.932785 C272.213734,753.936908 275.712071,749.289483 270.758222,743.186545 C271.166786,742.011921 272.954258,739.02429 270.247515,736.03666 C273.030864,728.784633 271.47321,722.937049 271.524281,719.949418 C272.979793,714.791287 275.252435,716.272334 274.84387,713.820945 C274.435305,711.369556 274.052276,711.267415 274.077811,710.246003 C274.333164,707.743543 274.920476,701.844887 275.354576,700.031881 C275.788676,698.218874 276.580271,697.018715 276.631341,695.946232 C276.682412,694.873749 277.116512,690.890242 277.397401,688.540994 C277.678289,686.191746 278.59756,687.238693 278.418813,683.433933 C278.291136,681.365573 279.950931,680.114343 279.950931,680.114343 L280.71699,674.241224 C280.71699,674.241224 281.53412,668.419174 282.759815,661.218218 C284.113186,651.795691 289.501135,612.624534 289.9097,601.465606 C291.467353,599.959023 294.09749,598.222623 291.186465,591.251485 C291.186465,587.982966 294.174096,561.630532 294.250701,561.119826 C294.327307,560.609119 295.067831,558.745042 294.761408,555.246706 C294.454984,551.748369 292.718583,524.093634 292.718583,524.093634 L291.952524,515.666984 L291.697171,509.027805 L290.931112,505.452862 L290.165053,498.302977 C290.165053,498.302977 290.394871,490.693456 291.186465,489.876327 C291.978059,489.059197 292.207877,488.088855 292.207877,488.088855 L292.207877,483.492501 C292.207877,483.492501 292.131271,481.117717 292.207877,479.662205 C292.999472,477.670451 294.403913,475.321203 292.46323,471.746261 C293.152683,470.418425 294.174096,470.060931 294.250701,468.426671 C294.327307,466.792412 293.791066,467.277582 292.718583,465.617788 C291.6461,463.957993 291.543959,464.009063 294.506054,459.744668 C294.863549,458.748791 295.144437,447.33451 294.506054,441.614602 C294.735872,437.988588 295.78282,432.421892 295.78282,432.421892 C295.78282,432.421892 295.884961,428.51499 293.229289,425.016654 C297.800109,421.543852 296.702091,396.621395 292.718583,389.011875 C293.101613,387.990463 292.386624,383.572855 291.186465,381.09593 C289.986306,378.619006 290.165053,375.22281 290.165053,375.22281 C290.165053,375.22281 294.327307,374.507822 291.186465,371.647868 C291.263071,370.217891 290.931112,367.051513 290.931112,367.051513 C290.931112,367.051513 294.250701,365.059759 291.441818,363.221217 C290.190588,362.276411 290.165053,361.689099 290.165053,361.689099 L290.675759,359.390922 C293.995348,361.35714 300.251498,367.332401 310.848649,367.562219 C313.044685,367.740966 316.977122,369.094337 316.977122,369.094337 C319.173158,369.528438 320.935094,369.783791 322.084183,369.860397 C323.233272,369.937002 327.140173,370.294497 327.957303,371.392515 C328.774433,372.490533 334.570947,376.244223 339.192837,370.11575 C341.491014,367.638825 348.181264,360.795364 348.6409,357.348097 C349.202676,355.381879 350.173018,352.751743 350.173018,352.751743 L350.683724,342.792974 C351.730671,339.601061 351.449783,323.18186 350.683724,321.087965 L350.683724,321.087965 Z M130.314048,325.939673 C130.314048,325.939673 130.160836,327.012156 129.292636,327.471791 C126.994458,330.076392 128.654253,333.804547 129.547989,335.387736 C131.309925,337.098601 130.262977,338.477508 129.803342,339.728737 C129.343706,340.979967 126.253935,343.405821 125.46234,344.325092 C124.670746,345.244363 125.002705,346.316846 124.951634,347.644682 L121.376691,354.794567 C121.376691,354.794567 117.137831,361.229464 116.014278,362.455158 C112.873435,363.629782 110.651864,367.562219 110.651864,367.562219 C110.651864,367.562219 104.421249,374.78871 103.501979,375.98887 C102.582708,377.189029 101.586831,377.418847 101.203801,377.265635 C98.4715236,374.839781 88.1807959,362.710511 88.1807959,362.710511 L75.1577908,346.878623 C75.1577908,346.878623 67.292917,336.17933 65.9650812,333.600264 C65.9650812,333.600264 49.0862451,309.903502 46.3028969,306.022136 L49.1117804,301.170428 L68.2632586,284.317127 L70.816789,281.252891 L72.3489073,280.231479 L79.2434394,272.82624 L83.5844412,269.506651 C83.5844412,269.506651 86.8018895,266.672232 88.1807959,265.421002 L90.7343264,264.910296 L92.5217977,261.335353 L94.8199751,260.058588 L95.8413872,258.781823 L98.6502707,258.271117 L102.991272,252.908703 L105.28945,253.419409 L107.076921,252.142644 C107.076921,252.142644 109.834734,247.418613 110.396511,246.269524 C111.520064,246.958977 113.971453,246.014171 113.971453,246.014171 C112.771294,248.312348 114.482159,253.930115 114.482159,253.930115 C114.482159,253.930115 114.839654,253.317268 115.503572,254.185468 C116.167489,255.053669 119.333867,258.271117 119.333867,258.271117 C119.333867,258.271117 121.836327,261.131071 121.887398,262.356766 C121.427762,264.910296 123.930222,267.208473 123.930222,267.208473 C123.930222,267.208473 123.700404,276.350112 123.674869,278.954713 C123.649334,281.559314 126.739105,293.509837 126.739105,293.509837 L128.271224,299.127604 C128.271224,299.127604 129.496918,302.064164 129.547989,304.234665 L130.058695,308.320313 L131.846166,312.661315 L131.33546,315.470198 L132.356872,317.002317 C132.356872,317.002317 130.952431,316.900175 130.824754,318.534435 C130.748148,319.402635 132.433478,321.470995 132.612225,322.364731 C131.514207,323.028648 130.314048,325.939673 130.314048,325.939673 L130.314048,325.939673 Z M202.323606,905.59108 C202.272535,906.510351 202.221465,910.723676 202.068253,911.4642 C201.327729,912.740965 202.068253,915.039143 202.068253,915.039143 C202.068253,915.039143 201.8129,916.90322 201.8129,917.592673 C199.565793,915.21789 199.770076,903.548256 199.770076,903.548256 L197.471898,896.653724 C197.471898,896.653724 194.867297,890.397574 194.663015,890.014545 C194.458732,889.631515 193.130897,883.375366 193.130897,883.375366 L192.364837,879.034364 L194.918368,876.480833 L196.195133,876.480833 L197.471898,875.459421 L197.982604,887.97172 L199.514723,889.248486 L202.068253,892.312722 C202.068253,892.312722 204.36643,896.372835 204.36643,897.16443 C202.885383,899.079578 202.374677,904.671809 202.323606,905.59108 L202.323606,905.59108 Z M206.409255,767.445084 C205.515519,768.798455 203.396089,779.727565 202.068253,785.064444 C200.740417,790.401323 199.004016,807.790865 199.004016,807.790865 L199.514723,820.81387 L201.046841,841.75282 L200.536135,857.840061 L200.280782,864.989946 L197.727251,867.79883 L196.705839,862.436416 L196.961192,861.159651 C196.961192,861.159651 195.531215,856.971861 195.173721,856.307943 C194.816227,855.644025 193.641603,855.541884 193.641603,855.541884 L193.38625,848.391999 L192.62019,835.368993 C192.62019,835.368993 192.339302,813.459702 192.364837,812.131867 C192.62019,802.632733 190.577366,786.902986 190.577366,783.02162 C190.577366,779.140253 187.768483,765.146907 187.768483,765.146907 C187.768483,765.146907 186.491717,755.954197 186.74707,754.166726 C187.002423,752.379255 184.19354,743.773857 183.427481,740.377662 C182.661422,736.981466 182.406069,735.091854 182.661422,734.759895 C183.989258,733.304382 183.682834,731.236023 183.682834,730.418893 C184.346752,729.269804 184.142469,728.069645 184.19354,726.333244 C184.244611,724.596844 181.920898,722.707231 180.618597,720.97083 C179.316297,719.23443 181.308051,716.859646 183.427481,714.842357 C185.546911,712.825068 183.478551,709.17352 182.661422,708.458531 C181.844292,707.743543 181.69108,707.360513 181.895363,706.926413 C183.555157,705.777324 185.725658,699.776528 185.725658,699.776528 C185.725658,699.776528 185.853335,693.903408 185.725658,692.881996 L185.725658,692.626643 L187.51313,685.987463 L187.768483,679.092931 L187.768483,659.430747 C187.768483,659.430747 187.640806,653.37888 187.768483,652.280862 C188.177047,650.391249 187.768483,644.875624 187.768483,644.875624 C187.768483,644.875624 186.925818,641.428358 186.74707,640.789975 C186.568323,640.151592 186.74707,638.491798 187.002423,637.981091 C187.819553,635.75952 186.644929,631.341912 186.491717,630.831206 C186.338506,630.3205 186.236364,628.022323 186.236364,628.022323 L186.74707,624.44738 C186.74707,624.44738 186.772606,622.455626 187.002423,621.638497 C187.002423,621.638497 188.202583,618.880684 188.789895,617.808201 C189.760236,617.348566 188.534542,611.169022 188.534542,611.169022 L188.789895,607.338726 L189.045248,606.317314 L189.811307,602.742372 C190.424154,603.431825 191.088072,611.679728 191.088072,611.679728 L193.641603,627.76697 L194.918368,637.470385 L196.450486,647.173801 L198.748663,672.198399 L199.770076,686.49817 L200.280782,702.840764 C200.280782,702.840764 199.74454,705.113406 199.514723,706.160354 C199.284905,707.207301 200.791488,709.735296 200.791488,709.735296 L200.791488,714.587004 C200.791488,714.587004 201.327729,719.438712 201.046841,721.226183 C200.765952,723.013655 200.536135,728.120716 200.536135,729.397481 C200.868094,731.236023 202.068253,733.661877 201.8129,735.270601 C201.557547,736.879325 200.868094,741.09265 200.280782,742.675839 C199.69347,744.259028 202.093788,745.382581 202.834312,745.740075 C203.983401,746.480599 205.106954,748.472353 204.36643,749.315018 C202.017182,750.974813 204.034471,753.119778 204.621783,753.911373 C205.209095,754.702967 206.460325,756.873468 206.153902,757.741668 C203.345018,761.597499 205.56659,763.768 205.898549,764.380848 C206.230508,764.993695 206.715678,766.602419 206.409255,767.445084 L206.409255,767.445084 Z M292.973936,310.363138 L295.78282,301.936487 L297.825644,293.254484 L299.102409,296.829426 L299.613115,302.447193 L300.123821,303.723958 L300.634528,313.93808 L292.973936,310.363138 L292.973936,310.363138 Z" id="path-5"></path>
    </defs>
    <g id="Page-5" stroke="none" stroke-width="1" fill="none" fill-rule="evenodd" sketch:type="MSPage">
        <g id="Artboard-5" sketch:type="MSArtboardGroup" transform="translate(-4.000000, -3.000000)">
            <g id="melissa_1000px_high" sketch:type="MSLayerGroup" transform="translate(4.000000, 3.000000)">
                <mask id="mask-5" sketch:name="Mask" fill="white">
                    <use xlink:href="#path-5"></use>
                </mask>
                <use id="Mask" sketch:type="MSShapeGroup" xlink:href="#path-5"></use>
                <image sketch:type="MSBitmapLayer" mask="url(#mask-5)" x="-4" y="-3" width="359" height="1000" xlink:href="assets/img/team-jpg/melissa.jpg"></image>
            </g>
        </g>
    </g>
</svg>
