<?xml version="1.0" encoding="UTF-8" standalone="no"?>
<svg width="313px" height="995px" viewBox="0 0 313 995" version="1.1" xmlns="http://www.w3.org/2000/svg" xmlns:xlink="http://www.w3.org/1999/xlink" xmlns:sketch="http://www.bohemiancoding.com/sketch/ns">
    <title>gritchelle_1000px_high</title>
    <defs>
        <path d="M311.318159,946.108953 C309.521083,944.60258 309.468228,945.316125 309.468228,945.316125 C309.098241,943.756897 306.614048,939.158496 303.654157,937.123571 C300.694267,935.088646 284.362014,929.195293 284.362014,929.195293 C284.362014,929.195293 273.764549,924.226905 270.619666,921.795567 C267.474782,919.364228 264.012767,915.452944 264.012767,915.452944 L256.877317,903.824803 L256.877317,902.7677 C256.877317,902.7677 250.03257,892.672359 249.477591,892.196662 C248.922612,891.720966 248.420487,890.875283 248.420487,890.875283 L249.741867,888.496799 C249.741867,888.496799 250.111853,887.043282 248.684763,885.325488 C248.684763,884.664798 248.076929,881.282066 247.363384,880.832797 L247.099108,878.71859 L245.777728,876.604382 L250.006143,873.168795 C250.006143,871.609567 249.477591,861.276378 249.477591,861.276378 L248.949039,860.483551 L250.006143,859.162171 L250.534695,853.876652 C250.534695,853.876652 250.085426,851.313176 249.213315,850.705341 C248.341204,850.097506 248.949039,847.798306 248.949039,847.798306 L250.798971,844.891271 L251.856074,828.241887 C252.966033,825.01772 257.405869,808.685468 257.405869,808.685468 C257.405869,808.685468 269.509707,766.612739 270.619666,760.587248 C271.729624,754.561757 273.526701,739.180898 273.526701,739.180898 L274.84808,736.802414 C274.84808,736.802414 275.958039,733.128979 274.84808,731.25262 C274.63666,730.565502 275.112356,729.138412 275.112356,729.138412 L275.905184,726.231377 C275.905184,726.231377 279.948606,722.79579 279.869323,721.47441 C279.79004,720.153031 279.869323,717.510271 279.869323,717.510271 C279.869323,716.849581 281.719255,713.546132 281.719255,713.546132 C281.719255,713.546132 287.454042,706.278544 287.797601,704.825026 C288.14116,703.371509 291.286043,688.75705 290.704636,684.740056 C290.123229,680.723061 286.476221,663.597981 286.476221,663.597981 L274.583805,616.556865 L255.027386,553.923469 L238.906554,516.660563 L234.942415,505.032422 C234.942415,505.032422 233.67389,500.43402 231.771104,500.539731 C229.868317,500.645441 229.101917,498.266958 229.656896,497.36842 C230.211876,496.469881 231.268979,493.642129 229.128344,491.290073 C226.987709,488.938017 226.485585,484.947451 226.485585,484.947451 C226.485585,484.947451 224.873502,476.517049 221.728618,475.962069 C218.583734,475.40709 219.006576,474.032855 219.614411,473.31931 C220.222245,472.605765 221.992894,470.147999 221.992894,470.147999 L221.728618,467.505239 C222.495018,466.95026 223.948536,464.994618 223.314274,464.333928 C222.680011,463.673238 220.407238,463.805376 220.407238,463.805376 L219.878687,462.748273 C219.878687,462.748273 221.279349,457.277761 221.200066,456.40565 C221.120783,455.53354 219.878687,452.177235 219.878687,452.177235 C219.878687,451.225842 218.980148,443.799688 218.028755,442.13475 C217.077362,440.469811 216.971651,437.906335 216.971651,437.906335 C216.971651,437.906335 219.29728,432.832237 219.085859,431.299437 C218.874438,429.766636 218.028755,427.071022 218.028755,427.071022 C220.407238,426.833173 225.428481,427.599574 225.428481,427.599574 C225.428481,427.599574 247.706942,428.313119 253.706006,427.071022 C259.70507,425.828925 262.744243,424.058276 263.219939,423.106883 L263.219939,409.893086 C263.219939,409.893086 262.638532,390.574515 263.219939,383.465493 C263.801346,376.35647 267.580492,362.376273 264.012767,361.002039 C259.282228,358.834976 250.323274,356.456493 237.84945,356.773624 C236.554498,355.954368 232.828207,353.602313 232.828207,353.602313 C232.828207,353.602313 227.886247,352.148795 226.221309,352.545209 C224.556371,352.941623 220.93579,355.980796 220.93579,355.980796 L214.593168,351.488105 L207.457718,343.295551 C210.364753,338.432874 215.518134,327.069009 215.650272,322.946304 C215.835265,316.894386 216.54881,293.585248 216.443099,290.176089 C216.337389,286.766929 214.593168,276.43374 214.593168,276.43374 C215.597416,278.547948 218.715872,283.172777 219.614411,289.911813 C220.010825,287.427619 216.310961,271.49178 215.385996,269.034014 C214.46103,266.576248 211.289719,259.810784 210.364753,258.198701 C209.439787,256.586618 202.040061,243.82209 200.850819,242.342145 C199.344447,240.439358 191.865438,230.714004 191.865438,230.714004 C191.812583,226.115603 191.654017,204.154273 189.75123,199.529444 C196.12028,197.758795 217.235927,190.200504 219.878687,173.894679 C219.878687,171.331202 219.429417,162.742234 209.043373,151.166948 C207.352007,149.211307 201.511509,138.111717 200.850819,136.10322 C200.19013,134.094723 196.093853,122.625148 196.093853,122.625148 C196.093853,122.625148 194.508197,117.075353 188.694127,115.753974 C182.853628,114.406166 170.459087,114.829008 160.416602,120.51094 C160.416602,119.453837 159.88805,106.187185 160.152326,102.804453 C160.945154,96.6732512 161.922975,74.923342 155.659635,57.0847166 C153.016876,50.2663975 146.647826,31.7935099 143.767218,28.0143641 C140.807328,24.1295079 133.301891,12.2370909 119.718108,5.81518575 C106.134325,-0.606719403 100.37311,0.00111524089 96.4618262,0.529667105 C92.5505424,1.05821897 90.9120316,2.9081505 90.9120316,2.9081505 C90.9120316,2.9081505 88.2692723,1.98318473 85.3622371,2.1153227 C82.4552018,2.24746066 74.5269238,2.82886772 67.6557496,8.722221 C65.8058181,9.46219361 55.4990567,16.5976438 51.2706418,24.8430529 C49.1828619,28.146502 43.527357,40.8317468 42.813812,56.5561647 C42.6023912,59.7803311 41.2281564,85.2829586 41.4924323,89.3263803 C41.6245703,91.229167 41.8888462,98.2589068 42.5495361,105.182936 C43.2895087,112.926221 44.3994676,120.51094 44.3994676,120.51094 C44.8223091,122.625148 50.3721036,146.806396 51.0063659,154.602536 C51.0063659,156.63746 51.2706418,162.795089 51.2706418,162.795089 L44.3994676,167.552056 L42.0209842,167.552056 L38.3211211,171.251919 C38.3211211,171.251919 35.599079,171.939037 34.885534,172.573299 C34.171989,173.207561 32.5070506,174.687506 32.5070506,174.687506 L26.9572561,178.123094 C26.9572561,178.123094 25.9265799,178.863066 24.3144967,179.444473 C22.5967032,180.078735 10.0964516,183.884309 5.81518147,194.243925 C4.1502431,198.525196 0.556090423,209.756923 0.265386897,238.378006 C0.186104118,239.857951 -0.131027001,268.716883 3.43669808,280.133603 C4.36166385,284.044887 13.2149076,312.639543 13.2149076,312.639543 C13.2149076,312.639543 16.9940534,320.541393 17.9718744,324.53196 C18.9496953,328.522527 24.8694762,345.356903 26.9572561,348.845346 C29.0450359,352.333788 33.2734508,360.684908 36.9997415,364.701902 C38.1889832,366.128992 42.4438257,370.278124 44.9280194,371.3088 C43.2366535,372.709462 42.5759636,374.902953 43.0780879,376.594319 C43.0780879,377.255008 43.4480742,378.99923 45.4565713,380.029906 C45.2451506,380.505602 44.6108883,382.06483 45.9851232,384.786873 C44.6373159,385.658983 42.0474118,389.09457 40.9638805,392.979426 C39.8803491,396.864283 38.849673,403.286188 38.849673,403.286188 C38.849673,403.286188 37.9247072,413.91008 38.849673,415.178605 C39.7746388,416.447129 40.2503354,417.583516 39.3782249,418.08564 C38.5061143,418.587764 36.3390516,421.679793 35.9426377,424.956814 C35.9426377,426.753891 34.5948305,429.634498 34.3569822,430.242333 C34.1191338,430.850168 33.8284303,433.413644 33.8284303,433.413644 C33.8284303,433.413644 30.5778363,435.659989 30.6571191,438.170611 C30.7364019,440.681232 31.9784988,442.13475 31.9784988,442.13475 C31.185671,442.980433 29.8642913,446.627441 29.8642913,446.627441 L29.6000154,449.798752 C29.6000154,449.798752 26.7194077,454.661429 26.4287042,462.483997 C25.2658901,462.827555 23.7859449,463.805376 23.7859449,463.805376 C23.7859449,463.805376 21.1431855,467.214536 24.8430486,469.619447 C25.7680144,469.989433 26.4287042,470.676551 26.4287042,470.676551 C25.9265799,471.522233 22.9666895,484.868168 22.2002893,489.704418 C21.4338891,494.540667 18.8439849,506.80307 20.3503577,514.546355 C19.6896679,515.709169 18.0775847,517.770522 18.5004262,519.039046 C18.9232677,520.307571 20.1653646,521.708233 21.6717374,521.946081 C21.2488959,523.05604 20.852482,534.129202 25.1073245,542.559604 C25.7944419,544.885232 28.0143598,552.04711 27.4858079,552.866365 C26.9572561,553.685621 26.507987,555.45627 26.6929801,555.773401 C26.8779733,556.090532 28.2257805,556.354808 29.8642913,556.037677 C29.5735878,556.513373 29.7057257,561.111775 31.4499469,566.87299 C33.1941681,572.634205 36.9204587,593.723425 37.5282933,598.321826 C38.136128,602.920227 43.0780879,634.791904 43.0780879,634.791904 L48.6278825,666.24074 C48.6278825,666.24074 48.6014549,672.028383 49.6849862,674.433294 C49.6849862,675.411115 49.2621447,680.168082 50.2135381,682.097296 C49.4999931,683.180828 46.9629441,684.555062 49.6849862,690.554126 C48.9978688,691.479092 47.8879099,694.782541 48.3636066,696.896748 C48.3636066,697.716004 47.8350547,701.125163 47.8350547,701.125163 C47.8350547,701.125163 45.9058404,703.767923 46.513675,705.88213 C47.1215097,707.996338 47.0422269,708.789165 47.0422269,708.789165 L45.7208472,713.281856 L45.1922954,714.603236 L44.9280194,716.717443 L44.3994676,718.303099 L44.3994676,720.153031 C44.1880468,721.315845 40.8581701,738.123794 40.6996045,746.8449 C40.541039,755.40744 40.9110253,776.523087 44.3994676,789.129049 C47.8879099,801.735011 59.0403542,828.215459 60.5202994,831.148922 C62.0002447,834.082385 66.8629218,855.198032 66.8629218,855.198032 C66.8629218,855.198032 68.7392809,862.280627 70.2985089,864.711965 C70.0078054,865.293372 69.2414052,866.033345 69.2414052,866.033345 L69.7699571,869.733208 L70.034233,872.375967 C70.034233,872.375967 70.9063436,881.229211 73.7340961,883.211281 C74.0247996,884.109819 74.7911998,885.325488 74.7911998,885.325488 L80.0767184,886.118316 L81.1338222,886.118316 L79.5481666,889.818179 L77.698235,889.289627 L74.7911998,887.968247 L73.2055442,890.082455 C73.2055442,890.082455 76.1654346,894.997987 76.1125794,896.425077 C76.0597243,897.852167 74.7911998,899.067837 74.7911998,899.067837 L72.1484405,897.746457 L70.8270608,897.746457 L70.034233,898.275009 C70.034233,898.275009 72.3334336,902.080582 72.6769923,904.617631 C73.020551,907.15468 72.9412683,910.960254 72.9412683,910.960254 L72.6769923,922.324119 L62.105955,922.059843 C62.105955,922.059843 64.4315832,933.265142 66.3343699,934.480812 C69.2149776,934.771515 79.5481666,936.595019 79.5481666,936.595019 C80.3409944,938.259957 81.662374,941.616262 81.662374,941.616262 L85.8907889,954.565782 L89.8549279,965.401096 C89.8549279,965.401096 95.827564,970.395911 99.8974133,971.743718 C100.505248,971.743718 107.825691,970.158062 107.825691,970.158062 C107.825691,970.158062 111.763403,979.328437 113.11121,981.257652 C114.459017,983.186866 119.030991,990.428026 149.052737,994.471448 C151.933344,994.682869 170.194811,995 170.194811,995 C170.194811,995 187.319892,993.599338 190.544058,988.657378 C191.17832,986.992439 191.865438,985.750342 191.865438,985.750342 L193.979645,982.050479 C193.979645,982.050479 192.288279,977.267085 191.601162,976.764961 C190.914044,976.262836 189.75123,975.707857 189.75123,975.707857 C189.75123,975.707857 187.399174,970.977318 186.315643,970.158062 C185.232112,969.338807 178.863062,964.185426 176.273158,963.286888 C175.37462,961.991936 174.423226,960.908405 174.423226,960.908405 L170.987639,958.265645 L166.759224,952.451575 L163.852189,948.751712 L162.530809,949.280264 C161.473706,947.773891 159.359498,945.316125 159.359498,945.316125 C159.359498,945.316125 153.62471,936.621447 151.166944,934.480812 C148.709178,932.340176 148.524185,929.988121 148.524185,929.988121 C148.524185,929.988121 145.670005,917.355731 141.917287,914.395841 C141.838004,913.391592 141.124459,908.053218 141.124459,908.053218 L140.331631,906.467563 L141.388735,905.410459 C141.388735,905.410459 142.022997,895.711532 136.896044,893.253766 C136.60534,892.751642 136.367492,892.460938 136.367492,892.460938 L137.953148,890.875283 L137.953148,884.268384 C137.953148,884.268384 135.416099,878.533597 134.781836,877.925762 C134.147574,877.317927 133.724733,876.075831 133.724733,876.075831 L132.667629,868.411828 C132.667629,868.411828 129.760594,864.315552 124.210799,864.447689 C123.259406,862.782751 121.832316,859.954999 121.832316,859.954999 L121.039488,855.726584 C121.039488,855.726584 120.167377,854.246639 118.92528,853.083824 C118.71386,852.872404 118.555294,852.740266 118.423156,852.634555 C118.423156,852.687411 118.396729,852.766693 118.396729,852.819548 C118.396729,852.819548 117.921032,852.211714 118.423156,852.634555 C118.528867,852.026721 118.661005,851.233893 118.661005,851.233893 C118.661005,851.233893 118.81957,842.539215 118.132453,840.927132 C117.445335,839.315048 115.753969,834.320233 115.753969,834.320233 C115.19899,832.523157 114.696866,827.184783 114.696866,827.184783 L111.78983,785.429186 L109.939899,764.022835 L108.882795,750.016211 L108.882795,741.823657 C108.882795,741.823657 110.759154,736.088869 109.147071,732.309723 C109.622768,730.565502 109.675623,729.93124 109.675623,729.93124 L111.78983,724.381445 L112.318382,719.360203 L113.904038,715.924616 L115.489693,710.903373 C115.489693,710.903373 122.017309,703.847205 120.24666,697.689576 C120.35237,696.209631 121.039488,691.082678 121.039488,691.082678 L123.946523,682.097296 C123.946523,682.097296 125.875737,672.847639 125.532179,669.412052 C125.400041,667.747113 125.532179,659.633842 125.532179,659.633842 L126.853558,652.498392 L134.51756,613.64983 L136.631768,599.114654 C136.631768,599.114654 140.225921,582.174566 140.860183,579.822511 C141.494445,577.470455 143.238666,571.629957 143.238666,571.629957 C145.141453,575.118399 157.245291,595.679066 157.245291,595.679066 L176.273158,624.485143 C176.273158,624.485143 194.006073,652.260544 194.508197,654.084047 C195.010321,655.907551 198.736612,661.483774 198.736612,661.483774 C198.736612,661.483774 204.814958,673.799032 205.079234,675.226122 C205.34351,676.653212 207.695566,681.225186 209.571925,683.682952 C209.571925,684.951476 209.809774,688.651339 210.364753,689.497022 C210.919732,690.342705 213.80034,690.818402 213.80034,690.818402 C213.879623,691.558375 213.245361,693.196885 213.536064,694.782541 C213.826768,696.368197 214.064616,699.803784 214.064616,699.803784 L215.385996,701.917991 L215.12172,705.88213 C215.12172,705.88213 207.827704,722.161528 206.929166,725.174273 C206.030628,728.187019 200.29584,747.452734 200.057992,753.451798 C199.820143,759.450862 199.238736,769.916189 201.643647,782.257875 C201.934351,784.39851 202.172199,803.399949 202.172199,803.399949 C202.040061,803.294239 201.115095,818.727953 201.115095,818.727953 L200.586544,820.313609 L199.52944,833.791681 L197.943784,843.041339 C197.943784,843.041339 194.508197,847.190471 197.150956,853.3481 C195.697439,853.480238 193.847507,854.193783 193.451093,855.726584 C193.054679,857.259384 191.601162,863.919138 191.601162,863.919138 L184.465712,866.826173 C184.465712,866.826173 181.664387,870.420326 181.2944,871.847416 C180.924414,873.274506 179.497324,875.679417 180.237297,877.925762 C179.312331,879.194287 172.62615,890.373158 172.044743,897.482181 C172.150453,901.948444 175.216054,908.846046 175.216054,908.846046 C176.643144,913.180171 182.351504,927.345361 182.351504,927.345361 L187.637023,943.201917 C187.637023,943.201917 187.66345,944.787573 189.222678,946.637504 C190.781906,948.487436 196.305273,951.288761 203.229303,951.130195 L213.536064,951.130195 L216.971651,942.673365 C216.971651,941.19342 216.443099,928.666741 216.443099,928.666741 C219.455845,929.723845 222.706439,932.73659 226.485585,937.916399 C230.264731,943.096207 241.417175,956.362859 243.66352,958.001369 C245.909866,959.63988 249.186887,961.939081 260.312904,962.758336 C271.438921,963.577592 293.056692,963.471881 298.368638,962.49406 C303.680585,961.516239 307.724006,959.772018 308.939676,955.35861 C310.076062,954.169368 311.582435,952.451575 311.582435,952.451575 C311.582435,952.451575 313.115235,947.615325 311.318159,946.108953 L311.318159,946.108953 Z M197.150956,331.403134 L199.000888,322.417753 L200.586544,318.189338 L204.022131,303.654161 C204.022131,303.654161 205.13209,294.66878 206.400614,292.554572 C206.400614,292.554572 206.215621,296.360146 207.193442,303.654161 C208.171263,310.948177 204.550682,321.889201 204.550682,321.889201 L201.907923,336.160101 L197.150956,331.403134 L197.150956,331.403134 Z M202.436475,336.952929 L206.66489,320.039269 C206.66489,320.039269 208.276973,330.583879 209.307649,332.195962 C209.307649,333.8609 208.250546,338.80286 208.250546,338.80286 L206.400614,341.974172 L202.436475,336.952929 L202.436475,336.952929 Z" id="path-4"></path>
    </defs>
    <g id="Page-4" stroke="none" stroke-width="1" fill="none" fill-rule="evenodd" sketch:type="MSPage">
        <g id="Artboard-4" sketch:type="MSArtboardGroup" transform="translate(-3.000000, -3.000000)">
            <g id="gritchelle_1000px_high" sketch:type="MSLayerGroup" transform="translate(3.000000, 3.000000)">
                <mask id="mask-4" sketch:name="Mask" fill="white">
                    <use xlink:href="#path-4"></use>
                </mask>
                <use id="Mask" sketch:type="MSShapeGroup" xlink:href="#path-4"></use>
                <image sketch:type="MSBitmapLayer" mask="url(#mask-4)" x="-3" y="-3" width="318" height="1000" xlink:href="assets/img/team-jpg/gritchelle.jpg"></image>
            </g>
        </g>
    </g>
</svg>
