<?xml version="1.0" encoding="UTF-8" standalone="no"?>
<svg width="322px" height="994px" viewBox="0 0 322 994" version="1.1" xmlns="http://www.w3.org/2000/svg" xmlns:xlink="http://www.w3.org/1999/xlink" xmlns:sketch="http://www.bohemiancoding.com/sketch/ns">
    <title>matt_1000px_high</title>
    <defs>
        <path d="M319.555496,294.970397 C319.842522,293.343634 320.273061,290.42503 320.273061,290.42503 L315.489296,278.224308 L312.858225,272.722022 L310.466343,265.066667 C309.246483,261.717449 289.417777,219.373767 289.417777,219.373767 C288.389268,216.885776 282.959695,205.259206 282.959695,205.259206 L278.893494,196.407702 L273.152976,183.96775 C273.152976,183.96775 269.947854,177.245391 266.216517,176.312395 C263.441934,173.345945 254.926832,166.216895 252.343599,165.547052 C249.760366,164.877208 246.124705,162.915523 246.124705,162.915523 C246.124705,162.915523 237.705278,159.374922 235.361234,159.327076 C234.547994,159.327076 233.208539,159.087846 233.208539,159.087846 L229.142339,156.934777 L223.880198,156.456318 L221.488315,155.020939 L216.226174,154.303249 C214.862801,153.872635 207.137021,151.193261 207.137021,151.193261 L206.658644,146.887124 C206.658644,146.887124 206.562969,137.413622 204.745138,135.164862 C202.927308,132.916101 197.904354,128.346811 196.134361,127.509507 C196.253956,126.863586 196.37355,125.834898 196.37355,125.834898 L196.134361,122.48568 C196.134361,122.48568 199.81786,117.67716 200.678938,115.787244 C201.540016,113.897329 205.941079,104.950132 206.180268,101.911913 C207.280534,100.691841 208.57215,99.0411552 208.57215,99.0411552 C208.57215,99.0411552 210.629169,95.1895548 210.964033,94.7350181 C211.298896,94.2804813 212.566594,90.4528039 212.877539,85.8835138 C213.212402,84.6155957 214.934558,80.4051504 214.791045,78.2281588 C215.030233,77.5104693 216.154418,70.1182671 213.595103,68.6589651 C213.595103,68.6589651 212.590513,67.7738147 210.964033,68.1805054 C211.203221,67.5345848 211.442409,66.0274368 211.442409,66.0274368 L211.920786,63.6351384 L212.877539,60.5251504 L212.159974,55.022864 L210.485656,49.7598075 L210.246468,44.7359807 L209.768091,41.3867629 L208.811338,38.276775 L208.332962,36.1237064 L207.376209,31.3391095 L206.180268,29.4252708 C206.180268,29.4252708 204.410275,26.5545126 203.070821,25.5975933 C201.731366,24.6406739 201.396503,22.7268351 201.396503,22.7268351 L199.961373,21.2914561 L199.00462,19.6168472 L197.569491,17.9422383 L196.134361,16.5068592 L195.177608,16.0283995 L194.220855,13.8753309 C194.220855,13.8753309 193.144508,12.7748736 192.785726,12.6791817 C192.426944,12.5834898 191.111408,12.4399519 191.111408,12.4399519 L190.154655,10.765343 L188.958714,9.3299639 L186.80602,7.65535499 C186.80602,7.65535499 185.657916,6.79412756 185.610079,6.45920578 C185.562241,6.124284 184.940352,4.99990373 184.653326,5.02382671 C184.3663,5.0477497 182.500631,4.30613718 182.500631,4.30613718 C182.500631,4.30613718 180.682801,3.18175692 180.108749,3.10998797 C179.534697,3.03821901 177.956055,1.91383875 177.956055,1.91383875 L175.324984,1.43537906 L174.129043,0.478459687 L168.627713,0.956919374 L167.431772,0.956919374 L166.475019,1.19614922 L165.039889,0 L164.322325,0.478459687 L163.843948,0.956919374 L163.843948,1.91383875 L162.408819,1.6746089 L160.256125,0.717689531 L159.777748,1.6746089 L158.820995,1.6746089 L158.10343,2.15306859 L156.189924,2.15306859 L155.47236,3.34921781 L154.515607,2.63152828 L153.080477,3.58844765 L149.97103,2.63152828 L149.253465,3.10998797 L148.775089,4.06690734 L148.296712,4.06690734 L146.383206,3.34921781 L145.426453,3.34921781 L143.034571,3.8276775 L143.034571,5.02382671 L140.642688,5.74151625 L139.207559,6.21997593 L138.250806,6.93766546 L136.098112,7.17689531 L134.662982,7.41612515 L133.467041,8.13381468 L132.2711,8.85150421 L132.031912,9.80842359 L131.553535,11.0045728 L130.83597,12.200722 L130.118406,13.1576414 L127.726523,13.8753309 L127.248147,14.1145608 L127.008958,15.7891697 L126.052205,16.2676294 L124.377888,16.9853189 L123.421135,17.7030084 L122.464382,18.8991576 L122.464382,20.0953069 L121.268441,21.2914561 L120.790064,21.5306859 L119.594123,22.0091456 L119.833311,22.7268351 L119.833311,24.1622142 C119.833311,24.1622142 119.187503,23.9229844 119.115746,24.401444 C119.04399,24.8799037 118.876558,25.8368231 118.876558,25.8368231 L117.441429,26.7937425 L115.527923,28.2291215 L116.484676,28.9468111 L116.245487,30.62142 L115.049546,32.2960289 L114.57117,34.4490975 L114.092793,35.4060168 L113.375228,37.5590854 L113.375228,39.712154 L112.657664,42.3436823 L112.179287,46.1713598 L112.418475,50.7167268 L112.657664,53.3482551 L112.896852,55.5013237 L113.13604,58.132852 L113.13604,62.1997593 L113.13604,63.6351384 L114.331981,65.3097473 L114.092793,68.4197353 L114.092793,69.6158845 C113.686173,70.8838026 112.346719,72.2474128 112.657664,76.3143201 C112.968608,80.3812274 114.57117,86.8404332 114.57117,86.8404332 C115.121303,89.5676534 115.57576,94.2804813 119.115746,97.845006 C120.26385,99.2086161 122.464382,101.816221 123.899511,101.433454 C125.334641,101.050686 127.008958,100.954994 127.008958,100.954994 C127.58301,103.466907 129.257328,111.241877 133.706229,116.744164 C133.873661,118.873309 133.467041,123.921059 133.467041,123.921059 C133.467041,123.921059 126.841527,130.212804 126.052205,133.011793 C125.621667,134.949555 124.856264,136.839471 124.856264,136.839471 L120.550876,143.298676 C119.64196,143.418291 117.441429,143.777136 117.441429,143.777136 C117.441429,143.777136 113.614417,145.834513 112.896852,146.169434 C112.179287,146.504356 110.098349,146.576125 109.06984,147.604813 C108.304438,148.250734 105.721205,148.800963 105.721205,148.800963 C105.721205,148.800963 103.664186,149.470806 102.850946,149.997112 C102.037706,150.523418 103.090134,150.523418 101.176628,150.954031 C99.2631219,151.384645 95.1969218,152.437256 94.2401688,153.1071 C93.2834158,153.776943 88.7388391,155.260168 88.7388391,155.260168 C88.7388391,155.260168 82.2329188,156.504164 78.9321211,157.652467 C77.6883422,157.963466 75.3442974,158.609386 75.3442974,158.609386 C75.3442974,158.609386 62.0932686,162.532756 60.9930026,162.915523 C59.8927367,163.298291 57.2855848,165.475283 55.2524847,167.70012 C53.4107352,170.02065 43.0299654,188.584886 35.8782368,205.976895 C34.0364873,211.168183 22.1249127,245.928279 20.3310009,256.693622 C19.4460044,258.535692 18.5131702,263.966209 17.6999302,270.568953 C17.2454725,271.741179 12.9161653,288.271961 12.9161653,288.271961 C12.9161653,288.271961 8.22807565,301.620987 7.41483561,303.343442 C6.60159558,305.065897 5.97970614,306.45343 5.74051789,307.649579 C5.50132965,308.845728 4.59241432,311.094489 4.30538842,311.955716 C4.01836253,312.816943 4.06620018,315.065704 4.06620018,315.065704 C4.06620018,315.065704 0.789321211,320.089531 0.239188246,324.395668 C0.239188246,325.567894 -0.143512947,333.199326 2.15269421,338.988688 C2.89417777,340.44799 9.80671807,352.14633 9.80671807,352.14633 C9.80671807,352.14633 14.3991324,359.610301 16.9823654,360.040915 C19.2307349,360.160529 22.9620716,360.758604 22.9620716,360.758604 L36.8349898,360.280144 C36.8349898,360.280144 38.5571452,358.677304 40.4228135,358.844765 C42.2884818,359.012226 43.5322607,359.323225 43.5322607,359.323225 L45.6849549,359.801685 C45.6849549,359.801685 52.0951999,361.978676 55.2524847,361.476294 C58.4336884,362.050445 60.0362496,362.911673 60.0362496,362.911673 L62.4281321,364.107822 L65.0592028,364.107822 C64.7243393,365.040818 59.9405743,371.691408 60.0362496,376.787004 C60.2754379,378.533381 60.395032,384.394513 63.1456968,388.509266 C63.5762357,389.226955 65.7767675,391.380024 65.7767675,391.380024 C65.4897416,392.767557 64.1024498,399.513839 64.1024498,399.513839 L62.6673203,406.451504 C62.6673203,406.451504 57.3812601,411.714561 57.4051789,419.848375 C57.2855848,421.522984 56.6158577,431.092178 61.9497556,438.269073 L61.9497556,444.489049 C61.901918,445.13497 61.4713791,447.359807 61.4713791,447.359807 L61.7105674,450.948255 L61.2321909,453.340554 L61.4713791,454.775933 L60.9930026,455.972082 L60.9930026,458.36438 L60.5146261,459.560529 L60.9930026,464.345126 L59.7970614,470.565102 L59.7970614,474.15355 L57.1659907,477.981227 L59.5578732,481.569675 L58.6011202,483.005054 L62.1889439,489.22503 C61.8301615,490.851793 61.2321909,494.966546 61.2321909,494.966546 L61.2321909,505.0142 C61.2321909,505.0142 59.6535485,507.813189 59.5578732,509.320337 C59.4621979,510.827485 59.7970614,517.932611 59.7970614,517.932611 L59.3186849,520.56414 L59.7970614,524.152587 C59.7970614,524.152587 58.8163896,529.367798 58.8403084,531.807942 L58.8403084,536.353309 L58.6011202,545.683273 L60.7538144,554.295548 C61.0408403,556.065848 60.9930026,558.123225 60.9930026,558.123225 L61.4713791,564.103971 C61.4713791,564.103971 61.3278662,568.673261 61.7105674,574.390854 C62.0932686,580.108448 62.9065086,597.11769 62.9065086,597.11769 L66.0159558,623.672202 L70.5605325,649.269795 L72.7132267,655.250542 C72.7132267,657.068688 78.4537446,678.216606 78.4537446,678.216606 L82.9983212,693.766546 L83.9550742,700.704212 C83.7876424,701.852515 82.759133,703.33574 82.759133,703.33574 C82.759133,703.33574 78.6450952,710.488712 78.4537446,713.622623 C78.4059069,715.081925 79.6018481,733.502623 80.3672505,738.980987 C80.7021141,741.803899 81.80238,746.875572 81.80238,746.875572 L85.1510154,761.947052 C85.1510154,761.947052 84.8400707,767.377569 85.8685802,770.320096 C85.8685802,771.540168 86.3469567,773.908544 86.3469567,773.908544 C86.3469567,773.908544 86.6100637,777.257762 88.0212744,781.085439 C87.8538426,782.712202 87.4711414,791.133093 89.2172156,794.96077 C89.8151862,797.831528 89.9347803,802.376895 89.9347803,802.376895 L92.0874746,830.845247 L92.3266628,833.955235 C92.3266628,833.955235 92.565851,839.002984 93.2834158,842.089049 C93.2834158,843.931119 93.522604,847.112876 93.522604,847.112876 C93.522604,847.112876 92.4940946,859.40929 93.2834158,861.466667 C92.9724711,862.303971 92.3266628,863.141276 92.3266628,863.141276 L92.8050393,871.03586 C92.8050393,871.03586 92.1831499,878.356294 94.9577335,881.561974 C95.7470547,882.925584 99.9806867,887.781949 99.9806867,887.781949 C99.9806867,887.781949 102.420407,890.533093 104.046887,891.370397 C103.424997,891.513935 98.3063689,893.523466 97.5888042,895.676534 C97.4692101,896.561685 97.0147524,899.145367 98.5455572,904.049579 C98.5455572,905.461035 99.0478525,908.523177 100.459063,909.551865 C100.985277,910.484862 101.176628,912.183394 101.176628,912.183394 C101.176628,912.183394 102.372569,916.776606 104.046887,917.44645 L104.046887,919.360289 C104.046887,919.360289 103.759861,920.747822 104.286075,922.231047 C103.807699,922.924813 101.415816,929.168712 101.415816,929.168712 C101.415816,929.168712 95.1969218,938.905367 93.0442275,941.608664 C90.8915333,944.311961 85.9881743,954.263923 84.9118272,958.354753 C84.5769636,960.005439 83.9550742,964.09627 83.9550742,964.09627 L83.9550742,964.574729 L83.4766977,965.292419 C83.4766977,965.292419 82.1611624,970.053093 82.9983212,975.340072 C83.8354801,980.627052 87.5428979,984.191576 87.5428979,984.191576 C87.5428979,984.191576 96.2732689,992.301468 113.853605,993.043081 C115.695354,993.043081 123.038434,992.516775 128.2049,988.736943 C133.371366,984.957112 135.380547,981.560048 135.380547,981.560048 C135.380547,981.560048 139.255397,975.124765 139.685935,969.120096 C140.116474,963.115427 140.881877,956.919374 140.881877,956.919374 L143.273759,952.613237 L143.512947,949.981709 C143.512947,949.981709 148.990358,945.388496 149.014277,944.718652 C149.038196,944.048809 150.449406,934.670999 150.449406,934.670999 C150.449406,934.670999 153.247909,942.685199 153.558854,946.632491 C153.869798,950.579783 153.798042,953.570156 153.798042,953.570156 L153.080477,958.115523 L153.080477,958.593983 L152.602101,965.053189 L152.602101,966.727798 L153.798042,966.727798 L154.754795,958.354753 L155.47236,958.354753 C155.47236,958.354753 158.438294,945.962647 150.688595,929.886402 C151.573591,929.168712 152.602101,927.972563 152.602101,927.972563 C152.602101,927.972563 153.128315,925.317112 152.602101,923.905656 C153.606691,922.948736 155.281009,921.53728 154.03723,918.403369 C154.372094,917.637834 154.993983,917.20722 154.993983,917.20722 L157.625054,913.858002 L157.625054,912.661853 L160.016936,909.791095 L160.734501,907.159567 C160.734501,907.159567 160.830176,903.882118 158.342619,899.025752 C155.855061,894.169386 155.47236,892.327316 155.47236,892.327316 C156.644382,891.39432 161.452066,886.5858 161.452066,886.5858 C161.452066,886.5858 166.355425,880.365824 163.126384,872.471239 C162.719763,870.700939 160.973689,866.968953 160.973689,866.968953 C160.973689,866.968953 160.399638,862.495355 158.342619,859.552828 C157.481541,858.141372 156.429113,856.9213 156.189924,852.615162 C155.950736,848.309025 155.47236,827.256799 155.47236,827.256799 L153.558854,809.314561 L152.123724,804.529964 L152.602101,798.549218 L151.884536,792.090012 C151.741023,790.295788 150.449406,782.520818 150.449406,782.520818 L149.014277,775.343923 L148.057524,770.559326 L149.253465,767.210108 L149.253465,763.621661 L149.97103,755.009386 C149.97103,755.009386 149.947111,736.421227 149.97103,734.43562 C149.994949,732.450012 150.210218,728.694103 150.210218,728.694103 C150.210218,728.694103 149.660085,720.48852 148.296712,715.775692 C148.177118,714.029314 148.535901,693.288087 148.535901,693.288087 C149.420897,691.852708 152.936964,686.206883 151.645348,672.47509 C151.645348,670.369868 151.406159,667.212034 151.406159,667.212034 L153.558854,639.939832 L155.233171,627.49988 L158.581807,611.94994 L159.299372,608.122262 L159.777748,597.11769 L160.495313,585.873887 L162.648007,610.514561 L164.561513,628.696029 L165.518266,644.006739 C165.518266,644.006739 164.776782,650.537714 167.192584,656.92515 C168.005824,658.838989 168.388525,665.537425 168.388525,665.537425 L168.149337,667.929723 C168.149337,667.929723 167.694879,669.891408 168.388525,671.278941 C169.082171,672.666474 169.536628,673.623394 169.823654,674.149699 C170.11068,674.676005 170.062843,678.455836 170.062843,678.455836 L170.541219,680.369675 C170.541219,681.757208 170.302031,690.895788 170.302031,690.895788 L170.302031,695.919615 L171.73716,699.029603 L171.73716,703.09651 L172.933102,715.297232 L172.693913,718.88568 C172.693913,718.88568 172.813507,724.866426 174.368231,727.737184 C174.774851,729.005102 175.564172,731.564862 175.564172,731.564862 L176.520925,735.153309 C176.401331,736.588688 175.803361,738.502527 175.803361,738.502527 C175.803361,738.502527 174.487825,744.674657 174.368231,747.832491 C174.320393,749.387485 173.411478,751.899398 173.411478,751.899398 C173.411478,751.899398 172.95702,756.731841 172.933102,761.707822 C173.220127,766.803418 172.215537,772.473165 172.215537,772.473165 L171.497972,783.716968 L171.258784,792.329242 L171.019596,794.72154 L171.019596,800.223827 C170.708651,801.970205 170.062843,805.726113 170.062843,805.726113 C170.062843,805.726113 169.153927,811.108785 169.584466,815.534537 C169.991086,817.113454 170.780407,820.797593 170.780407,820.797593 L170.780407,827.974489 C170.780407,827.974489 170.900001,832.8787 171.976349,835.390614 C171.976349,836.514994 172.454725,841.13213 172.454725,841.13213 C172.454725,841.13213 172.35905,849.026715 173.17229,852.375933 C173.244046,853.332852 175.085796,862.662816 175.085796,862.662816 L176.281737,867.686643 L176.760114,870.796631 C176.760114,870.796631 173.411478,878.117064 171.976349,880.844284 C171.73716,881.944741 170.756489,884.887268 170.541219,886.107341 C170.32595,887.327413 169.584466,891.848857 169.584466,891.848857 C169.584466,891.848857 168.4842,893.738773 168.627713,894.719615 C169.130008,896.035379 170.278112,899.264982 173.17229,901.65728 C175.014039,904.408424 176.688357,907.303105 176.760114,908.116486 C176.83187,908.929868 176.999302,910.508785 176.999302,910.508785 L179.391184,914.814922 C179.391184,914.814922 180.682801,919.312443 183.457384,921.513357 C183.074683,922.4942 182.979008,923.905656 182.979008,923.905656 C182.979008,923.905656 182.428875,927.494103 182.500631,928.451023 C182.572388,929.407942 182.261443,934.431769 182.261443,934.431769 L182.261443,937.541757 C182.261443,937.541757 181.71131,942.3742 184.414137,945.914801 C185.801429,947.948255 194.220855,955.723225 194.220855,955.723225 C195.440715,956.799759 196.78017,959.024597 196.851926,960.507822 C196.923683,961.991047 197.808679,968.880866 197.808679,968.880866 C197.808679,968.880866 198.215299,977.445295 200.678938,980.363899 C203.142577,983.282503 205.271352,988.282407 215.030233,991.846931 C218.091842,992.827774 234.332724,996.248761 244.450387,991.368472 C246.244299,990.387629 252.104411,986.488183 253.300352,982.277738 C254.496293,978.067292 256.433718,970.2684 253.778729,966.010108 C253.730891,965.69911 252.343599,962.182431 252.343599,962.182431 L252.104411,958.115523 C252.104411,958.115523 248.899288,949.479326 245.40714,945.675572 C244.498225,944.814344 241.101752,940.412515 241.101752,940.412515 C241.101752,940.412515 235.456909,935.029844 235.361234,933.23562 C235.409071,932.75716 236.557175,932.99639 236.557175,932.99639 L238.709869,935.149458 L241.819316,939.455596 L243.015258,938.977136 L241.819316,936.824067 L243.254446,936.584838 C243.254446,936.584838 245.263627,936.273839 243.493634,931.321781 C243.493634,930.819398 241.34094,926.058724 241.34094,926.058724 C241.34094,926.058724 233.375971,916.752684 230.577469,915.771841 C230.505712,915.389073 231.055845,914.814922 231.055845,914.814922 L232.490975,913.140313 C232.490975,913.140313 233.495565,911.465704 231.295034,909.551865 C231.295034,908.738484 232.251786,907.159567 232.251786,907.159567 L232.251786,904.288809 L234.404481,900.221901 L232.969351,896.633454 C232.969351,896.633454 233.495565,892.494777 229.142339,888.978099 L229.142339,888.260409 L230.099092,887.781949 C230.099092,887.781949 235.720016,884.265271 236.796363,881.561974 C237.87271,878.858676 238.949057,878.212756 238.949057,878.212756 C238.949057,878.212756 239.881892,872.830084 239.188246,868.643562 C239.188246,867.232106 239.427434,864.337425 239.427434,864.337425 L239.427434,853.332852 L236.078798,837.543682 L235.122045,830.127557 C235.122045,830.127557 232.275705,821.658821 232.490975,820.319134 C232.825838,817.209146 233.926104,815.295307 233.926104,815.295307 L235.600422,806.204573 L237.27474,796.156919 L237.992304,783.238508 L239.188246,772.951625 C239.403515,771.970782 240.814726,768.406258 239.857973,765.94219 C239.762297,765.726883 239.71446,765.607268 239.666622,765.511576 C239.690541,765.559422 239.690541,765.583345 239.666622,765.559422 C238.375006,763.095355 239.355677,762.592972 239.90581,761.492515 C240.455943,760.392058 241.101752,759.339446 241.101752,759.339446 L240.623375,755.033309 C240.623375,755.033309 241.269183,752.425704 241.101752,751.684091 C240.93432,750.942479 240.671213,749.483177 240.862563,748.813333 C241.053914,748.14349 242.249855,743.000048 241.580128,741.397208 C241.412696,740.751288 240.384187,738.76568 240.384187,738.76568 L237.753116,731.588785 L237.035551,724.890349 C237.896629,723.909507 241.101752,719.627292 241.101752,719.627292 L241.580128,716.278075 C241.580128,716.278075 244.211199,713.574777 243.493634,707.90503 C243.445796,706.924188 243.015258,703.838123 243.015258,703.838123 C243.015258,703.838123 240.695132,700.082214 240.623375,699.531986 C240.551619,698.981757 239.977567,697.067918 241.580128,694.747389 C243.182689,692.426859 243.756741,688.120722 243.972011,685.895884 C244.18728,683.671047 243.852416,671.494248 243.732822,666.996727 C243.613228,662.499206 244.689575,660.537521 244.689575,660.537521 C244.689575,660.537521 247.201052,643.719663 247.081458,642.116823 C246.961864,640.513983 247.320646,637.332226 247.320646,637.332226 L248.994964,626.327653 L250.669281,600.2516 L251.147658,577.763995 L250.669281,561.017906 L250.669281,550.491793 C250.669281,550.491793 250.382256,541.377136 249.234152,539.008761 C249.234152,538.482455 249.951717,534.941853 249.951717,534.941853 C249.951717,534.941853 250.190905,524.104741 249.234152,521.544982 C249.234152,520.635909 249.47334,518.434994 249.47334,518.434994 C249.47334,518.434994 249.186314,512.047557 248.755775,508.8658 C248.325237,505.684043 249.234152,503.602744 249.234152,503.602744 C249.234152,503.602744 248.396993,494.727316 248.277399,493.31586 C248.157805,491.904404 248.516587,489.248953 248.516587,489.248953 L248.994964,483.985897 L249.951717,480.875909 L251.865223,477.765921 C252.104411,477.239615 252.821976,476.809001 252.821976,476.809001 L253.061164,471.545945 C253.061164,471.545945 253.587378,468.69911 254.017917,467.000578 C254.448456,465.302046 255.38129,456.833309 255.453046,454.082166 C255.524803,451.331023 255.859666,444.273742 252.821976,440.206835 C252.032654,439.225993 248.755775,435.183008 248.755775,435.183008 L250.430093,429.202262 C250.430093,429.202262 252.487112,422.886594 252.104411,417.71923 C251.72171,412.551865 251.147658,410.063875 251.147658,410.063875 L249.951717,398.341613 L249.712528,393.317786 C250.047392,392.169483 250.669281,389.250878 250.669281,389.250878 C250.669281,389.250878 249.569015,382.983057 249.47334,381.834753 C249.377665,380.68645 249.234152,379.681685 249.234152,379.681685 C249.234152,379.681685 250.28658,376.476005 249.951717,375.375548 C249.616853,374.27509 248.516587,368.677112 248.516587,368.677112 L248.038211,362.935596 L247.081458,356.47639 C248.205642,356.524236 256.648988,355.99793 256.648988,355.99793 C256.648988,355.99793 261.432752,354.825704 262.867882,355.041011 C264.303011,355.256318 274.875132,355.639085 276.979988,354.323321 C277.577959,354.084091 283.677259,355.280241 283.677259,355.280241 C283.677259,355.280241 298.004635,357.241925 304.965013,354.562551 C308.8877,353.055403 311.662284,346.907196 311.662284,346.907196 C312.882144,345.878508 313.336602,344.754128 313.336602,344.754128 C313.336602,344.754128 314.436868,344.156053 315.010919,339.969531 C315.632809,338.605921 316.206861,336.620313 316.206861,336.620313 L318.359555,329.443418 L321.229814,316.525006 C321.229814,316.501083 322.7367,302.984597 319.555496,294.970397 L319.555496,294.970397 Z M237.753116,924.862575 C240.479862,927.685487 241.508372,932.75716 241.34094,933.953309 C237.824873,932.470084 237.179064,930.245247 236.796363,929.647172 C236.413662,929.049097 232.730163,921.991817 232.730163,921.991817 C232.730163,921.991817 229.33369,918.355523 228.185586,917.20722 C233.041108,919.384212 237.753116,924.862575 237.753116,924.862575 L237.753116,924.862575 Z" id="path-3"></path>
    </defs>
    <g id="Page-3" stroke="none" stroke-width="1" fill="none" fill-rule="evenodd" sketch:type="MSPage">
        <g id="Artboard-3" sketch:type="MSArtboardGroup" transform="translate(-2.000000, -4.000000)">
            <g id="matt_1000px_high" sketch:type="MSLayerGroup" transform="translate(2.000000, 4.000000)">
                <mask id="mask-3" sketch:name="Mask" fill="white">
                    <use xlink:href="#path-3"></use>
                </mask>
                <use id="Mask" sketch:type="MSShapeGroup" xlink:href="#path-3"></use>
                <image sketch:type="MSBitmapLayer" mask="url(#mask-3)" x="-2" y="-4" width="327" height="1000" xlink:href="assets/img/team-jpg/matt.jpg"></image>
            </g>
        </g>
    </g>
</svg>
