<svg width="100%" height="100%" viewBox="0 0 411 411" version="1.1" xmlns="http://www.w3.org/2000/svg" xmlns:xlink="http://www.w3.org/1999/xlink" xmlns:sketch="http://www.bohemiancoding.com/sketch/ns">
  <title>Salt and Straw</title>
  <defs>
      <path id="path-saltandstraw" d="M151.4,95.3l-1.7-2.9c0,0-0.2-2.4,1-2.6c0.4-0.1,0.8-1,1.2-2.1
      	c0.8-2,1.7-4.6,3.1-4.8c0.1-1,0-1,0-1s-0.1-7.7,1.7-7.7c0.6-1.5,0.7-2.9,0.7-2.9s5.8-10.4,9.1-13.7c0.8,0.2,1.2-1.4,1.2-1.4
      	s6.4-7.9,11-9.8c2.5-1.7,8.6-6.6,17.3-8.4c1.3-1.1,7.1-5.8,15.1-3.4c2.8-0.3,6.8-0.8,8.9,0.5c2.1-0.1,2.1-0.2,3.1,0
      	c1.1,0.2,4.6-0.2,4.6-0.2s5.9,0.3,8.9,3.8c3.2,0.9,13.9,4.8,22.8,13.4c2.2,1.8,5.2,3.6,5.5,6.7c1.9,2,6.8,6.8,6,9.8
      	c0.3,3.9-0.1,5.2,1.2,5.8c0.8-1,3.1-2.7,6,3.4c0.3-0.9-1.4-8.5,3.6-5.8c1.4-1.4,4-4.5,4.6-1.9c1.4,1.2,4.3,1.2,5.8,8.6
      	c-0.5,2.4-2.3,10.5-4.1,12.7c0,3.6-1.1,20.4-4.8,29.5c-0.2,3.1-0.2,19.2-3.1,24.7c-0.8,2.5-1.6,21.5-4.3,29.8c-0.8,1.4-1,0.7-1,0.7
      	s-0.7,12.3-1.2,13.9c-0.5,1.6-1.1,8.1-2.6,14.2c0.4,4-0.9,23.9-4.1,25.4c0.8,2.6,0.7,10.7-1.4,14.2c0.1,3.5-0.6,12.3-2.6,13.2
      	c0.3,4.2,1.2,7.6-1.2,12.7c-0.1,4,0.3,8.8-1.7,13.2c-0.5,3.5-0.9,14.3-3.4,14.4c0.4,3.5,0.9,8.1-1.2,13.4c0.3,4.1-1.7,12.1-4.1,13.7
      	c1.1,2.9,1.9,11.8-0.2,14.4c-0.1,3.4-2.5,11.6-3.1,13.9c0.4,3.7,0.2,15.4-1.9,15.8c0.4,3.2,0,8.8-2.2,8.6c0.1,2.5,1.1,11.7-1.7,15.6
      	c0.2,5.4,0.5,8.9-2.6,11.5c0.3,2.9,2.6,4.8,0.5,7.2c-0.4,3.7-0.8,7.9-3.4,11c-0.4,4.2,0.9,8.4-3.4,9.6c-2,2.2-3.6,3.3-4.6,1.4
      	c-2.5-0.8-6.6-0.6-7.7-6.2c-0.5-3.3-1.3-5.5-0.2-6c-0.5-1.2-6.6-11.1-5.8-15.1c-0.8-1.5-2.3-3.5-1.2-4.6c-1.2-2.1-2.6-5.3-1.7-5.8
      	c0.1-3.1-4.5-14.4-3.1-18.2c-1.1-2.6-2.4-6.9-1.2-7.2c-0.5-1.2-4.7-9-3.8-14.9c-0.7-2.4-2.6-4.5-1.4-7c-0.4-3.3-2.9-8.9-1.4-9.4
      	c-0.4-2-5.1-7.3-2.6-14.2c-2.5-3-5.3-13.7-4.3-15.1c-0.4-1.5-2.8-8.4-3.1-13.2c-0.2-2.1-5-9.1-2.9-13.9c-1-2.9-3.5-5.5-3.1-7.9
      	c-1.4-3.9-3.2-9-2.9-13.4c-1.2-4.9-7.2-17.3-4.8-21.6c-1.5-5.4-2.5-8.9-2.4-13c-1.2-3.2-5.2-8.3-3.1-13.2
      	c-0.6-3.5-4.2-11.6-3.8-16.1c-1.2-5.3-4.9-12.2-3.1-14.6c0.1-3.3-1.2-10.6-1.2-10.6s-2.9-4.3-1.2-7.9c-1.6-2.7-2.2-5.5-2.2-5.5
      	l-1.2-3.6l-0.5-0.7c0,0-2.5-7-1.2-7.4c-1-3.4-3.4-14.6-3.4-14.6s-2.4-3.9-1-4.6c-0.6-2.7-3-11.3-3.4-14.2c-1.4-1.7-2.2-5.3-0.7-5.8
      	c-0.6-1.4-1.7-5.8-1.7-5.8l-0.5-1.9c0,0,0.8-2.2,1.9-2.2C150,96.7,151.4,95.3,151.4,95.3z"></path>
  </defs>
  <g id="Page-1" stroke="none" stroke-width="1" fill="rgba(0,0,0,0)" fill-rule="evenodd" sketch:type="MSPage">
      <g id="Artboard" sketch:type="MSArtboardGroup">
          <g id="Salt-And-Straw" sketch:type="MSLayerGroup" transform="translate(0.000000, 39.000000)">
              <mask id="mask-saltandstraw" sketch:name="Mask" fill="white">
                  <use xlink:href="#path-saltandstraw"></use>
              </mask>
              <use id="Mask" sketch:type="MSShapeGroup" xlink:href="#path-saltandstraw"></use>
              <image sketch:type="MSBitmapLayer" mask="url(#mask-saltandstraw)" x="-25" y="-65" width="464" height="464" xlink:href="assets/img/work_saltandstraw.jpg"></image>
            </g>
        </g>
    </g>
</svg>
