<svg width="100%" height="100%" viewBox="0 0 411 411" version="1.1" xmlns="http://www.w3.org/2000/svg" xmlns:xlink="http://www.w3.org/1999/xlink" xmlns:sketch="http://www.bohemiancoding.com/sketch/ns">
  <title>Betsy &amp; Iya</title>
  <defs>
      <path id="path-betsyandiya" d="M95.5,428c0,0,9.1,12.1,13.7,16.4c4.9,2.4,33.8,14.9,33.8,14.9l1.1-1.1l0.8,1.1c0,0,33.3,12,34,13.5
      	c3.3,0.6,19.2-0.3,21.3-1.6c0.1-1.9,1.8-3.4-0.8-6.9c0.9-1.6,20.8-47.9,24.4-57.5c3.6-9.6,17.2-46.4,17.9-48.8
      	c0.7-2.4,14.9-44.2,15.5-48.8c1.6-4.3,15.1-55,15-58.4c0.9-3.4,9.9-54.4,11.7-68.6c2-10.8,6.5-31.6,8.6-48.5
      	c2.4-14.2,8.5-45.2,8.5-45.2l0.3-1.5c0,0-0.6-1.4-1.4-1.5c0.3-2.3,5.9-23.9,13.5-44.5c0.2-5.8-0.4-25.4-3.1-35
      	c-3.3,2.1-13.7,9.4-24.7,24.1c-1.6,4.8-10.6,26.9-17.5,41.6c2.6,1.5,3.8,2,3.8,2l1.1,2.9c0,0-7,9.2-38.1,43.6
      	c-9.5,9.8-33.1,35.4-34.2,39.1c-2,2.3-27.3,36.6-29,42.2c-2.3,3.3-22.6,40.1-25.7,52.5c-4.8,11.8-16.1,40.9-19.9,57.5
      	c-3.8,13.8-15.5,56.8-15.7,62.5c-0.9,3.2-10.7,43.4-9.8,47.6c-0.5,0.9-0.9,1.5-0.9,1.5s-2.3,0.8-2.8,3.9
      	C96.1,427.5,95.5,428,95.5,428z"/>
  </defs>
  <g id="Page-1" stroke="none" stroke-width="1" fill="rgba(0,0,0,0)" fill-rule="evenodd" sketch:type="MSPage">
      <g id="Artboard" sketch:type="MSArtboardGroup">
          <g id="betsyandiya-Graphic" sketch:type="MSLayerGroup" transform="translate(0.000000, 39.000000)">
              <mask id="mask-betsyandiya" sketch:name="Mask" fill="white">
                  <use xlink:href="#path-betsyandiya"></use>
              </mask>
              <use id="Mask" sketch:type="MSShapeGroup" xlink:href="#path-betsyandiya"></use>
              <image sketch:type="MSBitmapLayer" mask="url(#mask-betsyandiya)" x="0" y="0" width="464" height="464" xlink:href="assets/img/work_betsyandiya.jpg"></image>
            </g>
        </g>
    </g>
</svg>
