<svg width="100%" height="100%" viewBox="0 0 411 411" version="1.1" xmlns="http://www.w3.org/2000/svg" xmlns:xlink="http://www.w3.org/1999/xlink" xmlns:sketch="http://www.bohemiancoding.com/sketch/ns">
  <title>Penner Ash</title>
  <defs>
      <path id="path-pennerash" d="M252.5,281.3c0,0,81.5-24.4,74.3-93.5c-1.5-15.7-13.7-66.1-23.4-91.1c-3.4-11.6-4.6-16.8-5.4-29.5
      	c-0.2-2.1-2.3-5-51.2-4.7c-12.4,0.3-66,0.6-63.4,6.3c-0.6,5.6,0.9,12.5-8.4,36.7c-9,23.5-24.8,68.2-20.4,103.7
      	c0.7,4.1-0.2,40.5,69.6,72c1.9,2.5,4.8,3.1,7,26.9c0.9,24.2,2.3,53.6,0.9,79.3c-1.9,6-2.6,9.3-12.2,19.3c-1.6,1.9-1.6,2-1.6,2
      	s-39.1,1.6-45.6,12.5c-1.8,2.9-9.8,9.6,17.9,20.8c7.2,1.8,64.1,13.7,110.1-3.8c3.5-3.4,13.4-14.5-11.6-22.4
      	c-11.9-3-25.2-6.1-32.2-6.4c-1.1-1.6-1.1-2.3-1.1-2.3s-11.5-7.3-11.5-20.2C243.6,378.6,240.7,283.6,252.5,281.3z"></path>
  </defs>
  <g id="Page-1" stroke="none" stroke-width="1" fill="rgba(0,0,0,0)" fill-rule="evenodd" sketch:type="MSPage">
      <g id="Artboard" sketch:type="MSArtboardGroup">
          <g id="Penner-Ash" sketch:type="MSLayerGroup" transform="translate(0.000000, 0)">
              <mask id="mask-pennerash" sketch:name="Mask" fill="white">
                  <use xlink:href="#path-pennerash"></use>
              </mask>
              <use id="Mask" sketch:type="MSShapeGroup" xlink:href="#path-pennerash"></use>
              <image sketch:type="MSBitmapLayer" mask="url(#mask-pennerash)" x="10" y="10" width="464" height="464" xlink:href="assets/img/work_pennerash.jpg"></image>
            </g>
        </g>
    </g>
</svg>
