<svg width="100%" height="100%" viewBox="0 0 147 402" version="1.1" xmlns="http://www.w3.org/2000/svg" xmlns:xlink="http://www.w3.org/1999/xlink" xmlns:sketch="http://www.bohemiancoding.com/sketch/ns">
  <title>Salt and Straw</title>
  <defs>
      <path id="path-saltandstraw" d="M5.4,62.3 L3.7,59.4 C3.7,59.4 3.5,57 4.7,56.8 C5.1,56.7 5.5,55.8 5.9,54.7 C6.7,52.7 7.6,50.1 9,49.9 C9.1,48.9 9,48.9 9,48.9 C9,48.9 8.9,41.2 10.7,41.2 C11.3,39.7 11.4,38.3 11.4,38.3 C11.4,38.3 17.2,27.9 20.5,24.6 C21.3,24.8 21.7,23.2 21.7,23.2 C21.7,23.2 28.1,15.3 32.7,13.4 C35.2,11.7 41.3,6.8 50,5 C51.3,3.9 57.1,-0.8 65.1,1.6 C67.9,1.3 71.9,0.8 74,2.1 C76.1,2 76.1,1.9 77.1,2.1 C78.2,2.3 81.7,1.9 81.7,1.9 C81.7,1.9 87.6,2.2 90.6,5.7 C93.8,6.6 104.5,10.5 113.4,19.1 C115.6,20.9 118.6,22.7 118.9,25.8 C120.8,27.8 125.7,32.6 124.9,35.6 C125.2,39.5 124.8,40.8 126.1,41.4 C126.9,40.4 129.2,38.7 132.1,44.8 C132.4,43.9 130.7,36.3 135.7,39 C137.1,37.6 139.7,34.5 140.3,37.1 C141.7,38.3 144.6,38.3 146.1,45.7 C145.6,48.1 143.8,56.2 142,58.4 C142,62 140.9,78.8 137.2,87.9 C137,91 137,107.1 134.1,112.6 C133.3,115.1 132.5,134.1 129.8,142.4 C129,143.8 128.8,143.1 128.8,143.1 C128.8,143.1 128.1,155.4 127.6,157 C127.1,158.6 126.5,165.1 125,171.2 C125.4,175.2 124.1,195.1 120.9,196.6 C121.7,199.2 121.6,207.3 119.5,210.8 C119.6,214.3 118.9,223.1 116.9,224 C117.2,228.2 118.1,231.6 115.7,236.7 C115.6,240.7 116,245.5 114,249.9 C113.5,253.4 113.1,264.2 110.6,264.3 C111,267.8 111.5,272.4 109.4,277.7 C109.7,281.8 107.7,289.8 105.3,291.4 C106.4,294.3 107.2,303.2 105.1,305.8 C105,309.2 102.6,317.4 102,319.7 C102.4,323.4 102.2,335.1 100.1,335.5 C100.5,338.7 100.1,344.3 97.9,344.1 C98,346.6 99,355.8 96.2,359.7 C96.4,365.1 96.7,368.6 93.6,371.2 C93.9,374.1 96.2,376 94.1,378.4 C93.7,382.1 93.3,386.3 90.7,389.4 C90.3,393.6 91.6,397.8 87.3,399 C85.3,401.2 83.7,402.3 82.7,400.4 C80.2,399.6 76.1,399.8 75,394.2 C74.5,390.9 73.7,388.7 74.8,388.2 C74.3,387 68.2,377.1 69,373.1 C68.2,371.6 66.7,369.6 67.8,368.5 C66.6,366.4 65.2,363.2 66.1,362.7 C66.2,359.6 61.6,348.3 63,344.5 C61.9,341.9 60.6,337.6 61.8,337.3 C61.3,336.1 57.1,328.3 58,322.4 C57.3,320 55.4,317.9 56.6,315.4 C56.2,312.1 53.7,306.5 55.2,306 C54.8,304 50.1,298.7 52.6,291.8 C50.1,288.8 47.3,278.1 48.3,276.7 C47.9,275.2 45.5,268.3 45.2,263.5 C45,261.4 40.2,254.4 42.3,249.6 C41.3,246.7 38.8,244.1 39.2,241.7 C37.8,237.8 36,232.7 36.3,228.3 C35.1,223.4 29.1,211 31.5,206.7 C30,201.3 29,197.8 29.1,193.7 C27.9,190.5 23.9,185.4 26,180.5 C25.4,177 21.8,168.9 22.2,164.4 C21,159.1 17.3,152.2 19.1,149.8 C19.2,146.5 17.9,139.2 17.9,139.2 C17.9,139.2 15,134.9 16.7,131.3 C15.1,128.6 14.5,125.8 14.5,125.8 L13.3,122.2 L12.8,121.5 C12.8,121.5 10.3,114.5 11.6,114.1 C10.6,110.7 8.2,99.5 8.2,99.5 C8.2,99.5 5.8,95.6 7.2,94.9 C6.6,92.2 4.2,83.6 3.8,80.7 C2.4,79 1.6,75.4 3.1,74.9 C2.5,73.5 1.4,69.1 1.4,69.1 L0.9,67.2 C0.9,67.2 1.7,65 2.8,65 C4,63.7 5.4,62.3 5.4,62.3 L5.4,62.3 Z"></path>
  </defs>
  <g id="Page-1" stroke="none" stroke-width="1" fill="rgba(0,0,0,0)" fill-rule="evenodd" sketch:type="MSPage">
      <g id="Artboard" sketch:type="MSArtboardGroup">
          <g id="Salt-And-Straw" sketch:type="MSLayerGroup">
              <mask id="mask-saltandstraw" sketch:name="Mask" fill="white">
                  <use xlink:href="#path-saltandstraw"></use>
              </mask>
              <use id="Mask" sketch:type="MSShapeGroup" xlink:href="#path-saltandstraw"></use>
              <image sketch:type="MSBitmapLayer" mask="url(#mask-saltandstraw)" x="-145" y="-33" width="478" height="478" xlink:href="assets/img/work_saltandstraw.jpg"></image>
            </g>
        </g>
    </g>
</svg>
