<svg width="100%" height="100%" viewBox="0 0 411 411" version="1.1" xmlns="http://www.w3.org/2000/svg" xmlns:xlink="http://www.w3.org/1999/xlink" xmlns:sketch="http://www.bohemiancoding.com/sketch/ns">
  <title>Literary Arts</title>
  <defs>
      <path id="path-literaryarts" d="M48.1,116.6h309.4l26.1,7.9v56.7l5.8,5.2v37.2l2,3.1
      	c0,0,1.7,10.2,0.6,29.7c3,2.1,20.4,12.2,22.7,16.3c1.5,1.3,1.3,2,0.1,3.8c0.2,2,0.7,14.9,0.3,16.4c-0.3,1.5,0.6,7.6,0.6,7.6
      	s0.1,4.2-0.5,7.7c-0.6,3.6-0.1,7.2-0.1,7.2l-1.5,1.7l-403.2-1.4l-1.5,0.3c0,0-4.4-20.2-1.3-45.3c0.4-2.1,0.3-1.6,0.3-1.6
      	s1.8-1.1,5.2-6s15.4-21,15.4-21l0.2-17l1.6-2.7l-1-0.3l-0.1-37.9c0,0-0.8-3.3,5.1-6.5c0.1-8.4-0.2-54.6-0.2-54.6
      	S36.8,117,48.1,116.6z"></path>
  </defs>
  <g id="Page-1" stroke="none" stroke-width="1" fill="rgba(0,0,0,0)" fill-rule="evenodd" sketch:type="MSPage">
      <g id="Artboard" sketch:type="MSArtboardGroup">
          <g id="Literary-Arts" sketch:type="MSLayerGroup" transform="translate(0.000000, 39.000000)">
              <mask id="mask-literaryarts" sketch:name="Mask" fill="white">
                  <use xlink:href="#path-literaryarts"></use>
              </mask>
              <use id="Mask" sketch:type="MSShapeGroup" xlink:href="#path-literaryarts"></use>
              <image sketch:type="MSBitmapLayer" mask="url(#mask-literaryarts)" x="-25" y="-65" width="464" height="464" xlink:href="assets/img/work_literaryarts.jpg"></image>
            </g>
        </g>
    </g>
</svg>
