<?xml version="1.0" encoding="utf-8"?>
<!-- Generator: Adobe Illustrator 19.0.1, SVG Export Plug-In . SVG Version: 6.00 Build 0)  -->
<svg version="1.1" xmlns="http://www.w3.org/2000/svg" xmlns:xlink="http://www.w3.org/1999/xlink" x="0px" y="0px"
	 viewBox="0 0 600 600" style="enable-background:new 0 0 600 600;" xml:space="preserve">
<style type="text/css">
	.st0{fill:none;stroke:#FFFFFF;stroke-width:4;stroke-miterlimit:10;}
	.st1{fill:none;stroke:#FFFFFF;stroke-width:4;stroke-miterlimit:5;}
	.st2{fill:#FFFFFF;}
	.st3{fill:none;stroke:#FFFFFF;stroke-width:3;stroke-miterlimit:10;}
	.st4{fill:none;stroke:#FFFFFF;stroke-width:3;stroke-linecap:round;stroke-miterlimit:10;}
	.st5{fill:none;stroke:#FFFFFF;stroke-width:2;stroke-miterlimit:5;}
</style>
<g id="Desktop">
	<g>
		<path class="st0" d="M373.2,485.5H29c-2.8,0-5-2.2-5-5v-222c0-2.8,2.2-5,5-5h344.2c2.8,0,5,2.2,5,5v222
			C378.2,483.2,375.9,485.5,373.2,485.5z"/>
		<path class="st0" d="M385.9,520.7H16.3c-3.8,0-7-3.2-7-7v-265c0-3.8,3.2-7,7-7h369.6c3.9,0,7,3.2,7,7v265
			C392.9,517.5,389.7,520.7,385.9,520.7z"/>
		<circle class="st0" cx="201.1" cy="503.4" r="8.2"/>
		<polyline class="st0" points="173.2,520.7 173.2,556 130.7,556 130.7,567.1 268.6,567.1 268.6,556.6 226.8,556.6 226.8,520 		"/>
	</g>
	<line class="st0" x1="160" y1="413" x2="233" y2="413"/>
	<line class="st0" x1="74" y1="433" x2="184" y2="433"/>
	<line class="st0" x1="74" y1="447.5" x2="184" y2="447.5"/>
	<line class="st0" x1="74" y1="462" x2="184" y2="462"/>
	<line class="st0" x1="212" y1="433" x2="322" y2="433"/>
	<line class="st0" x1="212" y1="447.5" x2="322" y2="447.5"/>
	<line class="st0" x1="212" y1="462" x2="322" y2="462"/>
	<rect x="35" y="266" class="st0" width="39" height="15.8"/>
	<rect x="35.1" y="294" class="st0" width="328.9" height="93"/>
	<line class="st0" x1="359.7" y1="268" x2="347.7" y2="268"/>
	<line class="st0" x1="359.7" y1="273.5" x2="347.7" y2="273.5"/>
	<line class="st0" x1="359.7" y1="279" x2="347.7" y2="279"/>
	<rect x="407" y="244" class="st1" width="176" height="150"/>
</g>
<g id="iPhone">
	<g>
		<circle class="st2" cx="445.9" cy="555.5" r="3.3"/>
		<path class="st1" d="M404.7,558.9V416.4c0-2.8,2.2-5,5-5h72.4c2.8,0,5,2.2,5,5v142.5c0,2.8-2.2,5-5,5h-72.4
			C407,563.9,404.7,561.7,404.7,558.9z"/>
		<path class="st1" d="M413.1,541V430c0-2.8,2.2-5,5-5h55.3c2.8,0,5,2.2,5,5V541c0,2.8-2.2,5-5,5h-55.3
			C415.3,546,413.1,543.7,413.1,541z"/>
		<path class="st3" d="M503.1,438.7"/>
		<path class="st3" d="M503.1,568.9"/>
		<line class="st4" x1="437" y1="418.7" x2="455" y2="418.7"/>
	</g>
	<rect x="423" y="437" class="st1" width="46" height="42"/>
	<line class="st1" x1="436" y1="490" x2="455" y2="490"/>
	<line class="st1" x1="425" y1="506" x2="467" y2="506"/>
	<line class="st1" x1="425" y1="518.5" x2="467" y2="518.5"/>
	<line class="st1" x1="425" y1="531" x2="467" y2="531"/>
</g>
<g id="Notebook_x2F_Pencil">
	<rect x="497.7" y="414" class="st1" width="14.5" height="122.4"/>
	<polygon class="st1" points="498.3,540 504.3,563 511.6,540 	"/>
	<line class="st1" x1="496.7" y1="423" x2="512.3" y2="423"/>
	<line class="st1" x1="496.7" y1="428.3" x2="512" y2="428.3"/>
	<rect x="523.4" y="424" class="st1" width="74.1" height="144"/>
	<ellipse class="st5" cx="529.9" cy="422.8" rx="2.6" ry="7.2"/>
	<ellipse class="st5" cx="534.6" cy="422.8" rx="2.6" ry="7.2"/>
	<ellipse class="st5" cx="540.3" cy="422.8" rx="2.6" ry="7.2"/>
	<ellipse class="st5" cx="546" cy="422.8" rx="2.6" ry="7.2"/>
	<ellipse class="st5" cx="551.2" cy="422.8" rx="2.6" ry="7.2"/>
	<ellipse class="st5" cx="556.6" cy="422.8" rx="2.6" ry="7.2"/>
	<ellipse class="st5" cx="561.7" cy="422.8" rx="2.6" ry="7.2"/>
	<ellipse class="st5" cx="567.1" cy="422.8" rx="2.6" ry="7.2"/>
	<ellipse class="st5" cx="572.6" cy="422.8" rx="2.6" ry="7.2"/>
	<ellipse class="st5" cx="577.7" cy="422.8" rx="2.6" ry="7.2"/>
	<ellipse class="st5" cx="582.8" cy="422.8" rx="2.6" ry="7.2"/>
	<ellipse class="st5" cx="588.2" cy="422.8" rx="2.6" ry="7.2"/>
	<ellipse class="st5" cx="593.7" cy="422.8" rx="2.6" ry="7.2"/>
	<line class="st5" x1="523.7" y1="448" x2="598.7" y2="448"/>
</g>
<g id="Browser">
	<g>
		<rect x="11" y="29.3" class="st0" width="288.3" height="188"/>
		<ellipse class="st3" cx="31.3" cy="43.4" rx="6" ry="5.9"/>
		<ellipse class="st3" cx="49.4" cy="43.4" rx="6" ry="5.9"/>
		<ellipse class="st3" cx="67.5" cy="43.4" rx="6" ry="5.9"/>
		<line class="st0" x1="9.5" y1="54.5" x2="298.8" y2="54.5"/>
		<line class="st0" x1="10.2" y1="205.5" x2="297.8" y2="205.5"/>
		<path class="st3" d="M282.3,47.8H93.5c-1.1,0-2-0.9-2-2v-6.4c0-1.1,0.9-2,2-2h188.8c1.1,0,2,0.9,2,2v6.4
			C284.3,46.9,283.4,47.8,282.3,47.8z"/>
	</g>
	<rect x="21" y="77" class="st0" width="269" height="69"/>
	<line class="st0" x1="112" y1="162" x2="185" y2="162"/>
	<line class="st0" x1="26" y1="176" x2="136" y2="176"/>
	<line class="st0" x1="26" y1="187.5" x2="136" y2="187.5"/>
	<line class="st0" x1="164" y1="176" x2="274" y2="176"/>
	<line class="st0" x1="164" y1="187.5" x2="274" y2="187.5"/>
</g>
<g id="iPad-Landscape">
	<g>
		<circle class="st3" cx="376.7" cy="65.6" r="2.9"/>
		<circle class="st3" cx="387.4" cy="65.6" r="2.9"/>
		<circle class="st3" cx="398" cy="65.6" r="2.9"/>
		<circle class="st2" cx="334.7" cy="124.3" r="4.9"/>
		<circle class="st2" cx="571.7" cy="124.3" r="3.1"/>
		<path class="st3" d="M545.8,68.8H413.5c-0.5,0-1-0.4-1-1v-3.6c0-0.5,0.5-1,1-1h132.3c0.6,0,1,0.5,1,1v3.6
			C546.8,68.4,546.4,68.8,545.8,68.8z"/>
		<path class="st1" d="M576.6,219.3H326.8c-2.8,0-5-2.2-5-5v-180c0-2.7,2.2-5,5-5h249.9c2.8,0,5,2.2,5,5v180
			C581.6,217.1,579.4,219.3,576.6,219.3z"/>
		<path class="st1" d="M558.5,207H354.2c-2.8,0-5-2.2-5-5V46.7c0-2.8,2.2-5,5-5h204.2c2.8,0,5,2.2,5,5V202
			C563.5,204.7,561.2,207,558.5,207z"/>
		<polygon class="st3" points="554.6,187.5 362.1,187.5 362.1,73.1 362.1,57.9 554.6,57.9 		"/>
		<line class="st3" x1="554.1" y1="74.1" x2="362.1" y2="74.1"/>
	</g>
</g>
</svg>
