<?xml version="1.0" encoding="utf-8"?>
<!-- Generator: Adobe Illustrator 19.0.1, SVG Export Plug-In . SVG Version: 6.00 Build 0)  -->
<svg version="1.1" xmlns="http://www.w3.org/2000/svg" xmlns:xlink="http://www.w3.org/1999/xlink" x="0px" y="0px"
	 viewBox="-95 7 583 600" style="enable-background:new -95 7 583 600;" xml:space="preserve">
<style type="text/css">
	.st0{fill:none;stroke:#FFFFFF;stroke-width:4;stroke-miterlimit:10;}
	.st1{fill:none;stroke:#FFFFFF;stroke-width:4;stroke-miterlimit:5;}
	.st2{fill:none;stroke:#FFFFFF;stroke-width:2;stroke-miterlimit:5;}
	.st3{fill:#FFFFFF;}
	.st4{fill:none;stroke:#FFFFFF;stroke-width:3;stroke-miterlimit:10;}
	.st5{fill:none;stroke:#FFFFFF;stroke-width:3;stroke-linecap:round;stroke-miterlimit:10;}
	.st6{fill:none;stroke:#FFFFFF;stroke-width:3;stroke-miterlimit:10;stroke-dasharray:5;}
	.st7{fill:none;stroke:#FFFFFF;stroke-width:3;stroke-miterlimit:5;stroke-dasharray:5;}
	.st8{fill:none;stroke:#FFFFFF;stroke-width:3;stroke-miterlimit:5;}
</style>
<g id="Head">
	<path class="st0" d="M28.3,602c0,0-1-50.8-15.6-49.8c-14.6,1-49.8,12.7-42.9-21.5c-2.9-2-6.8-11.7,0-13.7c-5.9-2.9-5.9-2.9-5.9-2.9
		l5.9-14.6c0,0-24.4-13.7-21.5-15.6c2.9-2,18.5-16.6,21.5-25.4c0-13.7-24.4-91.6,50.8-114.1c22.4-7.8,118-38.1,148.3,52.6
		c3.9,10.7,21.5,56.5-30.3,97.5"/>
</g>
<g id="Notebook_1_">
	<g>
		<rect x="174.7" y="202.1" class="st1" width="80.4" height="156.2"/>
		<ellipse class="st2" cx="181.8" cy="200.8" rx="2.8" ry="7.8"/>
		<ellipse class="st2" cx="186.9" cy="200.8" rx="2.8" ry="7.8"/>
		<ellipse class="st2" cx="193" cy="200.8" rx="2.8" ry="7.8"/>
		<ellipse class="st2" cx="199.2" cy="200.8" rx="2.8" ry="7.8"/>
		<ellipse class="st2" cx="204.9" cy="200.8" rx="2.8" ry="7.8"/>
		<ellipse class="st2" cx="210.7" cy="200.8" rx="2.8" ry="7.8"/>
		<ellipse class="st2" cx="216.3" cy="200.8" rx="2.8" ry="7.8"/>
		<ellipse class="st2" cx="222.1" cy="200.8" rx="2.8" ry="7.8"/>
		<ellipse class="st2" cx="228.1" cy="200.8" rx="2.8" ry="7.8"/>
		<ellipse class="st2" cx="233.6" cy="200.8" rx="2.8" ry="7.8"/>
		<ellipse class="st2" cx="239.1" cy="200.8" rx="2.8" ry="7.8"/>
		<ellipse class="st2" cx="245" cy="200.8" rx="2.8" ry="7.8"/>
		<ellipse class="st2" cx="251" cy="200.8" rx="2.8" ry="7.8"/>
		<line class="st2" x1="175" y1="228.2" x2="256.4" y2="228.2"/>
	</g>
</g>
<g id="Thought_Bubble">
	<g>
		<path class="st1" d="M-66.7,273.2c-0.3-0.3-0.4-0.9-1-0.9c-3.9,0.4-17.7,1.2-18.3-15.2c0-13.1,20.6-12.3,20.6-12.3
			s4.9-13.8,18.4-9.1c1.3-4.8,5.1-29.6,35.9-31.1c19,0.2,30.8,13.9,33.1,24.8c2.3-1.5,16.5-4.8,18.2,10.6c3.8,0,28.3-3.6,29.8,18.2
			c-0.5,21.5-33.4,18.2-37.6,13.1c-1.3,4-3.3,11.6-13.9,12.9c-10.6,1.3-16.2-6.3-16.2-6.3s-12.9,7.3-25.5-2.4
			c-4,3.8-10.1,12.7-29.6,7.6C-62.6,279.7-65.1,274.9-66.7,273.2z"/>
		<circle class="st1" cx="32.2" cy="295.1" r="3.8"/>
		<circle class="st1" cx="51.9" cy="323.1" r="6.7"/>
		<circle class="st1" cx="40.3" cy="308.6" r="4.9"/>
	</g>
</g>
<g id="Phone">
	<g>
		<circle class="st3" cx="279.4" cy="578.1" r="3.6"/>
		<path class="st1" d="M234.7,581.8V427.3c0-3,2.4-5.4,5.4-5.4h78.5c3,0,5.4,2.4,5.4,5.4v154.5c0,3-2.4,5.4-5.4,5.4h-78.5
			C237.2,587.3,234.7,584.9,234.7,581.8z"/>
		<path class="st1" d="M243.8,562.4V442c0-3,2.4-5.4,5.4-5.4h60c3,0,5.4,2.4,5.4,5.4v120.3c0,3-2.4,5.4-5.4,5.4h-60
			C246.2,567.8,243.8,565.3,243.8,562.4z"/>
		<path class="st4" d="M341.4,451.5"/>
		<path class="st4" d="M341.4,592.7"/>
		<line class="st5" x1="269.7" y1="429.8" x2="289.2" y2="429.8"/>
	</g>
	<rect x="254.5" y="449.6" class="st1" width="49.9" height="45.5"/>
	<line class="st1" x1="268.6" y1="507.1" x2="289.2" y2="507.1"/>
	<line class="st1" x1="256.7" y1="524.5" x2="302.3" y2="524.5"/>
	<line class="st1" x1="256.7" y1="538" x2="302.3" y2="538"/>
	<line class="st1" x1="256.7" y1="551.6" x2="302.3" y2="551.6"/>
</g>
<g id="Lines">
	<polyline class="st6" points="-32.1,140.8 -32.1,191 99.5,191 99.5,323 	"/>
	<line class="st7" x1="140.7" y1="333" x2="140.7" y2="174.7"/>
	<polyline class="st7" points="218,368.5 218,423.4 187,423.4 	"/>
	<polyline class="st7" points="414.7,176.9 414.7,388.7 178.3,388.7 	"/>
	<line class="st7" x1="169.4" y1="472.9" x2="225.8" y2="472.9"/>
</g>
<g id="Book__x26__Pencil">
	<g>
		<rect x="60.1" y="13.4" class="st1" width="15.7" height="132.7"/>
		<polygon class="st1" points="60.7,150.2 67.2,175 75.2,150.2 		"/>
		<line class="st1" x1="59" y1="23.2" x2="75.9" y2="23.2"/>
		<line class="st1" x1="59" y1="29.1" x2="75.6" y2="29.1"/>
	</g>
	<g>
		<rect x="89.4" y="12.8" class="st1" width="264.6" height="154"/>
		<line class="st1" x1="215.8" y1="166" x2="216.9" y2="12.8"/>
		<line class="st8" x1="98" y1="29.4" x2="143.6" y2="29.4"/>
		<line class="st8" x1="101.7" y1="52.5" x2="200.1" y2="52.5"/>
		<line class="st8" x1="101.7" y1="64.8" x2="200.1" y2="64.8"/>
		<line class="st8" x1="101.7" y1="77.1" x2="200.1" y2="77.1"/>
		<line class="st8" x1="101.7" y1="89.4" x2="200.1" y2="89.4"/>
		<line class="st8" x1="101.7" y1="101.7" x2="200.1" y2="101.7"/>
		<circle class="st8" cx="265.4" cy="66.6" r="28.5"/>
		<circle class="st8" cx="308.8" cy="66.6" r="28.5"/>
		<circle class="st8" cx="287.4" cy="100.6" r="28.5"/>
	</g>
</g>
<g id="Graphs">
	<g>
		<polyline class="st1" points="483.2,82.5 370.6,82.5 370.6,11.7 		"/>
		<polyline class="st8" points="386.2,66.3 419.1,47.3 429.5,62.8 483.2,24.7 		"/>
	</g>
	<g>
		<polyline class="st1" points="482.5,170.4 369.8,170.4 369.8,95.2 		"/>
		<rect x="377.8" y="138.6" class="st8" width="15.2" height="31.1"/>
		<rect x="404.7" y="122" class="st8" width="15.2" height="47.7"/>
		<rect x="432.6" y="116.7" class="st8" width="15.2" height="52.9"/>
		<rect x="460.6" y="104.3" class="st8" width="15.2" height="65.4"/>
	</g>
</g>
<g id="Social">
	<path id="instagram-6-icon_2_" class="st3" d="M-39.1,33.2h-3.9c0.3,1.1,0.4,2.3,0.4,3.5c0,7.6-6.2,13.8-13.8,13.8
		s-13.8-6.2-13.8-13.8c0-1.2,0.2-2.4,0.4-3.5h-3.9v19c0,1,0.8,1.7,1.7,1.7h31c1,0,1.7-0.8,1.7-1.7V33.2L-39.1,33.2z M-39.1,21.1
		c0-1-0.8-1.7-1.7-1.7h-5.2c-1,0-1.7,0.8-1.7,1.7v5.2c0,1,0.8,1.7,1.7,1.7h5.2c1,0,1.7-0.8,1.7-1.7V21.1z M-56.4,28
		c-4.8,0-8.6,3.9-8.6,8.6c0,4.8,3.9,8.6,8.6,8.6c4.8,0,8.6-3.9,8.6-8.6C-47.7,31.9-51.6,28-56.4,28 M-39.1,59h-34.5
		c-2.8,0-5.2-2.3-5.2-5.2V19.4c0-2.8,2.3-5.2,5.2-5.2h34.5c2.8,0,5.2,2.3,5.2,5.2v34.5C-33.9,56.7-36.2,59-39.1,59"/>
	<path id="facebook-icon_2_" class="st3" d="M-65.4,91.6h-5.1v8.4h5.1v24.6h9.9V99.9h6.8l0.8-8.2h-7.6c0,0,0-3,0-4.7
		c0-2,0.4-2.7,2.3-2.7c1.5,0,5.3,0,5.3,0v-8.6c0,0-5.6,0-6.8,0c-7.4,0-10.6,3.3-10.6,9.4C-65.4,90.4-65.4,91.6-65.4,91.6z"/>
	<g id="google-plus-icon_2_">
		<path class="st3" d="M41,23.4h-7.2v7.2h-3.6v-7.2h-7.2v-3.6h7.2v-7.2h3.6v7.2H41V23.4z M20.8,53c0,5.3-4.9,11.9-17.2,11.9
			c-9,0-16.5-3.9-16.5-10.4c0-5,3.1-11.6,18.1-11.6c-2.2-1.8-2.7-4.3-1.4-7c-8.8,0-13.2-5.1-13.2-11.6C-9.4,17.8-4.7,12,5,12
			c2.5,0,15.5,0,15.5,0L17,15.7h-4.1c2.8,1.6,4.4,5,4.4,8.8c0,3.5-1.8,6.2-4.6,8.2c-4.8,3.7-3.6,5.7,1.4,9.4
			C19.2,45.8,20.8,48.6,20.8,53z M11.2,24.6c-0.8-5.5-4.3-10-8.5-10.1c-4.2-0.1-6.9,4.1-6.3,9.5c0.8,5.5,4.7,9.3,8.9,9.4
			C9.4,33.6,11.8,30.1,11.2,24.6z M15.4,53.6c0-4.6-4.1-8.8-11.1-8.8c-6.2-0.1-11.5,3.9-11.5,8.6c0,4.8,4.4,8.7,10.7,8.7
			C11.6,61.9,15.4,58.2,15.4,53.6z"/>
	</g>
	<path id="twitter-icon_2_" class="st3" d="M37.6,83.4c-2.1,0.9-4.2,1.5-6.5,1.7c2.3-1.4,4.1-3.6,5-6.3c-2.2,1.3-4.6,2.3-7.2,2.7
		c-2.1-2.2-5-3.6-8.2-3.6c-7.3,0-12.6,6.8-11,13.9c-9.3-0.4-17.7-5-23.2-11.8c-2.9,5.1-1.5,11.7,3.5,15.1c-1.8-0.1-3.6-0.5-5.1-1.4
		c-0.1,5.2,3.6,10.1,9,11.2c-1.6,0.4-3.4,0.5-5.1,0.2c1.4,4.4,5.6,7.7,10.5,7.8c-4.8,3.7-10.7,5.4-16.7,4.7c5,3.1,11,5.1,17.2,5.1
		c20.9,0,32.8-17.7,32-33.5C34.2,87.6,36.1,85.7,37.6,83.4z"/>
</g>
</svg>
