<?xml version="1.0" encoding="utf-8"?>
<!-- Generator: Adobe Illustrator 19.0.1, SVG Export Plug-In . SVG Version: 6.00 Build 0)  -->
<svg version="1.1" xmlns="http://www.w3.org/2000/svg" xmlns:xlink="http://www.w3.org/1999/xlink" x="0px" y="0px"
	 viewBox="0 0 600 600" style="enable-background:new 0 0 600 600;" xml:space="preserve">
<style type="text/css">
	.st0{fill:#FFFFFF;}
	.st1{fill:none;stroke:#FFFFFF;stroke-width:4;stroke-miterlimit:5;}
	.st2{fill:none;stroke:#FFFFFF;stroke-width:3;stroke-miterlimit:10;}
	.st3{fill:none;stroke:#FFFFFF;stroke-width:3;stroke-linecap:round;stroke-miterlimit:10;}
	.st4{fill:none;stroke:#FFFFFF;stroke-width:2;stroke-miterlimit:5;}
	.st5{fill:none;stroke:#FFFFFF;stroke-width:2;stroke-miterlimit:5;stroke-dasharray:5.2558,5.2558;}
	.st6{fill:none;stroke:#FFFFFF;stroke-width:2;stroke-miterlimit:5;stroke-dasharray:5.318,5.318;}
	.st7{fill:none;stroke:#FFFFFF;stroke-width:4;stroke-miterlimit:10;}
</style>
<g id="iPhone">
	<g>
		<circle class="st0" cx="442.9" cy="559.5" r="3.3"/>
		<path class="st1" d="M401.7,562.9V420.4c0-2.8,2.2-5,5-5h72.4c2.8,0,5,2.2,5,5v142.5c0,2.8-2.2,5-5,5h-72.4
			C404,567.9,401.7,565.7,401.7,562.9z"/>
		<path class="st1" d="M410.1,545V434c0-2.8,2.2-5,5-5h55.3c2.8,0,5,2.2,5,5V545c0,2.8-2.2,5-5,5h-55.3
			C412.3,550,410.1,547.7,410.1,545z"/>
		<path class="st2" d="M500.1,442.7"/>
		<path class="st2" d="M500.1,572.9"/>
		<line class="st3" x1="434" y1="422.7" x2="452" y2="422.7"/>
	</g>
	<rect x="420" y="441" class="st1" width="46" height="42"/>
	<line class="st1" x1="433" y1="494" x2="452" y2="494"/>
	<line class="st1" x1="422" y1="510" x2="464" y2="510"/>
	<line class="st1" x1="422" y1="522.5" x2="464" y2="522.5"/>
	<line class="st1" x1="422" y1="535" x2="464" y2="535"/>
</g>
<g id="Notebook">
	<rect x="494.7" y="418" class="st1" width="14.5" height="122.4"/>
	<polygon class="st1" points="495.3,544 501.3,567 508.6,544 	"/>
	<line class="st1" x1="493.7" y1="427" x2="509.3" y2="427"/>
	<line class="st1" x1="493.7" y1="432.3" x2="509" y2="432.3"/>
	<rect x="520.4" y="428" class="st1" width="74.1" height="144"/>
	<ellipse class="st4" cx="526.9" cy="426.8" rx="2.6" ry="7.2"/>
	<ellipse class="st4" cx="531.6" cy="426.8" rx="2.6" ry="7.2"/>
	<ellipse class="st4" cx="537.3" cy="426.8" rx="2.6" ry="7.2"/>
	<ellipse class="st4" cx="543" cy="426.8" rx="2.6" ry="7.2"/>
	<ellipse class="st4" cx="548.2" cy="426.8" rx="2.6" ry="7.2"/>
	<ellipse class="st4" cx="553.6" cy="426.8" rx="2.6" ry="7.2"/>
	<ellipse class="st4" cx="558.7" cy="426.8" rx="2.6" ry="7.2"/>
	<ellipse class="st4" cx="564.1" cy="426.8" rx="2.6" ry="7.2"/>
	<ellipse class="st4" cx="569.6" cy="426.8" rx="2.6" ry="7.2"/>
	<ellipse class="st4" cx="574.7" cy="426.8" rx="2.6" ry="7.2"/>
	<ellipse class="st4" cx="579.8" cy="426.8" rx="2.6" ry="7.2"/>
	<ellipse class="st4" cx="585.2" cy="426.8" rx="2.6" ry="7.2"/>
	<ellipse class="st4" cx="590.7" cy="426.8" rx="2.6" ry="7.2"/>
	<line class="st4" x1="520.7" y1="452" x2="595.7" y2="452"/>
</g>
<g id="Die_Cut">
	<rect x="446.1" y="298.4" class="st1" width="102.4" height="40"/>
	<rect x="399.5" y="298.4" class="st1" width="48" height="40"/>
	<rect x="549" y="299.8" class="st1" width="48" height="40"/>
	<rect x="446.4" y="242.6" class="st1" width="102" height="55.3"/>
	<rect x="446.4" y="339" class="st1" width="102" height="55.3"/>
	<g>
		<g>
			<line class="st4" x1="445" y1="268" x2="447.5" y2="268"/>
			<line class="st5" x1="452.7" y1="268" x2="544.7" y2="268"/>
			<line class="st4" x1="547.3" y1="268" x2="549.8" y2="268"/>
		</g>
	</g>
	<g>
		<g>
			<line class="st4" x1="445" y1="371.5" x2="447.5" y2="371.5"/>
			<line class="st5" x1="452.7" y1="371.5" x2="544.7" y2="371.5"/>
			<line class="st4" x1="547.3" y1="371.5" x2="549.8" y2="371.5"/>
		</g>
	</g>
	<g>
		<g>
			<line class="st4" x1="422.9" y1="340.5" x2="422.9" y2="338"/>
			<line class="st6" x1="422.9" y1="332.7" x2="422.9" y2="303.4"/>
			<line class="st4" x1="422.9" y1="300.8" x2="422.9" y2="298.3"/>
		</g>
	</g>
	<g>
		<g>
			<line class="st4" x1="575.2" y1="341.2" x2="575.2" y2="338.7"/>
			<line class="st6" x1="575.2" y1="333.4" x2="575.2" y2="304.1"/>
			<line class="st4" x1="575.2" y1="301.5" x2="575.2" y2="299"/>
		</g>
	</g>
</g>
<g id="Desktop">
	<g>
		<path class="st7" d="M370.2,489.5H26c-2.8,0-5-2.2-5-5v-222c0-2.8,2.2-5,5-5h344.2c2.8,0,5,2.2,5,5v222
			C375.2,487.2,372.9,489.5,370.2,489.5z"/>
		<path class="st7" d="M382.9,524.7H13.3c-3.8,0-7-3.2-7-7v-265c0-3.8,3.2-7,7-7h369.6c3.9,0,7,3.2,7,7v265
			C389.9,521.5,386.7,524.7,382.9,524.7z"/>
		<circle class="st7" cx="198.1" cy="507.4" r="8.2"/>
		<polyline class="st7" points="170.2,524.7 170.2,560 127.7,560 127.7,571.1 265.6,571.1 265.6,560.6 223.8,560.6 223.8,524 		"/>
	</g>
	<line class="st7" x1="157" y1="417" x2="230" y2="417"/>
	<line class="st7" x1="71" y1="437" x2="181" y2="437"/>
	<line class="st7" x1="71" y1="451.5" x2="181" y2="451.5"/>
	<line class="st7" x1="71" y1="466" x2="181" y2="466"/>
	<line class="st7" x1="209" y1="437" x2="319" y2="437"/>
	<line class="st7" x1="209" y1="451.5" x2="319" y2="451.5"/>
	<line class="st7" x1="209" y1="466" x2="319" y2="466"/>
	<rect x="32" y="270" class="st7" width="39" height="15.8"/>
	<rect x="32.1" y="298" class="st7" width="328.9" height="93"/>
	<line class="st7" x1="356.7" y1="272" x2="344.7" y2="272"/>
	<line class="st7" x1="356.7" y1="277.5" x2="344.7" y2="277.5"/>
	<line class="st7" x1="356.7" y1="283" x2="344.7" y2="283"/>
</g>
<g id="iPad">
	<g>
		<circle class="st2" cx="373.7" cy="69.6" r="2.9"/>
		<circle class="st2" cx="384.4" cy="69.6" r="2.9"/>
		<circle class="st2" cx="395" cy="69.6" r="2.9"/>
		<circle class="st0" cx="331.7" cy="128.3" r="4.9"/>
		<circle class="st0" cx="568.7" cy="128.3" r="3.1"/>
		<path class="st2" d="M542.8,72.8H410.5c-0.5,0-1-0.4-1-1v-3.6c0-0.5,0.5-1,1-1h132.3c0.6,0,1,0.4,1,1v3.6
			C543.8,72.4,543.4,72.8,542.8,72.8z"/>
		<path class="st1" d="M573.6,223.3H323.8c-2.8,0-5-2.2-5-5v-180c0-2.8,2.2-5,5-5h249.9c2.8,0,5,2.2,5,5v180
			C578.6,221.1,576.4,223.3,573.6,223.3z"/>
		<path class="st1" d="M555.5,211H351.2c-2.8,0-5-2.2-5-5V50.7c0-2.8,2.2-5,5-5h204.2c2.8,0,5,2.2,5,5V206
			C560.5,208.7,558.2,211,555.5,211z"/>
		<polygon class="st2" points="551.6,191.5 359.1,191.5 359.1,77.1 359.1,61.9 551.6,61.9 		"/>
		<line class="st2" x1="551.1" y1="78.1" x2="359.1" y2="78.1"/>
	</g>
</g>
<g id="Stationary">
	<rect x="7.3" y="28.3" class="st1" width="138.7" height="203.4"/>
	<rect x="157.3" y="183.4" class="st1" width="138.7" height="48.6"/>
	<rect x="157.3" y="28.3" class="st1" width="60" height="32.4"/>
	<rect x="228" y="27.6" class="st1" width="69.2" height="82.9"/>
	<circle class="st1" cx="27.7" cy="49.3" r="10"/>
	<circle class="st1" cx="240" cy="40.3" r="5.7"/>
	<circle class="st1" cx="174.7" cy="199" r="7.7"/>
	<rect x="157.3" y="120.7" class="st1" width="138.7" height="48.6"/>
	<circle class="st1" cx="226.3" cy="135" r="5.3"/>
	<line class="st1" x1="21" y1="217.3" x2="131" y2="217.3"/>
	<line class="st1" x1="235.7" y1="102" x2="287.7" y2="102"/>
	<line class="st1" x1="173.7" y1="222" x2="283.7" y2="222"/>
	<line class="st1" x1="171.6" y1="54" x2="202.9" y2="54"/>
	<line class="st1" x1="171.6" y1="46.3" x2="202.9" y2="46.3"/>
	<line class="st1" x1="171.6" y1="38.7" x2="202.9" y2="38.7"/>
	<rect x="157.3" y="74.9" class="st1" width="60" height="32.4"/>
	<circle class="st1" cx="186.7" cy="88.7" r="5.3"/>
	<line class="st1" x1="171" y1="100.7" x2="202.3" y2="100.7"/>
	<polyline class="st1" points="158,120.7 226,156.7 296.7,120.7 	"/>
</g>
</svg>
